<svg width="49" height="47" viewBox="0 0 49 47" fill="none" xmlns="http://www.w3.org/2000/svg">
<path d="M22.2891 34.4517C21.668 31.7606 23.5724 29.1646 26.1665 29.1676C28.7606 29.1706 30.6704 31.7711 30.0548 34.4607L27.702 44.7301C27.6187 45.0929 27.4238 45.4152 27.1486 45.6454C26.8734 45.8756 26.5337 46.0004 26.1838 46C25.8338 45.9996 25.4938 45.8739 25.2182 45.6431C24.9425 45.4123 24.747 45.0896 24.6629 44.7266L22.2891 34.4517Z" fill="#FFA07A"/>
<path d="M22.4626 33.619L25.244 33.6223L22.4626 33.619Z" fill="#FFA07A"/>
<path d="M26.6382 37.0896L29.4196 37.0928L26.6382 37.0896Z" fill="#FFA07A"/>
<path d="M23.8609 41.047L25.7151 41.0492L23.8609 41.047Z" fill="#FFA07A"/>
<path d="M22.4626 33.619L25.244 33.6223M26.6382 37.0896L29.4196 37.0928M23.8609 41.047L25.7151 41.0492M22.2891 34.4517C21.668 31.7606 23.5724 29.1646 26.1665 29.1676C28.7606 29.1706 30.6704 31.7711 30.0548 34.4607L27.702 44.7301C27.6187 45.0929 27.4238 45.4152 27.1486 45.6454C26.8734 45.8756 26.5337 46.0004 26.1838 46C25.8338 45.9996 25.4938 45.8739 25.2182 45.6431C24.9425 45.4123 24.747 45.0896 24.6629 44.7266L22.2891 34.4517Z" stroke="#4A4A4A" stroke-linecap="round"/>
<path d="M25.5 29.2092C27.2982 21.5039 20.2846 16.8613 25.6247 8.33435" stroke="#4A4A4A" stroke-linecap="round"/>
<path d="M25.5 29.2092C27.912 26.5951 29.8162 25.1773 31.9186 21.932C34.966 17.0928 35.4687 14.4105 33.7168 9.69409" stroke="#4A4A4A" stroke-linecap="round"/>
<path d="M25.5 29.2092C23.7018 27.3962 17.0831 26.9178 16.1841 11.5071" stroke="#4A4A4A" stroke-linecap="round"/>
<path d="M18.4316 22.2095C19.6305 18.4324 21.9382 9.96605 19.7803 5.61481" stroke="#4A4A4A" stroke-linecap="round"/>
<path d="M17.5328 20.8497C15.5848 20.2454 10.6996 16.9462 4.94531 9.69409" stroke="#4A4A4A" stroke-linecap="round"/>
<path d="M24.7256 21.0255C27.1232 19.8168 31.6487 16.4023 30.5698 12.4136" stroke="#4A4A4A" stroke-linecap="round"/>
<path d="M32.8174 21.4787C36.5637 21.3277 43.5168 19.847 41.3589 15.1332" stroke="#4A4A4A" stroke-linecap="round"/>
<path d="M35.0654 13.3202C36.5639 12.1115 39.3811 9.24088 38.6619 7.42786" stroke="#4A4A4A" stroke-linecap="round"/>
<path d="M34.7522 11.3481C35.4505 9.5459 36.4667 5.63968 34.9447 4.43216" stroke="#4A4A4A" stroke-linecap="round"/>
<path d="M24.2761 16.7704C25.7746 15.5617 28.5918 12.6911 27.8726 10.8781" stroke="#4A4A4A" stroke-linecap="round"/>
<path d="M16.5313 14.9574C15.0327 13.7487 12.2155 10.8781 12.9348 9.06506" stroke="#4A4A4A" stroke-linecap="round"/>
<path d="M41.3591 18.5834C42.8576 17.3747 45.6748 14.5041 44.9556 12.6911" stroke="#4A4A4A" stroke-linecap="round"/>
<path d="M5.20251 9.78297C6.14884 8.05743 5.30736 5.32165 1.67791 4.81323C0.705149 9.96598 3.12264 10.8813 5.20251 9.78297Z" fill="#9ABD6D" stroke="#4A4A4A" stroke-linecap="round"/>
<path d="M16.012 12.6021C17.6873 11.5847 18.3153 8.79129 15.4242 6.52131C12.0264 10.4933 13.6661 12.5047 16.012 12.6021Z" fill="#9ABD6D" stroke="#4A4A4A" stroke-linecap="round"/>
<path d="M7.09179 13.3418C5.68358 11.9736 2.84481 12.085 1.41835 15.4881C6.10311 17.769 7.6057 15.6516 7.09179 13.3418Z" fill="#9ABD6D" stroke="#4A4A4A" stroke-linecap="round"/>
<path d="M7.66411 12.765C6.30708 11.3452 6.4176 8.48305 9.79286 7.04485C12.0552 11.7682 9.95506 13.2831 7.66411 12.765Z" fill="#9ABD6D" stroke="#4A4A4A" stroke-linecap="round"/>
<path d="M11.445 17.2109C11.9161 19.1246 10.401 21.5476 6.76474 21.0916C7.14787 15.8606 9.71795 15.6073 11.445 17.2109Z" fill="#9ABD6D" stroke="#4A4A4A" stroke-linecap="round"/>
<path d="M20.797 6.53905C18.8417 6.50256 16.9125 4.39993 18.2905 0.976651C23.2029 2.70365 22.7803 5.27215 20.797 6.53905Z" fill="#9ABD6D" stroke="#4A4A4A" stroke-linecap="round"/>
<path d="M24.7471 9.13896C23.3901 7.71916 23.5006 4.85702 26.8759 3.41881C29.1382 8.14214 27.0381 9.6571 24.7471 9.13896Z" fill="#9ABD6D" stroke="#4A4A4A" stroke-linecap="round"/>
<path d="M30.8035 13.9603C28.9242 13.4149 27.6005 10.8805 29.8103 7.93341C34.112 10.8834 33.0445 13.2542 30.8035 13.9603Z" fill="#9ABD6D" stroke="#4A4A4A" stroke-linecap="round"/>
<path d="M39.1811 8.06952C37.5058 7.05221 36.8779 4.25876 39.7689 1.98878C43.1667 5.96081 41.527 7.97218 39.1811 8.06952Z" fill="#9ABD6D" stroke="#4A4A4A" stroke-linecap="round"/>
<path d="M28.3918 11.5198C26.7165 10.5025 26.0885 7.70901 28.9796 5.43904C32.3774 9.41106 30.7377 11.4224 28.3918 11.5198Z" fill="#9ABD6D" stroke="#4A4A4A" stroke-linecap="round"/>
<path d="M12.4156 9.70679C14.0908 8.68948 14.7188 5.89602 11.8278 3.62605C8.43 7.59808 10.0697 9.60945 12.4156 9.70679Z" fill="#9ABD6D" stroke="#4A4A4A" stroke-linecap="round"/>
<path d="M45.475 13.3328C43.7998 12.3155 43.1718 9.52206 46.0629 7.25209C49.4606 11.2241 47.8209 13.2355 45.475 13.3328Z" fill="#9ABD6D" stroke="#4A4A4A" stroke-linecap="round"/>
<path d="M41.1786 15.9144C39.2394 16.1697 37.0231 14.3777 37.8841 10.7867C42.9957 11.7626 42.9544 14.3658 41.1786 15.9144Z" fill="#9ABD6D" stroke="#4A4A4A" stroke-linecap="round"/>
<path d="M31.838 21.0237C29.8988 21.279 27.6825 19.487 28.5435 15.8959C33.6551 16.8718 33.6138 19.4751 31.838 21.0237Z" fill="#9ABD6D" stroke="#4A4A4A" stroke-linecap="round"/>
<path d="M40.2144 19.6874C41.6226 18.3192 44.4613 18.4306 45.8878 21.8336C41.203 24.1146 39.7004 21.9972 40.2144 19.6874Z" fill="#9ABD6D" stroke="#4A4A4A" stroke-linecap="round"/>
<path d="M31.2234 23.1377C32.6316 21.7695 35.4704 21.8809 36.8968 25.284C32.2121 27.5649 30.7095 25.4475 31.2234 23.1377Z" fill="#9ABD6D" stroke="#4A4A4A" stroke-linecap="round"/>
<path d="M23.5623 19.2724C23.0212 17.3776 20.5075 16.043 17.5845 18.271C20.5105 22.6081 22.8618 21.5318 23.5623 19.2724Z" fill="#9ABD6D" stroke="#4A4A4A" stroke-linecap="round"/>
<path d="M19.9658 24.8873C19.4248 22.9925 16.9111 21.6579 13.9881 23.8859C16.9141 28.223 19.2654 27.1467 19.9658 24.8873Z" fill="#9ABD6D" stroke="#4A4A4A" stroke-linecap="round"/>
<path d="M16.3694 15.8221C15.8284 13.9273 13.3147 12.5928 10.3917 14.8208C13.3176 19.1578 15.669 18.0816 16.3694 15.8221Z" fill="#9ABD6D" stroke="#4A4A4A" stroke-linecap="round"/>
<path d="M16.5513 15.8221C17.0923 13.9273 19.606 12.5928 22.529 14.8208C19.603 19.1578 17.2517 18.0816 16.5513 15.8221Z" fill="#9ABD6D" stroke="#4A4A4A" stroke-linecap="round"/>
<path d="M24.4614 10.3831C23.9204 8.4883 21.4067 7.15373 18.4837 9.38175C21.4097 13.7188 23.761 12.6425 24.4614 10.3831Z" fill="#9ABD6D" stroke="#4A4A4A" stroke-linecap="round"/>
<path d="M39.5783 19.3307C39.5421 17.3593 37.4566 15.4142 34.0613 16.8036C35.7742 21.7564 38.3217 21.3304 39.5783 19.3307Z" fill="#9ABD6D" stroke="#4A4A4A" stroke-linecap="round"/>
<path d="M35.6752 3.03809C35.7951 2.71043 35.9804 2.50045 36.1963 2.40939L36.2907 2.37778C36.9409 2.21222 37.5851 2.54983 37.807 3.10405L37.8458 3.21811C37.8637 3.28161 37.86 3.36841 37.7841 3.50051C37.7044 3.63912 37.5601 3.79718 37.3545 3.95744C36.9937 4.23876 36.5233 4.46839 36.1387 4.59095L35.9798 4.63698C35.8788 4.66273 35.7993 4.6808 35.7369 4.6947C35.7268 4.64627 35.7155 4.5902 35.7016 4.52773L35.6197 4.20067C35.5226 3.8555 35.5385 3.41166 35.6752 3.03809Z" fill="#D2A679" stroke="#4A4A4A"/>
<path d="M33.7328 4.0961C33.4447 3.89699 33.2888 3.6663 33.256 3.43732L33.2485 3.33923C33.2552 2.67501 33.7527 2.14447 34.3531 2.07561L34.4743 2.06821C34.5413 2.06757 34.625 2.09271 34.7336 2.19891C34.8478 2.31062 34.9636 2.48955 35.0666 2.72732C35.2475 3.14485 35.3505 3.65367 35.3705 4.053L35.3733 4.21676C35.3722 4.321 35.3695 4.40217 35.3669 4.46561C35.3166 4.46274 35.2583 4.45886 35.1929 4.45599L34.8522 4.44941C34.4899 4.45295 34.0614 4.32322 33.7328 4.0961Z" fill="#D2A679" stroke="#4A4A4A"/>
<path d="M34.1567 6.90918C33.8095 6.97026 33.5313 6.91553 33.3422 6.77493L33.2669 6.70947C32.7961 6.23395 32.7716 5.51564 33.1431 5.051L33.223 4.96108C33.2691 4.91462 33.347 4.87333 33.502 4.87242C33.6641 4.87151 33.8753 4.91653 34.1186 5.01276C34.5456 5.18178 34.9818 5.4709 35.2816 5.7396L35.4015 5.85326C35.4737 5.92613 35.5289 5.98459 35.572 6.03084C35.5356 6.063 35.4932 6.09937 35.4471 6.14116L35.2016 6.37511C34.9488 6.63044 34.5527 6.83947 34.1567 6.90918Z" fill="#D2A679" stroke="#4A4A4A"/>
<path d="M37.2832 6.90918C37.6304 6.97026 37.9086 6.91553 38.0977 6.77493L38.1731 6.70947C38.6438 6.23395 38.6684 5.51564 38.2969 5.051L38.2169 4.96108C38.1708 4.91462 38.093 4.87333 37.938 4.87242C37.7759 4.87151 37.5647 4.91653 37.3214 5.01276C36.8943 5.18178 36.4582 5.4709 36.1584 5.7396L36.0384 5.85326C35.9663 5.92613 35.9111 5.98459 35.8679 6.03084C35.9044 6.063 35.9468 6.09937 35.9929 6.14116L36.2383 6.37511C36.4912 6.63044 36.8872 6.83947 37.2832 6.90918Z" fill="#D2A679" stroke="#4A4A4A"/>
<path d="M36.8367 8.80455C37.1065 9.02932 37.3751 9.11968 37.6099 9.09152L37.7082 9.07214C38.356 8.89339 38.74 8.28346 38.6529 7.69715L38.629 7.57968C38.6126 7.51663 38.566 7.44234 38.4322 7.3648C38.2923 7.28376 38.0867 7.2182 37.8274 7.1811C37.3722 7.11603 36.8485 7.1505 36.4532 7.23479L36.2919 7.27383C36.1926 7.30121 36.1153 7.32452 36.0546 7.34322C36.0699 7.38911 36.0882 7.44159 36.1071 7.50062L36.2015 7.82472C36.2915 8.17103 36.529 8.54814 36.8367 8.80455Z" fill="#D2A679" stroke="#4A4A4A"/>
<path d="M34.603 8.80455C34.3332 9.02932 34.0646 9.11968 33.8298 9.09152L33.7315 9.07214C33.0837 8.89339 32.6997 8.28346 32.7868 7.69715L32.8107 7.57968C32.8271 7.51663 32.8737 7.44234 33.0074 7.3648C33.1474 7.28376 33.353 7.2182 33.6123 7.1811C34.0675 7.11603 34.5912 7.1505 34.9865 7.23479L35.1478 7.27383C35.2471 7.30121 35.3244 7.32452 35.3851 7.34322C35.3698 7.38911 35.3515 7.44159 35.3326 7.50062L35.2382 7.82472C35.1482 8.17103 34.9107 8.54814 34.603 8.80455Z" fill="#D2A679" stroke="#4A4A4A"/>
</svg>
