<svg width="40" height="50" viewBox="0 0 40 50" fill="none" xmlns="http://www.w3.org/2000/svg">
<path d="M20.1571 28.3992C16.7805 28.3955 17.3218 31.5847 17.3039 35.0027L18.8924 47.8695C18.9199 48.0923 19.0043 48.3041 19.1374 48.4838C19.6473 49.1721 20.667 49.1721 21.1768 48.4838C21.3099 48.3041 21.3944 48.0923 21.4219 47.8695L23.0103 35.0027C22.9726 31.5847 23.5337 28.403 20.1571 28.3992Z" fill="#FFA07A" stroke="#4A4A4A" stroke-width="2" stroke-linecap="round"/>
<path d="M20.1571 28.3992C21.7874 21.383 15.3153 16.3532 20.1571 8.58887" stroke="#4A4A4A" stroke-width="2" stroke-linecap="round"/>
<path d="M20.5646 27.6825C22.7515 25.3022 23.9572 23.9254 25.8634 20.9703C28.6264 16.564 29.0822 14.1216 27.4938 9.82703" stroke="#4A4A4A" stroke-width="2" stroke-linecap="round"/>
<path d="M19.857 27.6825C21.253 26.6466 12.4126 25.5102 11.5975 11.4779" stroke="#4A4A4A" stroke-width="2" stroke-linecap="round"/>
<path d="M14.0431 20.9704C15.13 17.5311 16.8148 10.0747 14.8583 6.11261" stroke="#4A4A4A" stroke-width="2" stroke-linecap="round"/>
<path d="M13.2279 19.7322C11.4617 19.1819 6.62485 16.4305 1.40759 9.82703" stroke="#4A4A4A" stroke-width="2" stroke-linecap="round"/>
<path d="M19.3418 20.1449C21.5157 19.0444 25.6188 15.9352 24.6406 12.3033" stroke="#4A4A4A" stroke-width="2" stroke-linecap="round"/>
<path d="M26.6786 20.5577C30.0752 20.4201 36.3794 19.0719 34.423 14.7797" stroke="#4A4A4A" stroke-width="2" stroke-linecap="round"/>
<path d="M28.7167 13.1288C30.0753 12.0282 32.6296 9.41435 31.9775 7.76349" stroke="#4A4A4A" stroke-width="2" stroke-linecap="round"/>
<path d="M3.87259 12.6233C2.6422 11.3305 2.7424 8.72435 5.80266 7.41478C7.85388 11.7157 5.94973 13.0951 3.87259 12.6233Z" fill="#9ABD6D" stroke="#4A4A4A" stroke-width="2" stroke-linecap="round"/>
<path d="M6.48552 16.8317C6.91267 18.5742 5.53898 20.7804 2.24205 20.3652C2.58942 15.6021 4.91964 15.3715 6.48552 16.8317Z" fill="#9ABD6D" stroke="#4A4A4A" stroke-width="2" stroke-linecap="round"/>
<path d="M15.7798 6.95418C14.0069 6.92096 12.2578 5.00639 13.5072 1.88929C17.9611 3.46183 17.578 5.80059 15.7798 6.95418Z" fill="#9ABD6D" stroke="#4A4A4A" stroke-width="2" stroke-linecap="round"/>
<path d="M28.1134 9.58451C26.4095 9.08782 25.2094 6.7801 27.2129 4.09664C31.1131 6.78282 30.1453 8.94149 28.1134 9.58451Z" fill="#9ABD6D" stroke="#4A4A4A" stroke-width="2" stroke-linecap="round"/>
<path d="M32.4483 8.34778C30.9293 7.42146 30.36 4.87785 32.9812 2.81091C36.0619 6.42767 34.5752 8.25915 32.4483 8.34778Z" fill="#9ABD6D" stroke="#4A4A4A" stroke-width="2" stroke-linecap="round"/>
<path d="M34.2594 15.491C32.5011 15.7235 30.4917 14.0918 31.2724 10.8219C35.9069 11.7105 35.8694 14.081 34.2594 15.491Z" fill="#9ABD6D" stroke="#4A4A4A" stroke-width="2" stroke-linecap="round"/>
<path d="M25.7905 20.1432C24.0323 20.3757 22.0229 18.744 22.8035 15.4741C27.438 16.3628 27.4006 18.7332 25.7905 20.1432Z" fill="#9ABD6D" stroke="#4A4A4A" stroke-width="2" stroke-linecap="round"/>
<path d="M33.3853 18.9265C34.6621 17.6807 37.2359 17.7821 38.5293 20.8808C34.2817 22.9578 32.9193 21.0297 33.3853 18.9265Z" fill="#9ABD6D" stroke="#4A4A4A" stroke-width="2" stroke-linecap="round"/>
<path d="M26.0484 22.2282C27.3252 20.9824 29.899 21.0839 31.1923 24.1826C26.9448 26.2595 25.5824 24.3315 26.0484 22.2282Z" fill="#9ABD6D" stroke="#4A4A4A" stroke-width="2" stroke-linecap="round"/>
<path d="M15.0263 23.6613C14.5358 21.936 12.2566 20.7208 9.60646 22.7495C12.2593 26.6986 14.3912 25.7186 15.0263 23.6613Z" fill="#9ABD6D" stroke="#4A4A4A" stroke-width="2" stroke-linecap="round"/>
<path d="M11.7655 15.407C11.275 13.6816 8.9959 12.4664 6.34571 14.4952C8.99859 18.4443 11.1305 17.4643 11.7655 15.407Z" fill="#9ABD6D" stroke="#4A4A4A" stroke-width="2" stroke-linecap="round"/>
<path d="M11.9304 15.407C12.4209 13.6816 14.7 12.4664 17.3502 14.4952C14.6973 18.4443 12.5654 17.4643 11.9304 15.407Z" fill="#9ABD6D" stroke="#4A4A4A" stroke-width="2" stroke-linecap="round"/>
<path d="M19.1023 10.4544C18.6118 8.72911 16.3327 7.51391 13.6825 9.54265C16.3354 13.4918 18.4673 12.5118 19.1023 10.4544Z" fill="#9ABD6D" stroke="#4A4A4A" stroke-width="2" stroke-linecap="round"/>
</svg>
