<svg width="36" height="36" viewBox="0 0 36 36" fill="none" xmlns="http://www.w3.org/2000/svg">
<path d="M13.3897 10.8822C16.2477 6.15401 22.7739 5.36178 26.6748 9.27123C30.5757 13.1807 29.7852 19.7211 25.0673 22.5854L7.05033 33.5187C6.41351 33.9047 5.666 34.0656 4.92722 33.9757C4.18845 33.8858 3.50103 33.5504 2.97481 33.0231C2.44858 32.4957 2.1139 31.8068 2.02425 31.0664C1.93459 30.326 2.09512 29.5768 2.48021 28.9386L13.3897 10.8822Z" fill="#FFA07A"/>
<path d="M30.8573 5.07945L27.0233 8.92183L30.8573 5.07945Z" fill="#FFA07A"/>
<path d="M34 10.4533L29.837 10.8194L34 10.4533Z" fill="#FFA07A"/>
<path d="M25.5652 2L25.2013 6.17632L25.5652 2Z" fill="#FFA07A"/>
<path d="M14.8244 9.96977L19.0069 14.1615L14.8244 9.96977Z" fill="#FFA07A"/>
<path d="M16.2186 21.1476L20.4012 25.3393L16.2186 21.1476Z" fill="#FFA07A"/>
<path d="M6.45933 22.5448L9.24769 25.3393L6.45933 22.5448Z" fill="#FFA07A"/>
<path d="M30.8573 5.07945L27.0233 8.92183M34 10.4533L29.837 10.8194M25.5652 2L25.2013 6.17632M14.8244 9.96977L19.0069 14.1615M16.2186 21.1476L20.4012 25.3393M6.45933 22.5448L9.24769 25.3393M13.3897 10.8822C16.2477 6.15401 22.7739 5.36178 26.6748 9.27123C30.5757 13.1807 29.7852 19.7211 25.0673 22.5854L7.05033 33.5187C6.41351 33.9047 5.666 34.0656 4.92722 33.9757C4.18845 33.8858 3.50103 33.5504 2.97481 33.0231C2.44858 32.4957 2.1139 31.8068 2.02425 31.0664C1.93459 30.326 2.09512 29.5768 2.48021 28.9386L13.3897 10.8822Z" stroke="#4A4A4A" stroke-width="3" stroke-linecap="round"/>
</svg>
