<svg width="52" height="49" viewBox="0 0 52 49" fill="none" xmlns="http://www.w3.org/2000/svg">
<path d="M29.782 39.8867C32.957 26.6652 20.3532 17.1868 29.782 2.55542" stroke="#4A4A4A" stroke-width="3" stroke-linecap="round"/>
<path d="M29.1975 38.5362C26.8397 35.8052 14.7004 34.4426 13.113 7.99957" stroke="#4A4A4A" stroke-width="3" stroke-linecap="round"/>
<path d="M28.1942 24.3321C32.4276 22.2581 40.4181 16.3992 38.5131 9.55511" stroke="#4A4A4A" stroke-width="3" stroke-linecap="round"/>
<path d="M19.7902 30.9584C18.8349 27.7072 14.3966 25.4172 9.23559 29.2402C14.4018 36.6821 18.5535 34.8354 19.7902 30.9584Z" fill="#9ABD6D" stroke="#4A4A4A" stroke-width="3" stroke-linecap="round"/>
<path d="M27.2077 23.5296C26.2524 20.2783 21.8141 17.9883 16.6531 21.8114C21.8193 29.2533 25.971 27.4065 27.2077 23.5296Z" fill="#9ABD6D" stroke="#4A4A4A" stroke-width="3" stroke-linecap="round"/>
<path d="M38.56 16.387C39.5153 13.1357 43.9536 10.8457 49.1146 14.6688C43.9484 22.1107 39.7967 20.2639 38.56 16.387Z" fill="#9ABD6D" stroke="#4A4A4A" stroke-width="3" stroke-linecap="round"/>
<path d="M13.44 15.4037C12.4847 12.1524 8.04637 9.86243 2.88537 13.6855C8.0516 21.1274 12.2033 19.2806 13.44 15.4037Z" fill="#9ABD6D" stroke="#4A4A4A" stroke-width="3" stroke-linecap="round"/>
<path d="M27.7278 6.07087C26.7726 2.81959 22.3342 0.529606 17.1732 4.35265C22.3394 11.7946 26.4911 9.94779 27.7278 6.07087Z" fill="#9ABD6D" stroke="#4A4A4A" stroke-width="3" stroke-linecap="round"/>
<path d="M32.2524 46.8496C30.5845 47.6051 28.9725 47.7176 27.687 47.1055L27.4341 46.9736C24.3263 45.1971 23.3045 41.4635 24.9243 38.6855C25.1878 38.2338 25.6678 37.8729 26.4839 37.6562C27.3166 37.4352 28.3946 37.398 29.6216 37.5391C31.9265 37.8042 34.4307 38.6592 36.147 39.5723L36.48 39.7559C37.2603 40.2019 37.7401 40.497 38.0376 40.7119C37.9883 40.7899 37.9287 40.8816 37.856 40.9902C37.617 41.3472 37.2764 41.8336 36.8892 42.4521L36.4888 43.1143C35.6161 44.6108 34.0283 46.0453 32.2524 46.8496Z" fill="#D2A679" stroke="#4A4A4A" stroke-width="3"/>
</svg>
