<svg width="36" height="27" viewBox="0 0 36 27" fill="none" xmlns="http://www.w3.org/2000/svg">
<path d="M21.4282 9.50024H25.998" stroke="#4A4A4A" stroke-width="3" stroke-linecap="round" stroke-linejoin="round"/>
<path d="M10.0034 9.50024H14.5732" stroke="#4A4A4A" stroke-width="3" stroke-linecap="round" stroke-linejoin="round"/>
<path d="M12.2886 7.2052V11.7954" stroke="#4A4A4A" stroke-width="3" stroke-linecap="round" stroke-linejoin="round"/>
<path d="M24.2843 2L11.7174 2.04284C9.97198 2.04605 8.28324 2.66559 6.94662 3.79309C5.61 4.92059 4.71059 6.48425 4.40575 8.21053L2.06298 20.2736C1.91232 21.1161 2.03361 21.985 2.40915 22.7534C2.7847 23.5219 3.39484 24.1497 4.1506 24.5453C4.90636 24.941 5.76819 25.0837 6.61039 24.9527C7.45259 24.8217 8.23109 24.4239 8.83235 23.8172L15.0016 16.961L24.2843 16.9181C26.2538 16.9181 28.1426 16.1323 29.5352 14.7334C30.9278 13.3346 31.7102 11.4373 31.7102 9.45907C31.7102 7.4808 30.9278 5.58356 29.5352 4.18471C28.1426 2.78586 26.2538 2 24.2843 2Z" stroke="#4A4A4A" stroke-width="3" stroke-linecap="round" stroke-linejoin="round"/>
<path d="M31.5963 8.1676L33.9375 20.2735C34.0877 21.1157 33.9662 21.9841 33.5907 22.7522C33.2152 23.5202 32.6053 24.1477 31.8499 24.5432C31.0945 24.9387 30.2331 25.0816 29.3913 24.951C28.5494 24.8204 27.7711 24.4231 27.1697 23.8171L21.0005 16.9318" stroke="#4A4A4A" stroke-width="3" stroke-linecap="round" stroke-linejoin="round"/>
</svg>
