<svg width="48" height="48" viewBox="0 0 48 48" fill="none" xmlns="http://www.w3.org/2000/svg">
<path d="M39.0254 1.68066C39.7282 5.42708 40.5263 8.37203 41.6406 11.0938C42.7141 13.7159 44.0634 16.0843 45.8418 18.7314C40.0206 22.092 36.5022 24.7739 31.7529 29.8389C26.4855 25.3183 22.7167 22.7522 15.9189 19.6875L20.457 2.39453C27.4367 2.86371 31.9525 2.62772 39.0254 1.68066Z" fill="#9ABD6D" stroke="#4A4A4A" stroke-width="3"/>
<path d="M11.0628 37.39C7.06653 12.0315 12.8484 5.37074 30.1938 14.6959" stroke="#4A4A4A" stroke-width="3" stroke-linecap="round"/>
<path d="M11.5635 37.5105C14.5666 37.5105 17.211 38.1451 19.0498 39.0984C20.9636 40.0905 21.627 41.196 21.627 42.0056C21.6267 42.8152 20.9633 43.9209 19.0498 44.9128C17.211 45.866 14.5665 46.4998 11.5635 46.4998C8.56044 46.4997 5.91589 45.8661 4.07715 44.9128C2.16368 43.9209 1.50021 42.8152 1.5 42.0056C1.5 41.1961 2.16357 40.0905 4.07715 39.0984C5.91589 38.1452 8.5604 37.5105 11.5635 37.5105Z" fill="#F5E6C9" stroke="#4A4A4A" stroke-width="3"/>
</svg>
