<svg width="32" height="32" viewBox="0 0 32 32" fill="none" xmlns="http://www.w3.org/2000/svg">
<path d="M19.5352 3.76367C22.1485 1.81355 24.517 1.05651 26.6641 1.76074L26.8711 1.83398C28.4258 2.41638 29.3964 3.38333 29.9404 4.60156C30.5012 5.85745 30.659 7.49962 30.3301 9.45215C29.6902 13.2502 27.2613 17.8724 23.3252 22.0947L22.9395 22.502C19.3684 26.2165 15.1351 29.0297 11.2549 30.0664C7.50919 31.067 4.26263 30.4023 1.97266 27.4795C1.39954 26.054 1.39295 24.8469 1.71484 23.7354C2.06308 22.5329 2.82535 21.3403 3.92285 20.0674C5.0248 18.7893 6.36142 17.5428 7.7959 16.168C9.02589 14.9891 10.3136 13.7284 11.4502 12.3604L11.9268 11.7676C14.2559 8.77562 16.8582 5.76128 19.5352 3.76367Z" fill="#88B04B" stroke="#4A4A4A" stroke-width="3"/>
<path d="M22.7343 7.56367C23.4026 6.89532 24.3016 5.61853 24.7393 4.0758" stroke="#4A4A4A" stroke-width="3" stroke-linecap="round"/>
<path d="M12 19.3333C12.6666 18.6667 14 17.3334 14.9217 16.2947" stroke="#4A4A4A" stroke-width="3" stroke-linecap="round"/>
<path d="M20.3505 17.4575C21.6873 16.1208 22.3556 14.7841 23.024 13.4054" stroke="#4A4A4A" stroke-width="3" stroke-linecap="round"/>
<path d="M6.69373 28.5542C8.03044 28.1092 8.69879 27.4409 10.7039 25.4358" stroke="#4A4A4A" stroke-width="3" stroke-linecap="round"/>
</svg>
