<svg width="48" height="44" viewBox="0 0 48 44" fill="none" xmlns="http://www.w3.org/2000/svg">
<path d="M43.0491 12.5845C43.0512 12.5842 43.0524 12.5843 43.053 12.5845C43.0541 12.5848 43.0567 12.5862 43.0598 12.5884C43.0631 12.5907 43.0659 12.5936 43.0676 12.5962L43.0715 12.606C43.7464 16.1135 44.592 18.2647 46.2102 20.8071L46.5442 21.3218C46.5477 21.3271 46.5495 21.3304 46.55 21.3335C46.5507 21.3374 46.5503 21.3426 46.5491 21.3481C46.5478 21.3537 46.5456 21.3579 46.5442 21.3599L46.5374 21.3647C43.7979 22.9608 42.0057 24.302 39.8118 26.5581L39.3674 27.022C39.3644 27.0251 39.3617 27.0269 39.3596 27.0278C39.3571 27.0289 39.3537 27.0295 39.3499 27.0298C39.3456 27.03 39.3418 27.0294 39.3401 27.0288L39.3352 27.0259C36.6423 24.7283 34.6493 23.3829 31.1917 21.811L33.5178 12.9458C36.62 13.147 38.8228 13.0845 41.7229 12.7495L43.0491 12.5845Z" fill="#9ABD6D" stroke="#4A4A4A" stroke-width="2"/>
<path d="M23.8203 18.6365C26.2117 16.7766 33.1202 16.2452 38.5374 19.2721" stroke="#4A4A4A" stroke-width="2" stroke-linecap="round"/>
<path d="M4.95081 3.35413C4.94867 3.35384 4.94744 3.354 4.9469 3.35413C4.94576 3.35443 4.94319 3.35581 4.94006 3.35803C4.93682 3.36039 4.93395 3.36322 4.93225 3.36584L4.92834 3.37561C4.25346 6.88314 3.40784 9.03436 1.78967 11.5768L1.45569 12.0914C1.45222 12.0967 1.45036 12.1001 1.44983 12.1031C1.44915 12.1071 1.44956 12.1123 1.45081 12.1178C1.45207 12.1233 1.45428 12.1276 1.45569 12.1295L1.46252 12.1344C4.20197 13.7304 5.99413 15.0717 8.18811 17.3278L8.63245 17.7916C8.63545 17.7948 8.63818 17.7965 8.64026 17.7975C8.64278 17.7986 8.64616 17.7992 8.65002 17.7994C8.65425 17.7997 8.65805 17.799 8.65979 17.7985L8.66467 17.7955C11.3576 15.498 13.3506 14.1526 16.8082 12.5807L14.4821 3.71545C11.3799 3.91661 9.17703 3.85411 6.27698 3.51917L4.95081 3.35413Z" fill="#9ABD6D" stroke="#4A4A4A" stroke-width="2"/>
<path d="M24.1796 9.40626C21.7882 7.54629 14.8797 7.01487 9.4625 10.0418" stroke="#4A4A4A" stroke-width="2" stroke-linecap="round"/>
<path d="M25.2906 28.8993C26.7249 28.8993 27.9742 29.2165 28.8287 29.6796C29.7224 30.1639 29.9674 30.6677 29.9674 30.9764C29.9672 31.2852 29.722 31.7882 28.8287 32.2723C27.9742 32.7354 26.7249 33.0526 25.2906 33.0526C23.8563 33.0526 22.6071 32.7354 21.7526 32.2723C20.8591 31.7881 20.6131 31.2853 20.6129 30.9764C20.6129 30.6676 20.8587 30.164 21.7526 29.6796C22.6071 29.2165 23.8564 28.8993 25.2906 28.8993Z" fill="#F5E6C9" stroke="#4A4A4A" stroke-width="2"/>
<path d="M24.5331 28.4271C19.3244 18.7219 29.5424 5.14595 24.3284 1" stroke="#4A4A4A" stroke-width="2" stroke-linecap="round"/>
<path d="M37.6058 39.2398C33.9928 35.2598 33.4767 38.2448 28.8316 33.2698" stroke="#4A4A4A" stroke-width="2" stroke-linecap="round"/>
<path d="M39.1541 33.7673C34.5089 33.2698 35.025 34.2648 31.4121 35.2598" stroke="#4A4A4A" stroke-width="2" stroke-linecap="round"/>
<path d="M13.3477 38.9973C16.9607 35.0172 17.4768 38.0023 22.1219 33.0272" stroke="#4A4A4A" stroke-width="2" stroke-linecap="round"/>
<path d="M21.2052 42.4262C22.2696 37.2381 24.2649 39.5745 25.707 33.0272" stroke="#4A4A4A" stroke-width="2" stroke-linecap="round"/>
<path d="M33.0322 41.9823C31.9679 36.7942 26.7324 41.5645 25.2903 35.0173" stroke="#4A4A4A" stroke-width="2" stroke-linecap="round"/>
</svg>
