<svg width="44" height="48" viewBox="0 0 44 48" fill="none" xmlns="http://www.w3.org/2000/svg">
<path d="M20.2077 40.0287C13.8472 27.9195 26.8023 11.6729 20.4355 6.5" stroke="#4A4A4A" stroke-linecap="round"/>
<path d="M34.9041 24.0172C34.2918 19.7064 26.1255 19.3362 19.5952 24.0172" stroke="#4A4A4A" stroke-linecap="round"/>
<path d="M26.3312 27.0964C23.8818 24.6331 26.331 23.4014 24.4941 21.554" stroke="#4A4A4A" stroke-linecap="round"/>
<path d="M18.0446 16.5424C17.0695 15.5618 16.9464 14.5 17.1886 13.1433C17.3503 12.2374 17.9433 11.5 16.9465 11C15.9496 10.5 15.4512 11.5 15.9496 12" stroke="#4A4A4A" stroke-linecap="round"/>
<path d="M30.9023 8.53739C31.5949 7.33924 32.5857 6.94578 33.9548 6.83016C34.8689 6.75296 35.7322 7.13723 35.9564 6.04205C36.1805 4.94684 35.0887 4.72202 34.7359 5.33417" stroke="#4A4A4A" stroke-linecap="round"/>
<path d="M18.129 33.5484C16.932 34.2386 15.8779 34.0824 14.6346 33.4958C13.8044 33.1042 13.2483 32.3384 12.5083 33.1744C11.7684 34.0105 12.6018 34.7528 13.2125 34.3996" stroke="#4A4A4A" stroke-linecap="round"/>
<path d="M25.4197 23.5C26.6167 24.1903 27.1724 24.0824 28.4157 23.4958C29.2458 23.1042 29.8019 22.3384 30.5419 23.1744C31.2819 24.0105 30.4484 24.7528 29.8378 24.3996" stroke="#4A4A4A" stroke-linecap="round"/>
<path d="M9.29054 15C9.97862 16.2008 9.87107 16.7582 9.28635 18.0054C8.89591 18.8382 8.13253 19.3961 8.96593 20.1384C9.79937 20.8807 10.5393 20.0447 10.1873 19.4321" stroke="#4A4A4A" stroke-linecap="round"/>
<path d="M15.3088 21.6877C12.8594 19.0907 12.8594 16.1452 16.5336 16.1453" stroke="#4A4A4A" stroke-linecap="round"/>
<path d="M5.51104 18.2346C6.12339 13.9238 14.2897 13.5536 20.8199 18.2346" stroke="#4A4A4A" stroke-linecap="round"/>
<path d="M37.3535 12.0763C36.7412 7.76555 28.9593 7.31903 22.4291 12" stroke="#4A4A4A" stroke-linecap="round"/>
<path d="M34.4794 25.3933C34.3816 24.5653 34.5134 23.9673 34.899 23.5923L34.979 23.5201C35.3029 23.2534 35.6314 23.1668 35.9594 23.2009C36.301 23.2364 36.6854 23.4082 37.084 23.7374C37.8353 24.3581 38.5511 25.4682 39.0028 26.8671L39.089 27.1514C39.4691 28.466 39.5516 29.8049 39.2787 30.8209C39.0177 31.7922 38.4573 32.4165 37.5288 32.553C37.1512 32.4962 36.8947 32.3478 36.6984 32.1435C36.4803 31.9163 36.3116 31.595 36.1654 31.1761C36.0185 30.755 35.9103 30.2838 35.7829 29.7645C35.6897 29.3847 35.587 28.9836 35.4543 28.5914L35.3104 28.2039C34.9289 27.2644 34.5827 26.2676 34.4794 25.3933Z" fill="#9ABD6D" stroke="#4A4A4A"/>
<path d="M35.6917 25.1711C35.6261 24.9266 35.4504 24.5471 35.1512 24.239" stroke="#4A4A4A" stroke-linecap="round"/>
<path d="M36.984 29.2368C36.9187 28.9929 36.788 28.5051 36.6705 28.1523" stroke="#4A4A4A" stroke-linecap="round"/>
<path d="M37.6671 27.0488C37.536 26.5598 37.3155 26.2258 37.0852 25.8862" stroke="#4A4A4A" stroke-linecap="round"/>
<path d="M38.4121 31.7023C38.4879 31.3327 38.4224 31.0881 38.2258 30.3546" stroke="#4A4A4A" stroke-linecap="round"/>
<path d="M25.0525 28.5906C25.3819 27.8246 25.795 27.3726 26.3164 27.2407L26.4218 27.2182C26.8356 27.1492 27.1634 27.2384 27.4304 27.4319C27.7085 27.6335 27.9555 27.9745 28.1361 28.4589C28.4764 29.3721 28.5413 30.6913 28.233 32.1287L28.1655 32.418C27.8374 33.7465 27.2394 34.9473 26.495 35.6907C25.7833 36.4014 24.9859 36.6618 24.1135 36.3158C23.8149 36.0778 23.667 35.8211 23.5992 35.546C23.5238 35.2402 23.5384 34.8775 23.6213 34.4417C23.7046 34.0035 23.8465 33.5413 23.9958 33.0279C24.105 32.6524 24.2166 32.2536 24.2977 31.8477L24.3669 31.4402C24.5062 30.4358 24.7048 29.3994 25.0525 28.5906Z" fill="#9ABD6D" stroke="#4A4A4A"/>
<path d="M26.2135 29.0043C26.279 28.7598 26.3166 28.3432 26.2115 27.9268" stroke="#4A4A4A" stroke-linecap="round"/>
<path d="M25.2998 33.1715C25.3652 32.9276 25.4959 32.4398 25.5706 32.0755" stroke="#4A4A4A" stroke-linecap="round"/>
<path d="M26.9855 31.6182C27.1165 31.1292 27.0926 30.7296 27.063 30.3204" stroke="#4A4A4A" stroke-linecap="round"/>
<path d="M25.3038 36.0207C25.5543 35.7385 25.6198 35.494 25.8163 34.7604" stroke="#4A4A4A" stroke-linecap="round"/>
<path d="M16.2323 22.0937C15.5641 21.595 14.9803 21.4102 14.4628 21.5566L14.3602 21.5898C13.9674 21.737 13.7281 21.9781 13.5936 22.2792C13.4536 22.5929 13.4102 23.0116 13.496 23.5214C13.6578 24.4824 14.2613 25.6574 15.2469 26.748L15.4501 26.9648C16.3985 27.9513 17.5167 28.6922 18.5331 28.9638C19.5048 29.2234 20.3256 29.0502 20.9081 28.3144C21.0477 27.959 21.0474 27.6627 20.9686 27.3906C20.881 27.088 20.687 26.7813 20.3973 26.4453C20.1061 26.1074 19.7521 25.7781 19.3661 25.4081C19.0838 25.1376 18.7878 24.848 18.5145 24.537L18.2509 24.2187C17.628 23.4186 16.9379 22.6203 16.2323 22.0937Z" fill="#9ABD6D" stroke="#4A4A4A"/>
<path d="M15.4337 23.0325C15.2547 22.8535 15.014 22.5115 14.8967 22.0984" stroke="#4A4A4A" stroke-linecap="round"/>
<path d="M18.3086 26.1845C18.13 26.006 17.7729 25.6489 17.5261 25.3707" stroke="#4A4A4A" stroke-linecap="round"/>
<path d="M16.0721 25.6822C15.7141 25.3242 15.5351 24.9662 15.3561 24.597" stroke="#4A4A4A" stroke-linecap="round"/>
<path d="M19.7296 28.6541C19.3716 28.5349 19.1926 28.3559 18.6556 27.8189" stroke="#4A4A4A" stroke-linecap="round"/>
<path d="M6.58214 19.5906C6.25277 18.8246 5.83963 18.3726 5.31824 18.2407L5.21284 18.2182C4.79902 18.1492 4.47126 18.2384 4.20421 18.4319C3.92611 18.6335 3.67913 18.9745 3.49855 19.4589C3.15823 20.3721 3.09339 21.6913 3.40166 23.1287L3.46917 23.418C3.79725 24.7465 4.39524 25.9473 5.13962 26.6907C5.85134 27.4014 6.64875 27.6618 7.52114 27.3158C7.81977 27.0778 7.96767 26.8211 8.03549 26.546C8.11083 26.2402 8.09627 25.8775 8.01339 25.4417C7.93006 25.0035 7.78817 24.5413 7.63886 24.0279C7.52966 23.6524 7.41806 23.2536 7.33693 22.8477L7.26776 22.4402C7.12841 21.4358 6.92987 20.3994 6.58214 19.5906Z" fill="#9ABD6D" stroke="#4A4A4A"/>
<path d="M5.42114 20.0043C5.35563 19.7598 5.31809 19.3432 5.42314 18.9268" stroke="#4A4A4A" stroke-linecap="round"/>
<path d="M6.33481 24.1715C6.26947 23.9276 6.13876 23.4398 6.06406 23.0755" stroke="#4A4A4A" stroke-linecap="round"/>
<path d="M4.64914 22.6182C4.51811 22.1292 4.54209 21.7296 4.57169 21.3204" stroke="#4A4A4A" stroke-linecap="round"/>
<path d="M6.33081 27.0207C6.08037 26.7385 6.01485 26.494 5.8183 25.7604" stroke="#4A4A4A" stroke-linecap="round"/>
<path d="M36.3893 14.0975C36.5092 13.2724 36.7913 12.7288 37.2608 12.4664L37.3568 12.4174C37.7386 12.2437 38.0783 12.245 38.3863 12.3628C38.7071 12.4856 39.0339 12.751 39.3337 13.1721C39.8988 13.9661 40.3029 15.2237 40.3771 16.6918L40.3868 16.9887C40.4138 18.3569 40.1469 19.6715 39.6203 20.5823C39.1168 21.4529 38.414 21.9109 37.4817 21.8024C37.1317 21.6499 36.9224 21.4402 36.7857 21.192C36.6338 20.9161 36.554 20.5621 36.5212 20.1196C36.4883 19.6748 36.5057 19.1916 36.5171 18.6571C36.5254 18.2661 36.5299 17.852 36.5033 17.439L36.4646 17.0274C36.3392 16.0212 36.2628 14.9687 36.3893 14.0975Z" fill="#9ABD6D" stroke="#4A4A4A"/>
<path d="M37.6178 14.1966C37.6178 13.9435 37.5463 13.5314 37.337 13.1564" stroke="#4A4A4A" stroke-linecap="round"/>
<path d="M37.8139 18.4583C37.8139 18.2058 37.8139 17.7008 37.7917 17.3295" stroke="#4A4A4A" stroke-linecap="round"/>
<path d="M39.0401 16.5217C39.0401 16.0154 38.9135 15.6357 38.779 15.248" stroke="#4A4A4A" stroke-linecap="round"/>
<path d="M38.5552 21.2094C38.724 20.8719 38.724 20.6188 38.724 19.8594" stroke="#4A4A4A" stroke-linecap="round"/>
<path d="M12.6978 3.09033C12.4593 3.06247 12.2264 3.20066 12.1284 3.42822L12.0952 3.53076C11.8763 4.49553 11.606 5.22973 11.1987 5.9751L11.0151 6.29541C10.8679 6.54304 10.9182 6.84778 11.1089 7.02979L11.1987 7.1001C11.9392 7.56234 12.532 8.01091 13.1597 8.60498L13.4312 8.86963C13.6121 9.04965 13.8847 9.08362 14.0972 8.96924L14.1841 8.91162C15.164 8.11314 15.9998 7.58498 17.3062 6.98779L16.3081 3.18408C15.1303 3.25856 14.2422 3.24688 13.1841 3.14307L12.6978 3.09033Z" fill="#9ABD6D" stroke="#4A4A4A"/>
<path d="M20.4436 6.49956C18.7962 5.00192 16.5278 4.57312 14.1448 5.90463" stroke="#4A4A4A" stroke-linecap="round"/>
<path d="M27.092 1.8985C27.2845 1.75489 27.555 1.75798 27.7533 1.9061L27.8333 1.97833C28.5042 2.7047 29.1045 3.20554 29.829 3.64742L30.1478 3.83302C30.3988 3.97385 30.5074 4.2631 30.4331 4.51637L30.3905 4.62231C29.9803 5.39378 29.6911 6.0795 29.4443 6.9087L29.3414 7.27404C29.2747 7.52069 29.0557 7.68666 28.8147 7.69399L28.7108 7.6876C27.4642 7.48653 26.4772 7.44757 25.0486 7.58444L24.0141 3.78831C25.0706 3.26283 25.8334 2.80783 26.6974 2.18782L27.092 1.8985Z" fill="#9ABD6D" stroke="#4A4A4A"/>
<path d="M21.9234 7.98745C22.4255 6.75149 24.5171 5.10207 27.244 5.06219" stroke="#4A4A4A" stroke-linecap="round"/>
<path d="M30.4845 15.6364C30.7048 15.7317 30.8374 15.9681 30.8086 16.2144L30.7862 16.3199C30.4942 17.2656 30.3617 18.0372 30.3422 18.8871L30.3412 19.2567C30.3451 19.545 30.1495 19.7839 29.8936 19.8461L29.7808 19.862C28.9092 19.8917 28.1722 19.9834 27.3326 20.1838L26.9655 20.2771C26.7191 20.3425 26.4662 20.2354 26.3394 20.0298L26.2929 19.9363C25.8433 18.7535 25.3835 17.8771 24.5509 16.7053L27.313 13.909C28.2952 14.5636 29.0697 14.9984 30.0373 15.4385L30.4845 15.6364Z" fill="#9ABD6D" stroke="#4A4A4A"/>
<path d="M22.0792 14.7104C24.2524 14.2379 26.4297 15.0026 27.8276 17.3502" stroke="#4A4A4A" stroke-linecap="round"/>
<path d="M25.5745 45.5664C23.8095 43.5983 23.7016 44.4602 21.4323 42" stroke="#4A4A4A" stroke-linecap="round"/>
<path d="M26.3311 42.8602C24.0618 42.6142 24.422 42.6158 22.657 43.1078" stroke="#4A4A4A" stroke-linecap="round"/>
<path d="M13.9412 44.8284C14.6965 42.492 17.1459 43.7237 18.983 41.2604" stroke="#4A4A4A" stroke-linecap="round"/>
<path d="M17.7797 47.508C18.2996 44.9425 19.2324 45.7376 19.937 42.5" stroke="#4A4A4A" stroke-linecap="round"/>
<path d="M23.5576 47.2885C23.0377 44.723 20.48 47.0819 19.7755 43.8443" stroke="#4A4A4A" stroke-linecap="round"/>
<path d="M31.2298 45.1978C29.0368 43.7376 26.0705 45.1571 23.2693 43.3503" stroke="#4A4A4A" stroke-linecap="round"/>
<path d="M17.7582 46.187C14.6964 44.9554 14.6964 48.0345 12.8594 46.6984" stroke="#4A4A4A" stroke-linecap="round"/>
<path d="M17.1462 42.492C14.0845 41.2604 12.8598 41.8762 12.2474 43.0034" stroke="#4A4A4A" stroke-linecap="round"/>
<path d="M20.4354 40.5C21.0482 40.5 21.5785 40.651 21.9393 40.8682C22.3099 41.0912 22.4276 41.3296 22.4276 41.5C22.4276 41.6704 22.3099 41.9088 21.9393 42.1318C21.5785 42.349 21.0482 42.5 20.4354 42.5C19.8226 42.5 19.2914 42.349 18.9305 42.1318C18.5604 41.9089 18.4432 41.6703 18.4432 41.5C18.4432 41.3297 18.5604 41.0911 18.9305 40.8682C19.2914 40.651 19.8226 40.5 20.4354 40.5Z" fill="#F5E6C9" stroke="#4A4A4A"/>
</svg>
