<svg width="28" height="28" viewBox="0 0 28 28" fill="none" xmlns="http://www.w3.org/2000/svg">
<path d="M21.5884 6.41163L10.649 17.351M3.91707 24.0829C1.36098 21.5269 1.36098 17.3826 3.91707 14.8265L8.63877 10.1048C9.05188 9.69173 9.72165 9.69173 10.1348 10.1048L17.8952 17.8653C18.3083 18.2784 18.3083 18.9481 17.8952 19.3612L13.1735 24.0829C10.6174 26.639 6.47315 26.639 3.91707 24.0829ZM24.9543 3.04567C26.3486 4.4399 26.3486 6.70039 24.9543 8.09462L24.3622 8.68678C24.2245 8.82448 24.0012 8.82448 23.8635 8.68678L19.3132 4.13649C19.1755 3.99879 19.1755 3.77553 19.3132 3.63783L19.9054 3.04567C21.2996 1.65144 23.5601 1.65144 24.9543 3.04567Z" stroke="#4A4A4A" stroke-width="3" stroke-linecap="round"/>
</svg>
