<svg width="31" height="36" viewBox="0 0 31 36" fill="none" xmlns="http://www.w3.org/2000/svg">
<path d="M25.0929 15.8815L22.1062 25.404C22.0446 25.6003 21.9861 25.7921 21.9153 25.9839C21.4935 27.1164 19.6137 31.2993 14.3162 33.2473C8.1581 35.5124 2 32.4923 2 26.5094C2 20.528 8.1581 21.1668 11.2371 18.9017C14.3162 16.6366 17.3952 12.1064 17.3952 12.1064" fill="#B19CD9"/>
<path d="M25.0929 15.8815L22.1062 25.404C22.0446 25.6003 21.9861 25.7921 21.9153 25.9839C21.4935 27.1164 19.6137 31.2993 14.3162 33.2473C8.1581 35.5124 2 32.4923 2 26.5094C2 20.528 8.1581 21.1668 11.2371 18.9017C14.3162 16.6366 17.3952 12.1064 17.3952 12.1064" stroke="#4A4A4A" stroke-width="3" stroke-linecap="round" stroke-linejoin="round"/>
<path d="M28.3676 20.7787C28.3676 20.7787 29.2282 16.768 28.9418 14.3715C28.5538 11.1037 27.0174 8.70876 25.093 7.57621C23.1686 6.44366 19.1304 5.68863 15.8559 7.57621C12.5828 9.4638 11.2126 11.9886 11.2126 11.9886L17.5293 11.4088C17.7079 11.3924 17.8868 11.4378 18.0349 11.5371C18.183 11.6363 18.2912 11.7832 18.3406 11.9524L19.4953 15.9088C19.5512 16.1011 19.6826 16.2638 19.8607 16.3612C20.0388 16.4586 20.249 16.4827 20.4452 16.4282L24.5111 15.2896C24.6768 15.2431 24.8537 15.2524 25.0134 15.3162C25.173 15.38 25.3063 15.4946 25.3917 15.6415L28.3676 20.7787Z" fill="#9ABD6D" stroke="#4A4A4A" stroke-width="3" stroke-linecap="round" stroke-linejoin="round"/>
<path d="M24.6266 6.25281L26.8407 2.00001" stroke="#4A4A4A" stroke-width="3" stroke-linecap="round" stroke-linejoin="round"/>
</svg>
