<svg width="43" height="51" viewBox="0 0 43 51" fill="none" xmlns="http://www.w3.org/2000/svg">
<path d="M28.6162 27.1869C28.7147 31.4666 33.3206 35.7087 40.7759 32.7256C36.9607 21.9583 31.3611 22.8584 28.6162 27.1869Z" fill="#9ABD6D" stroke="#4A4A4A" stroke-width="2" stroke-linecap="round"/>
<path d="M21.5504 28.3385C23.6856 26.6779 29.8539 26.2034 34.6907 28.906" stroke="#4A4A4A" stroke-width="2" stroke-linecap="round"/>
<path d="M15.2153 18.8735C14.987 23.1482 10.2544 27.2486 2.89309 24.0407C7.03331 13.394 12.603 14.4637 15.2153 18.8735Z" fill="#9ABD6D" stroke="#4A4A4A" stroke-width="2" stroke-linecap="round"/>
<path d="M21.6843 20.1352C19.5491 18.4745 13.3808 18 8.54403 20.7027" stroke="#4A4A4A" stroke-width="2" stroke-linecap="round"/>
<path d="M25.9973 38.8842C25.9973 39.3459 25.8174 39.7004 25.5823 39.895C25.3995 40.0461 25.0985 40.1723 24.6194 40.0805L24.4026 40.0268C23.5844 39.7837 22.7072 39.7536 21.8743 39.936L21.5198 40.0268C20.9128 40.2071 20.5499 40.0676 20.3411 39.895C20.1058 39.7004 19.9261 39.3461 19.926 38.8842C19.926 37.9486 21.0256 36.7779 22.9612 36.7778C24.8969 36.7778 25.9973 37.9485 25.9973 38.8842Z" fill="#D2A679" stroke="#4A4A4A" stroke-width="2"/>
<path d="M22.0647 36.6666C17.3933 28.0398 26.5869 16.3519 21.9107 12.6666" stroke="#4A4A4A" stroke-width="2" stroke-linecap="round"/>
<path d="M33.8186 46.6576C30.5783 43.1198 29.3697 45.0889 25.2037 40.6666" stroke="#4A4A4A" stroke-width="2" stroke-linecap="round"/>
<path d="M35.2073 41.7931C31.0413 41.3509 31.5042 42.2354 28.2639 43.1198" stroke="#4A4A4A" stroke-width="2" stroke-linecap="round"/>
<path d="M12.0628 46.442C15.303 42.9042 16.105 45.0889 20.271 40.6666" stroke="#4A4A4A" stroke-width="2" stroke-linecap="round"/>
<path d="M19.1097 49.4899C20.0643 44.8783 21.6682 46.4864 22.9616 40.6666" stroke="#4A4A4A" stroke-width="2" stroke-linecap="round"/>
<path d="M29.7167 49.0954C28.7621 44.4837 24.0667 48.724 22.7733 42.9042" stroke="#4A4A4A" stroke-width="2" stroke-linecap="round"/>
<path d="M23.1359 9.25168C24.1999 11.2734 23.2327 14.4909 19.1166 15.1069C18.0397 9.0601 20.7841 7.97252 23.1359 9.25168Z" fill="#B19CD9" stroke="#4A4A4A" stroke-width="2" stroke-linecap="round"/>
<path d="M22.9287 8.60138C25.145 8.65438 27.3418 11.1339 25.797 15.1474C20.2209 13.0935 20.6871 10.079 22.9287 8.60138Z" fill="#B19CD9" stroke="#4A4A4A" stroke-width="2" stroke-linecap="round"/>
<path d="M22.7684 7.99291C23.9207 6.02419 27.0849 5.28621 29.6561 8.68369C25.157 12.6766 22.8787 10.7497 22.7684 7.99291Z" fill="#B19CD9" stroke="#4A4A4A" stroke-width="2" stroke-linecap="round"/>
<path d="M22.2578 7.99291C21.1055 6.02419 17.9414 5.28621 15.3702 8.68369C19.8693 12.6766 22.1476 10.7497 22.2578 7.99291Z" fill="#B19CD9" stroke="#4A4A4A" stroke-width="2" stroke-linecap="round"/>
<path d="M22.8489 9.15985C24.7427 7.96201 25.4526 4.67281 22.1843 2C18.3432 6.67692 20.1968 9.04524 22.8489 9.15985Z" fill="#B19CD9" stroke="#4A4A4A" stroke-width="2" stroke-linecap="round"/>
</svg>
