<svg width="40" height="49" viewBox="0 0 40 49" fill="none" xmlns="http://www.w3.org/2000/svg">
<path d="M19.1061 40.0213C12.7082 27.9057 25.9487 11.6792 19.5442 6.50348" stroke="#4A4A4A" stroke-linecap="round"/>
<path d="M34.0983 24.0301C33.4823 19.717 25.2678 19.3466 18.6991 24.0301" stroke="#4A4A4A" stroke-linecap="round"/>
<path d="M25.1416 27.0144C22.6778 24.5498 25.4747 23.4139 23.6269 21.5655" stroke="#4A4A4A" stroke-linecap="round"/>
<path d="M13.0709 22.0117C13.0709 19.5104 11.9236 16.1538 15.6194 16.1539" stroke="#4A4A4A" stroke-linecap="round"/>
<path d="M4.53185 18.2444C5.14781 13.9313 13.3623 13.5609 19.931 18.2444" stroke="#4A4A4A" stroke-linecap="round"/>
<path d="M36.562 12.0828C35.946 7.7697 28.1183 7.32294 21.5496 12.0064" stroke="#4A4A4A" stroke-linecap="round"/>
<path d="M35.8581 26.1891L37.0152 29.2699C37.039 29.3334 37.0628 29.3951 37.0833 29.4592C37.2037 29.8389 37.5647 31.3053 36.5867 32.8692C35.45 34.6874 33.2413 35.1259 32.028 33.5642C30.8149 32.0028 32.5406 30.9427 32.8793 29.738C33.218 28.5333 33.0973 26.7373 33.0973 26.7373" fill="#65508D"/>
<path d="M37.7 26.815C37.7 26.815 37.1097 25.5966 36.5494 25.0281C35.7862 24.2524 34.9022 23.9334 34.1737 24.0211C33.4453 24.1089 32.2455 24.7163 31.7795 25.8615C31.314 27.0063 31.4709 27.9383 31.4709 27.9383L32.9905 26.5285C33.0335 26.4886 33.0891 26.4649 33.1476 26.4613C33.2061 26.4577 33.2639 26.4745 33.3111 26.5088L34.4127 27.3115C34.4662 27.3505 34.5333 27.3668 34.5992 27.3568C34.6651 27.3467 34.7245 27.3111 34.7643 27.2578L35.5872 26.1505C35.6207 26.1054 35.6685 26.0726 35.7228 26.0574C35.7771 26.0423 35.8349 26.0456 35.8868 26.0669L37.7 26.815Z" fill="#9ABD6D"/>
<path d="M35.8581 26.1891L37.0152 29.2699C37.039 29.3334 37.0628 29.3951 37.0833 29.4592C37.2037 29.8389 37.5647 31.3053 36.5867 32.8692C35.45 34.6874 33.2413 35.1259 32.028 33.5642C30.8149 32.0028 32.5406 30.9427 32.8793 29.738C33.218 28.5333 33.0973 26.7373 33.0973 26.7373M37.7 26.815C37.7 26.815 37.1097 25.5966 36.5494 25.0281C35.7862 24.2524 34.9022 23.9334 34.1737 24.0211C33.4453 24.1089 32.2455 24.7163 31.7795 25.8615C31.314 27.0063 31.4709 27.9383 31.4709 27.9383L32.9905 26.5285C33.0335 26.4886 33.0891 26.4649 33.1476 26.4613C33.2061 26.4577 33.2639 26.4745 33.3111 26.5088L34.4127 27.3115C34.4662 27.3505 34.5333 27.3668 34.5992 27.3568C34.6651 27.3467 34.7245 27.3111 34.7643 27.2578L35.5872 26.1505C35.6207 26.1054 35.6685 26.0726 35.7228 26.0574C35.7771 26.0423 35.8349 26.0456 35.8868 26.0669L37.7 26.815Z" stroke="#4A4A4A" stroke-linecap="round" stroke-linejoin="round"/>
<path d="M27.2001 29.3874L27.9319 32.5945C27.947 32.6606 27.9622 32.725 27.9739 32.7913C28.0421 33.1836 28.2025 34.6848 27.0227 36.1044C25.6514 37.7548 23.4036 37.8951 22.4115 36.1858C21.4195 34.477 23.2724 33.6562 23.7703 32.5075C24.2681 31.3587 24.3903 29.5629 24.3903 29.5629" fill="#65508D"/>
<path d="M28.9411 30.253C28.9411 30.253 28.5201 28.967 28.0415 28.329C27.3895 27.4586 26.5565 27.0246 25.8227 27.0146C25.089 27.0045 23.8182 27.4467 23.2023 28.5194C22.5868 29.5919 22.6168 30.5365 22.6168 30.5365L24.3126 29.3417C24.3606 29.308 24.4188 29.2918 24.4773 29.296C24.5358 29.3003 24.5908 29.3246 24.6329 29.3649L25.6166 30.3071C25.6643 30.3529 25.7286 30.378 25.7953 30.3768C25.8619 30.3756 25.9256 30.3483 25.9722 30.3008L26.9368 29.3131C26.9761 29.2728 27.0278 29.2466 27.0837 29.2389C27.1396 29.2311 27.1964 29.2421 27.245 29.2701L28.9411 30.253Z" fill="#9ABD6D"/>
<path d="M27.2001 29.3874L27.9319 32.5945C27.947 32.6606 27.9622 32.725 27.9739 32.7913C28.0421 33.1836 28.2025 34.6848 27.0227 36.1044C25.6514 37.7548 23.4036 37.8951 22.4115 36.1858C21.4195 34.477 23.2724 33.6562 23.7703 32.5075C24.2681 31.3587 24.3903 29.5629 24.3903 29.5629M28.9411 30.253C28.9411 30.253 28.5201 28.967 28.0415 28.329C27.3895 27.4586 26.5565 27.0246 25.8227 27.0146C25.089 27.0045 23.8182 27.4467 23.2023 28.5194C22.5868 29.5919 22.6168 30.5365 22.6168 30.5365L24.3126 29.3417C24.3606 29.308 24.4188 29.2918 24.4773 29.296C24.5358 29.3003 24.5908 29.3246 24.6329 29.3649L25.6166 30.3071C25.6643 30.3529 25.7286 30.378 25.7953 30.3768C25.8619 30.3756 25.9256 30.3483 25.9722 30.3008L26.9368 29.3131C26.9761 29.2728 27.0278 29.2466 27.0837 29.2389C27.1396 29.2311 27.1964 29.2421 27.245 29.2701L28.9411 30.253Z" stroke="#4A4A4A" stroke-linecap="round" stroke-linejoin="round"/>
<path d="M11.7942 24.3847L11.0623 27.5918C11.0472 27.6579 11.032 27.7223 11.0203 27.7886C10.9522 28.1809 10.7918 29.6822 11.9715 31.1017C13.3429 32.7521 15.5907 32.8925 16.5828 31.1832C17.5747 29.4743 15.7218 28.6536 15.224 27.5048C14.7261 26.3561 14.6039 24.5602 14.6039 24.5602" fill="#65508D"/>
<path d="M10.0532 25.2504C10.0532 25.2504 10.4741 23.9643 10.9528 23.3263C11.6048 22.4559 12.4378 22.0219 13.1715 22.0119C13.9052 22.0018 15.176 22.444 15.7919 23.5167C16.4074 24.5892 16.3774 25.5338 16.3774 25.5338L14.6816 24.3391C14.6337 24.3053 14.5754 24.2891 14.5169 24.2933C14.4585 24.2976 14.4034 24.3219 14.3613 24.3622L13.3777 25.3044C13.3299 25.3503 13.2657 25.3753 13.199 25.3741C13.1323 25.373 13.0687 25.3456 13.0221 25.2981L12.0575 24.3104C12.0182 24.2701 11.9664 24.244 11.9106 24.2362C11.8547 24.2284 11.7979 24.2394 11.7493 24.2675L10.0532 25.2504Z" fill="#9ABD6D"/>
<path d="M11.7942 24.3847L11.0623 27.5918C11.0472 27.6579 11.032 27.7223 11.0203 27.7886C10.9522 28.1809 10.7918 29.6822 11.9715 31.1017C13.3429 32.7521 15.5907 32.8925 16.5828 31.1832C17.5747 29.4743 15.7218 28.6536 15.224 27.5048C14.7261 26.3561 14.6039 24.5602 14.6039 24.5602M10.0532 25.2504C10.0532 25.2504 10.4741 23.9643 10.9528 23.3263C11.6048 22.4559 12.4378 22.0219 13.1715 22.0119C13.9052 22.0018 15.176 22.444 15.7919 23.5167C16.4074 24.5892 16.3774 25.5338 16.3774 25.5338L14.6816 24.3391C14.6337 24.3053 14.5754 24.2891 14.5169 24.2933C14.4585 24.2976 14.4034 24.3219 14.3613 24.3622L13.3777 25.3044C13.3299 25.3503 13.2657 25.3753 13.199 25.3741C13.1323 25.373 13.0687 25.3456 13.0221 25.2981L12.0575 24.3104C12.0182 24.2701 11.9664 24.244 11.9106 24.2362C11.8547 24.2284 11.7979 24.2394 11.7493 24.2675L10.0532 25.2504Z" stroke="#4A4A4A" stroke-linecap="round" stroke-linejoin="round"/>
<path d="M2.74096 20.3826L2.0091 23.5897C1.99402 23.6558 1.97881 23.7201 1.9671 23.7865C1.89895 24.1787 1.73855 25.68 2.91832 27.0996C4.28965 28.7499 6.53744 28.8903 7.52959 27.181C8.52149 25.4722 6.66862 24.6514 6.17077 23.5027C5.67292 22.3539 5.5507 20.558 5.5507 20.558" fill="#65508D"/>
<path d="M0.999948 21.2482C0.999948 21.2482 1.42092 19.9622 1.89957 19.3241C2.55153 18.4537 3.38456 18.0198 4.11829 18.0098C4.85203 17.9997 6.1228 18.4418 6.73872 19.5146C7.3542 20.5871 7.3242 21.5316 7.3242 21.5316L5.62842 20.3369C5.58046 20.3032 5.5222 20.287 5.46371 20.2912C5.40523 20.2954 5.35019 20.3198 5.30811 20.3601L4.32447 21.3023C4.27671 21.3481 4.21245 21.3732 4.14578 21.372C4.07911 21.3708 4.01548 21.3435 3.96885 21.2959L3.00424 20.3083C2.96494 20.268 2.91321 20.2418 2.85733 20.234C2.80146 20.2262 2.74467 20.2373 2.69608 20.2653L0.999948 21.2482Z" fill="#9ABD6D"/>
<path d="M2.74096 20.3826L2.0091 23.5897C1.99402 23.6558 1.97881 23.7201 1.9671 23.7865C1.89895 24.1787 1.73855 25.68 2.91832 27.0996C4.28965 28.7499 6.53744 28.8903 7.52959 27.181C8.52149 25.4722 6.66862 24.6514 6.17077 23.5027C5.67292 22.3539 5.5507 20.558 5.5507 20.558M0.999948 21.2482C0.999948 21.2482 1.42092 19.9622 1.89957 19.3241C2.55153 18.4537 3.38456 18.0198 4.11829 18.0098C4.85203 17.9997 6.1228 18.4418 6.73872 19.5146C7.3542 20.5871 7.3242 21.5316 7.3242 21.5316L5.62842 20.3369C5.58046 20.3032 5.5222 20.287 5.46371 20.2912C5.40523 20.2954 5.35019 20.3198 5.30811 20.3601L4.32447 21.3023C4.27671 21.3481 4.21245 21.3732 4.14578 21.372C4.07911 21.3708 4.01548 21.3435 3.96885 21.2959L3.00424 20.3083C2.96494 20.268 2.91321 20.2418 2.85733 20.234C2.80146 20.2262 2.74467 20.2373 2.69608 20.2653L0.999948 21.2482Z" stroke="#4A4A4A" stroke-linecap="round" stroke-linejoin="round"/>
<path d="M37.259 13.3788L37.9909 16.586C38.006 16.6521 38.0212 16.7164 38.0329 16.7827C38.1011 17.175 38.2615 18.6763 37.0817 20.0959C35.7104 21.7462 33.4626 21.8866 32.4704 20.1773C31.4785 18.4684 33.3314 17.6477 33.8292 16.4989C34.3271 15.3502 34.4493 13.5543 34.4493 13.5543" fill="#65508D"/>
<path d="M39.0001 14.2445C39.0001 14.2445 38.5791 12.9584 38.1004 12.3204C37.4485 11.45 36.6154 11.0161 35.8817 11.006C35.148 10.996 33.8772 11.4381 33.2613 12.5109C32.6458 13.5834 32.6758 14.5279 32.6758 14.5279L34.3716 13.3332C34.4195 13.2994 34.4778 13.2833 34.5363 13.2875C34.5948 13.2917 34.6498 13.3161 34.6919 13.3563L35.6755 14.2986C35.7233 14.3444 35.7876 14.3695 35.8542 14.3683C35.9209 14.3671 35.9845 14.3397 36.0311 14.2922L36.9958 13.3045C37.0351 13.2642 37.0868 13.2381 37.1427 13.2303C37.1985 13.2225 37.2553 13.2335 37.3039 13.2616L39.0001 14.2445Z" fill="#9ABD6D"/>
<path d="M37.259 13.3788L37.9909 16.586C38.006 16.6521 38.0212 16.7164 38.0329 16.7827C38.1011 17.175 38.2615 18.6763 37.0817 20.0959C35.7104 21.7462 33.4626 21.8866 32.4704 20.1773C31.4785 18.4684 33.3314 17.6477 33.8292 16.4989C34.3271 15.3502 34.4493 13.5543 34.4493 13.5543M39.0001 14.2445C39.0001 14.2445 38.5791 12.9584 38.1004 12.3204C37.4485 11.45 36.6154 11.0161 35.8817 11.006C35.148 10.996 33.8772 11.4381 33.2613 12.5109C32.6458 13.5834 32.6758 14.5279 32.6758 14.5279L34.3716 13.3332C34.4195 13.2994 34.4778 13.2833 34.5363 13.2875C34.5948 13.2917 34.6498 13.3161 34.6919 13.3563L35.6755 14.2986C35.7233 14.3444 35.7876 14.3695 35.8542 14.3683C35.9209 14.3671 35.9845 14.3397 36.0311 14.2922L36.9958 13.3045C37.0351 13.2642 37.0868 13.2381 37.1427 13.2303C37.1985 13.2225 37.2553 13.2335 37.3039 13.2616L39.0001 14.2445Z" stroke="#4A4A4A" stroke-linecap="round" stroke-linejoin="round"/>
<path d="M16.5416 5.12657C16.0445 7.26183 13.2916 8.90678 9.86603 6.63134C12.9051 1.63231 15.6183 2.66938 16.5416 5.12657Z" fill="#9ABD6D" stroke="#4A4A4A" stroke-linecap="round"/>
<path d="M19.5387 6.50543C17.886 5.00299 15.6103 4.57281 13.2197 5.90859" stroke="#4A4A4A" stroke-linecap="round"/>
<path d="M23.1467 5.66884C24.1455 7.61805 27.215 8.54165 29.9891 5.49981C25.8306 1.39376 23.4484 3.06106 23.1467 5.66884Z" fill="#9ABD6D" stroke="#4A4A4A" stroke-linecap="round"/>
<path d="M21.0533 8.01301C21.557 6.77308 23.6553 5.11837 26.391 5.07836" stroke="#4A4A4A" stroke-linecap="round"/>
<path d="M24.8552 15.2416C23.6475 17.0737 24.3451 20.2054 28.3493 21.1237C29.8886 15.4731 27.2723 14.2185 24.8552 15.2416Z" fill="#9ABD6D" stroke="#4A4A4A" stroke-linecap="round"/>
<path d="M21.2097 14.711C23.39 14.237 25.5742 15.0042 26.9766 17.3593" stroke="#4A4A4A" stroke-linecap="round"/>
<path d="M24.7136 45.5908C22.9381 43.6216 20.6149 43.0229 19.1061 40.0213" stroke="#4A4A4A" stroke-linecap="round"/>
<path d="M25.4745 42.8831C23.1919 42.637 23.5542 42.6386 21.7788 43.1309" stroke="#4A4A4A" stroke-linecap="round"/>
<path d="M13.0116 44.8523C13.7714 42.5147 17.2582 42.9862 19.1061 40.5216" stroke="#4A4A4A" stroke-linecap="round"/>
<path d="M16.8729 47.5334C17.3959 44.9665 20.1121 43.5232 19.1062 40.0213" stroke="#4A4A4A" stroke-linecap="round"/>
<path d="M22.6849 47.3138C22.1619 44.7469 19.5891 47.1071 18.8804 43.8677" stroke="#4A4A4A" stroke-linecap="round"/>
<path d="M30.4023 45.2219C28.1963 43.7609 25.2125 45.1812 22.3948 43.3734" stroke="#4A4A4A" stroke-linecap="round"/>
<path d="M16.8511 46.2117C13.7713 44.9794 13.7713 48.0602 11.9235 46.7233" stroke="#4A4A4A" stroke-linecap="round"/>
<path d="M16.2357 42.5147C13.1559 41.2824 11.9239 41.8986 11.308 43.0264" stroke="#4A4A4A" stroke-linecap="round"/>
</svg>
