<svg width="48" height="48" viewBox="0 0 48 48" fill="none" xmlns="http://www.w3.org/2000/svg">
<path d="M14.5441 11.0542C14.7307 20.9379 25.4885 30.6894 43.0031 23.7239C34.1672 -1.10691 21.0259 1.02891 14.5441 11.0542Z" fill="#9ABD6D" stroke="#4A4A4A" stroke-width="3" stroke-linecap="round"/>
<path d="M7.68811 39.8827C3.33802 12.8337 9.63183 5.72882 28.5131 15.6756" stroke="#4A4A4A" stroke-width="3" stroke-linecap="round"/>
<path d="M13.7396 43.5462C13.7395 44.7357 13.2587 45.6568 12.6146 46.1146C12.0741 46.4987 11.1576 46.7384 9.74353 46.1273L9.45447 45.9935C8.3733 45.4622 7.10837 45.4291 6.00427 45.8939L5.78552 45.9935C4.20611 46.7696 3.20195 46.5243 2.62537 46.1146C1.98126 45.6568 1.50044 44.7358 1.50037 43.5462C1.50037 41.2153 3.93901 38.8335 7.61951 38.8333C11.3002 38.8333 13.7396 41.2153 13.7396 43.5462Z" fill="#D2A679" stroke="#4A4A4A" stroke-width="3"/>
</svg>
