<svg width="36" height="36" viewBox="0 0 36 36" fill="none" xmlns="http://www.w3.org/2000/svg">
<path d="M17.9999 2C13.7564 2 9.68681 3.68571 6.68625 6.68629C3.6857 9.68687 2 13.7565 2 18C2 22.2435 3.6857 26.3131 6.68625 29.3137C9.68681 32.3143 13.7564 34 17.9999 34C22.2433 34 26.3129 32.3143 29.3135 29.3137C32.314 26.3131 33.9997 22.2435 33.9997 18C33.9997 13.7565 32.314 9.68687 29.3135 6.68629C26.3129 3.68571 22.2433 2 17.9999 2Z" stroke="#4A4A4A" stroke-width="3" stroke-linecap="round" stroke-linejoin="round"/>
<path d="M3.6001 18H33.9999" stroke="#4A4A4A" stroke-width="3" stroke-linecap="round" stroke-linejoin="round"/>
<path d="M18 2.32312C21.9584 6.36312 24.3999 11.8959 24.3999 17.9999C24.3999 24.1039 21.9584 29.6367 18 33.6767" stroke="#4A4A4A" stroke-width="3" stroke-linecap="round" stroke-linejoin="round"/>
<path d="M18.0001 2.32312C13.8912 6.50573 11.5924 12.1367 11.6001 17.9999C11.6001 24.1039 14.0417 29.6367 18.0001 33.6767" stroke="#4A4A4A" stroke-width="3" stroke-linecap="round" stroke-linejoin="round"/>
</svg>
