<svg width="36" height="36" viewBox="0 0 36 36" fill="none" xmlns="http://www.w3.org/2000/svg">
<path d="M18 2V5.69231" stroke="#4A4A4A" stroke-width="3" stroke-linecap="round"/>
<path d="M18 30.3077V34" stroke="#4A4A4A" stroke-width="3" stroke-linecap="round"/>
<path d="M29.313 6.69324L26.7021 9.30247" stroke="#4A4A4A" stroke-width="3" stroke-linecap="round"/>
<path d="M9.29624 26.7056L6.68701 29.3148" stroke="#4A4A4A" stroke-width="3" stroke-linecap="round"/>
<path d="M33.9999 18H30.3076" stroke="#4A4A4A" stroke-width="3" stroke-linecap="round"/>
<path d="M5.69231 18H2" stroke="#4A4A4A" stroke-width="3" stroke-linecap="round"/>
<path d="M29.313 29.3164L26.7021 26.7056" stroke="#4A4A4A" stroke-width="3" stroke-linecap="round"/>
<path d="M9.29624 9.30247L6.68701 6.69324" stroke="#4A4A4A" stroke-width="3" stroke-linecap="round"/>
<path d="M18 24.1539C19.6321 24.1539 21.1974 23.5055 22.3515 22.3515C23.5055 21.1974 24.1539 19.6321 24.1539 18C24.1539 16.3679 23.5055 14.8027 22.3515 13.6486C21.1974 12.4945 19.6321 11.8462 18 11.8462C16.3679 11.8462 14.8027 12.4945 13.6486 13.6486C12.4945 14.8027 11.8462 16.3679 11.8462 18C11.8462 19.6321 12.4945 21.1974 13.6486 22.3515C14.8027 23.5055 16.3679 24.1539 18 24.1539Z" stroke="#4A4A4A" stroke-width="3" stroke-linecap="round"/>
</svg>
