<svg width="116" height="26" viewBox="0 0 116 26" fill="none" xmlns="http://www.w3.org/2000/svg">
<mask id="path-1-outside-1_195_1442" maskUnits="userSpaceOnUse" x="-1" y="0" width="117" height="26" fill="black">
<rect fill="white" x="-1" width="117" height="26"/>
<path d="M10.8827 22.7685C10.3725 22.7685 9.93956 22.6759 9.58395 22.4906C9.22835 22.29 8.96551 21.9967 8.79544 21.6108L3.29901 9.54833C3.00525 8.86919 2.92794 8.33668 3.06709 7.9508C3.2217 7.54949 3.65461 7.17905 4.36582 6.83947C4.86058 6.56164 5.27803 6.42273 5.61818 6.42273C5.97378 6.40729 6.27527 6.51534 6.52265 6.74686C6.77003 6.97839 6.98648 7.3334 7.17202 7.81188L10.8363 16.8183L14.5006 7.81188C14.7016 7.3334 14.9258 6.97839 15.1731 6.74686C15.4205 6.51534 15.722 6.40729 16.0776 6.42273C16.4332 6.43816 16.8429 6.57708 17.3068 6.83947C18.0798 7.20992 18.5282 7.58807 18.6519 7.97395C18.7756 8.34439 18.6828 8.86919 18.3736 9.54833L12.8772 21.6108C12.7226 21.9504 12.4597 22.2282 12.0887 22.4443C11.733 22.6604 11.3311 22.7685 10.8827 22.7685Z"/>
<path d="M31.2682 22.7916C30.5724 22.7916 30.0777 22.6913 29.7839 22.4906C29.4901 22.2745 29.3123 22.0044 29.2505 21.6803C29.2041 21.3407 29.1809 21.0012 29.1809 20.6616V13.1138C29.1809 12.7588 29.2118 12.427 29.2737 12.1183C29.3355 11.7941 29.5133 11.5317 29.8071 11.3311C30.1009 11.1304 30.5956 11.0301 31.2914 11.0301C31.9717 11.0301 32.4509 11.1227 32.7292 11.3079C33.023 11.4931 33.2008 11.7015 33.2627 11.933C33.3245 12.1491 33.3554 12.3189 33.3554 12.4424L32.9844 12.3035C32.9844 12.3035 33.0462 12.234 33.1699 12.0951C33.2936 11.9562 33.4714 11.7941 33.7033 11.6089C33.9507 11.4237 34.2367 11.2616 34.5614 11.1227C34.9015 10.9838 35.2803 10.9143 35.6978 10.9143C35.8369 10.9143 36.007 10.9298 36.208 10.9606C36.4245 10.9761 36.6486 11.0147 36.8806 11.0764C37.1279 11.1381 37.3521 11.2308 37.5531 11.3542C37.7696 11.4777 37.9396 11.6398 38.0633 11.8404C38.2025 12.0411 38.2721 12.2881 38.2721 12.5813C38.2721 13.3531 38.102 14.0091 37.7618 14.5493C37.4372 15.0895 37.0042 15.3596 36.4631 15.3596C36.1693 15.3596 35.9606 15.3442 35.8369 15.3133C35.7132 15.267 35.6205 15.2284 35.5586 15.1976C35.5122 15.1513 35.4504 15.1127 35.3731 15.0818C35.3113 15.0355 35.1876 15.0123 35.002 15.0123C34.7701 15.0123 34.5537 15.0432 34.3527 15.105C34.1671 15.1513 33.9971 15.2284 33.8424 15.3365C33.7033 15.4445 33.5951 15.5757 33.5178 15.7301C33.4405 15.869 33.4018 16.0233 33.4018 16.1931V20.7079C33.4018 21.0475 33.3709 21.3793 33.309 21.7035C33.2472 22.0276 33.0694 22.29 32.7756 22.4906C32.4819 22.6913 31.9794 22.7916 31.2682 22.7916Z"/>
<path d="M45.4995 22.7916C44.6801 22.7916 43.9689 22.699 43.3659 22.5138C42.7629 22.3286 42.2604 22.043 41.8584 21.6571C41.4719 21.2713 41.1781 20.7851 40.9772 20.1985C40.7916 19.612 40.6989 18.9251 40.6989 18.138V9.15473C40.6989 8.79973 40.7298 8.47559 40.7916 8.18233C40.8535 7.87362 41.0313 7.62666 41.325 7.44144C41.6188 7.24079 42.1135 7.14046 42.8093 7.14046C43.4896 7.14046 43.9766 7.2485 44.2704 7.46459C44.5641 7.66525 44.7419 7.92765 44.8038 8.25178C44.8656 8.57592 44.8965 8.90777 44.8965 9.24735V17.9296C44.8965 18.0994 44.9043 18.246 44.9197 18.3695C44.9507 18.4775 44.9893 18.5624 45.0357 18.6242C45.0821 18.6859 45.1439 18.7322 45.2212 18.7631C45.2985 18.7939 45.399 18.8094 45.5227 18.8094C45.9247 18.8094 46.2803 18.8402 46.5895 18.902C46.9142 18.9637 47.1616 19.1258 47.3317 19.3882C47.5172 19.6506 47.61 20.0905 47.61 20.7079C47.61 21.4025 47.5017 21.8964 47.2853 22.1897C47.0688 22.4829 46.7983 22.6527 46.4736 22.699C46.1489 22.7608 45.8242 22.7916 45.4995 22.7916ZM40.2118 11.169H42.9253L46.1257 11.0532C46.4658 11.0532 46.7905 11.0841 47.0998 11.1459C47.4244 11.2076 47.6873 11.3851 47.8883 11.6784C48.1047 11.9716 48.213 12.4733 48.213 13.1833C48.213 13.8316 48.1047 14.3023 47.8883 14.5956C47.6873 14.8889 47.4244 15.0741 47.0998 15.1513C46.7905 15.2284 46.4581 15.267 46.1025 15.267L43.1572 15.1976H40.1191C39.5934 15.1667 39.23 14.9969 39.0291 14.6882C38.8281 14.3795 38.7276 13.8702 38.7276 13.1601C38.7276 12.4964 38.8512 12.0025 39.0986 11.6784C39.346 11.3388 39.7171 11.169 40.2118 11.169Z"/>
<path d="M54.3984 22.7453C53.6563 22.7453 52.9605 22.5987 52.3112 22.3054C51.6773 22.0122 51.1207 21.6031 50.6414 21.0783C50.1621 20.5381 49.791 19.913 49.5282 19.203C49.2653 18.493 49.1339 17.7212 49.1339 16.8877V13.1138C49.1339 12.7588 49.1648 12.427 49.2267 12.1183C49.2885 11.7941 49.4663 11.5317 49.7601 11.3311C50.0539 11.115 50.5486 11.0069 51.2444 11.0069C51.9556 11.0069 52.4503 11.115 52.7286 11.3311C53.0224 11.5317 53.2002 11.7941 53.262 12.1183C53.3239 12.4424 53.3548 12.782 53.3548 13.137V16.8877C53.3548 17.2427 53.4166 17.5437 53.5403 17.7907C53.6795 18.0376 53.8728 18.2306 54.1201 18.3695C54.383 18.493 54.6845 18.5547 55.0246 18.5547C55.3648 18.5547 55.6585 18.4852 55.9059 18.3463C56.1533 18.2074 56.3465 18.0145 56.4857 17.7675C56.6248 17.5205 56.6944 17.2273 56.6944 16.8877V13.0907C56.6944 12.7357 56.7253 12.4038 56.7872 12.0951C56.849 11.771 57.0268 11.5086 57.3206 11.3079C57.6143 11.1073 58.1091 11.0069 58.8048 11.0069C59.5161 11.0069 60.0108 11.115 60.2891 11.3311C60.5829 11.5317 60.7607 11.7941 60.8225 12.1183C60.8844 12.4424 60.9153 12.7743 60.9153 13.1138V20.731C60.9153 21.0706 60.8844 21.3948 60.8225 21.7035C60.7607 22.0122 60.5829 22.2668 60.2891 22.4675C59.9954 22.6681 59.5006 22.7685 58.8048 22.7685C58.2946 22.7685 57.8926 22.7067 57.5989 22.5833C57.3206 22.4752 57.1196 22.3363 56.9959 22.1665C56.8722 21.9813 56.7949 21.8038 56.764 21.634C56.7485 21.4488 56.7408 21.2944 56.7408 21.1709L57.135 21.2867C57.135 21.2867 57.0732 21.3639 56.9495 21.5182C56.8258 21.6571 56.6403 21.8269 56.3929 22.0276C56.161 22.2128 55.875 22.3826 55.5348 22.5369C55.2101 22.6759 54.8313 22.7453 54.3984 22.7453Z"/>
<path d="M65.7939 22.8148C65.1136 22.8148 64.6266 22.7144 64.3328 22.5138C64.039 22.2977 63.8612 22.0276 63.7994 21.7035C63.7376 21.3639 63.7066 21.0243 63.7066 20.6847V10.2429C63.7066 9.74899 63.7994 9.23963 63.9849 8.71484C64.1705 8.17461 64.4565 7.68069 64.843 7.23307C65.245 6.77002 65.7475 6.39957 66.3505 6.12174C66.9689 5.82848 67.7033 5.68184 68.5537 5.68184C68.8938 5.68184 69.2262 5.71271 69.5509 5.77445C69.8756 5.83619 70.1385 6.0137 70.3395 6.30696C70.5559 6.58479 70.6641 7.07872 70.6641 7.78873C70.6641 8.48331 70.5559 8.97723 70.3395 9.2705C70.123 9.56376 69.8524 9.74127 69.5277 9.80301C69.2031 9.84931 68.8706 9.87247 68.5305 9.87247C68.4223 9.87247 68.3295 9.88018 68.2522 9.89562C68.1749 9.91105 68.113 9.93421 68.0667 9.96508C68.0203 9.98051 67.9816 10.0114 67.9507 10.0577C67.9352 10.104 67.9275 10.1503 67.9275 10.1966V20.731C67.9275 21.0706 67.8966 21.4025 67.8347 21.7266C67.7729 22.0353 67.5874 22.2977 67.2781 22.5138C66.9844 22.7144 66.4896 22.8148 65.7939 22.8148ZM63.2196 11.169H65.933L69.1335 11.0532C69.4736 11.0532 69.7983 11.0841 70.1075 11.1459C70.4322 11.2076 70.6951 11.3851 70.896 11.6784C71.1125 11.9716 71.2207 12.4733 71.2207 13.1833C71.2207 13.8316 71.1125 14.3023 70.896 14.5956C70.6951 14.8889 70.4322 15.0741 70.1075 15.1513C69.7983 15.2284 69.4659 15.267 69.1103 15.267L66.1649 15.1976H63.1268C62.6012 15.1667 62.2378 14.9969 62.0368 14.6882C61.8358 14.3795 61.7353 13.8702 61.7353 13.1601C61.7353 12.4964 61.859 12.0025 62.1064 11.6784C62.3538 11.3388 62.7248 11.169 63.2196 11.169Z"/>
<path d="M76.9478 22.7916C76.2366 22.7916 75.6104 22.7608 75.0693 22.699C74.5436 22.6373 74.0952 22.5138 73.7242 22.3286C73.3531 22.1434 73.0516 21.881 72.8197 21.5414C72.5878 21.1864 72.4177 20.731 72.3095 20.1754C72.2012 19.6043 72.1471 18.8943 72.1471 18.0453V7.78873C72.1471 7.43372 72.1781 7.10187 72.2399 6.79317C72.3017 6.46903 72.4795 6.20664 72.7733 6.00598C73.0671 5.78989 73.5618 5.68184 74.2576 5.68184C74.9533 5.68184 75.4404 5.78989 75.7187 6.00598C76.0124 6.20664 76.1902 6.46903 76.2521 6.79317C76.3139 7.11731 76.3448 7.45688 76.3448 7.81188V17.7907C76.3448 18.0222 76.3448 18.2074 76.3448 18.3463C76.3603 18.4698 76.3835 18.5624 76.4144 18.6242C76.4608 18.6859 76.5226 18.7245 76.5999 18.7399C76.6927 18.7399 76.8164 18.7399 76.971 18.7399C77.172 18.7399 77.3807 18.7708 77.5972 18.8325C77.8291 18.8788 78.0224 19.0409 78.177 19.3187C78.347 19.5811 78.4321 20.0442 78.4321 20.7079C78.4321 21.4025 78.347 21.8964 78.177 22.1897C78.0224 22.4829 77.8291 22.6527 77.5972 22.699C77.3653 22.7608 77.1488 22.7916 76.9478 22.7916Z"/>
<path d="M85.0312 23C84.32 23 83.601 22.8611 82.8744 22.5833C82.1477 22.29 81.4751 21.881 80.8567 21.3562C80.2537 20.8159 79.7667 20.1754 79.3956 19.4345C79.04 18.6782 78.8622 17.837 78.8622 16.9109C78.8622 16.0619 79.0246 15.267 79.3492 14.5261C79.6739 13.7853 80.1146 13.137 80.6712 12.5813C81.2432 12.0102 81.8926 11.5626 82.6193 11.2385C83.3614 10.9143 84.1499 10.7523 84.9848 10.7523C86.1289 10.7523 87.1648 11.0301 88.0925 11.5858C89.0202 12.126 89.7623 12.8592 90.3189 13.7853C90.8755 14.7114 91.1538 15.7455 91.1538 16.8877C91.1538 17.8601 90.9683 18.7245 90.5972 19.4808C90.2261 20.2371 89.7391 20.8777 89.1361 21.4025C88.5331 21.9273 87.8683 22.3209 87.1416 22.5833C86.4304 22.8611 85.7269 23 85.0312 23ZM84.9848 18.7631C85.2167 18.7631 85.4796 18.709 85.7733 18.601C86.0826 18.4775 86.3454 18.2769 86.5618 17.999C86.7938 17.7212 86.9097 17.343 86.9097 16.8646C86.9097 16.4787 86.8247 16.1468 86.6546 15.869C86.5 15.5912 86.2758 15.3751 85.9821 15.2207C85.6883 15.0664 85.3482 14.9892 84.9616 14.9892C84.6215 14.9892 84.3123 15.0741 84.034 15.2439C83.7557 15.3982 83.5315 15.622 83.3614 15.9153C83.1913 16.1931 83.1063 16.5173 83.1063 16.8877C83.1063 17.3508 83.2145 17.7212 83.431 17.999C83.6474 18.2769 83.9025 18.4775 84.1963 18.601C84.4901 18.709 84.7529 18.7631 84.9848 18.7631Z"/>
<path d="M94.2526 22.7916C93.5569 22.7916 93.0621 22.6913 92.7683 22.4906C92.4746 22.2745 92.2968 22.0044 92.2349 21.6803C92.1885 21.3407 92.1654 21.0012 92.1654 20.6616V13.1138C92.1654 12.7588 92.1963 12.427 92.2581 12.1183C92.32 11.7941 92.4978 11.5317 92.7915 11.3311C93.0853 11.1304 93.58 11.0301 94.2758 11.0301C94.9561 11.0301 95.4354 11.1227 95.7137 11.3079C96.0074 11.4931 96.1852 11.7015 96.2471 11.933C96.3089 12.1491 96.3399 12.3189 96.3399 12.4424L95.9688 12.3035C95.9688 12.3035 96.0306 12.234 96.1543 12.0951C96.278 11.9562 96.4558 11.7941 96.6877 11.6089C96.9351 11.4237 97.2211 11.2616 97.5458 11.1227C97.886 10.9838 98.2648 10.9143 98.6822 10.9143C98.8214 10.9143 98.9914 10.9298 99.1924 10.9606C99.4089 10.9761 99.6331 11.0147 99.865 11.0764C100.112 11.1381 100.337 11.2308 100.538 11.3542C100.754 11.4777 100.924 11.6398 101.048 11.8404C101.187 12.0411 101.256 12.2881 101.256 12.5813C101.256 13.3531 101.086 14.0091 100.746 14.5493C100.422 15.0895 99.9887 15.3596 99.4475 15.3596C99.1538 15.3596 98.9451 15.3442 98.8214 15.3133C98.6977 15.267 98.6049 15.2284 98.5431 15.1976C98.4967 15.1513 98.4348 15.1127 98.3575 15.0818C98.2957 15.0355 98.172 15.0123 97.9865 15.0123C97.7546 15.0123 97.5381 15.0432 97.3371 15.105C97.1516 15.1513 96.9815 15.2284 96.8269 15.3365C96.6877 15.4445 96.5795 15.5757 96.5022 15.7301C96.4249 15.869 96.3862 16.0233 96.3862 16.1931V20.7079C96.3862 21.0475 96.3553 21.3793 96.2935 21.7035C96.2316 22.0276 96.0538 22.29 95.7601 22.4906C95.4663 22.6913 94.9638 22.7916 94.2526 22.7916Z"/>
<path d="M110.89 22.7453C110.194 22.7453 109.676 22.6296 109.336 22.398C109.011 22.1665 108.856 21.9041 108.872 21.6108H109.197C109.119 21.7189 108.965 21.8655 108.733 22.0507C108.516 22.2205 108.223 22.3826 107.851 22.5369C107.48 22.6759 107.024 22.7453 106.483 22.7453C105.787 22.7453 105.115 22.591 104.465 22.2823C103.832 21.9581 103.259 21.5182 102.749 20.9626C102.255 20.4069 101.86 19.7818 101.567 19.0872C101.273 18.3772 101.126 17.6363 101.126 16.8646C101.126 16.1082 101.273 15.3828 101.567 14.6882C101.86 13.9936 102.262 13.3762 102.772 12.836C103.283 12.2803 103.855 11.8482 104.489 11.5395C105.123 11.2153 105.787 11.0532 106.483 11.0532C107.009 11.0532 107.449 11.1304 107.805 11.2848C108.176 11.4391 108.47 11.6089 108.686 11.7941C108.918 11.9794 109.073 12.1337 109.15 12.2572H108.895C108.88 11.8713 109.034 11.5703 109.359 11.3542C109.699 11.1381 110.217 11.0301 110.913 11.0301C111.608 11.0301 112.096 11.1381 112.374 11.3542C112.668 11.5549 112.845 11.8173 112.907 12.1414C112.969 12.4656 113 12.7974 113 13.137V20.6616C113 21.0012 112.969 21.333 112.907 21.6571C112.845 21.9813 112.668 22.2437 112.374 22.4443C112.096 22.645 111.601 22.7453 110.89 22.7453ZM107.063 18.5547C107.357 18.5547 107.62 18.4775 107.851 18.3232C108.099 18.1688 108.292 17.9682 108.431 17.7212C108.586 17.4588 108.663 17.181 108.663 16.8877C108.663 16.579 108.586 16.3012 108.431 16.0542C108.292 15.8073 108.099 15.6066 107.851 15.4522C107.604 15.2979 107.326 15.2207 107.017 15.2207C106.707 15.2207 106.421 15.2979 106.158 15.4522C105.911 15.6066 105.71 15.815 105.555 16.0774C105.401 16.3243 105.324 16.6022 105.324 16.9109C105.324 17.2041 105.401 17.4742 105.555 17.7212C105.726 17.9682 105.942 18.1688 106.205 18.3232C106.468 18.4775 106.754 18.5547 107.063 18.5547Z"/>
<path d="M21.7209 15.0587C21.7209 13.9931 22.5862 13.1293 23.6536 13.1293H24.1367C25.2041 13.1293 26.0694 13.9931 26.0694 15.0587V20.8468C26.0694 21.9124 25.2041 22.7762 24.1367 22.7762H23.6536C22.5862 22.7762 21.7209 21.9124 21.7209 20.8468V15.0587Z"/>
<path fill-rule="evenodd" clip-rule="evenodd" d="M23.8952 3C25.0184 3 25.9415 3.85054 26.0562 4.94163C27.1496 5.05559 28.002 5.97819 28.002 7.09994C28.002 8.22166 27.1495 9.1433 26.0562 9.25731C25.942 10.3489 25.0188 11.1999 23.8952 11.1999C22.7715 11.1999 21.8474 10.3489 21.7332 9.25731C20.6403 9.14287 19.7883 8.22134 19.7883 7.09994C19.7883 5.97851 20.6402 5.05602 21.7332 4.94163C21.8478 3.85049 22.7718 3 23.8952 3ZM23.8952 5.6529C23.0946 5.6529 22.4457 6.30076 22.4457 7.09994C22.4457 7.89912 23.0946 8.54698 23.8952 8.54698C24.6957 8.54698 25.3446 7.89912 25.3446 7.09994C25.3446 6.30076 24.6957 5.6529 23.8952 5.6529Z"/>
</mask>
<path d="M10.8827 22.7685C10.3725 22.7685 9.93956 22.6759 9.58395 22.4906C9.22835 22.29 8.96551 21.9967 8.79544 21.6108L3.29901 9.54833C3.00525 8.86919 2.92794 8.33668 3.06709 7.9508C3.2217 7.54949 3.65461 7.17905 4.36582 6.83947C4.86058 6.56164 5.27803 6.42273 5.61818 6.42273C5.97378 6.40729 6.27527 6.51534 6.52265 6.74686C6.77003 6.97839 6.98648 7.3334 7.17202 7.81188L10.8363 16.8183L14.5006 7.81188C14.7016 7.3334 14.9258 6.97839 15.1731 6.74686C15.4205 6.51534 15.722 6.40729 16.0776 6.42273C16.4332 6.43816 16.8429 6.57708 17.3068 6.83947C18.0798 7.20992 18.5282 7.58807 18.6519 7.97395C18.7756 8.34439 18.6828 8.86919 18.3736 9.54833L12.8772 21.6108C12.7226 21.9504 12.4597 22.2282 12.0887 22.4443C11.733 22.6604 11.3311 22.7685 10.8827 22.7685Z" fill="#9ABD6D"/>
<path d="M31.2682 22.7916C30.5724 22.7916 30.0777 22.6913 29.7839 22.4906C29.4901 22.2745 29.3123 22.0044 29.2505 21.6803C29.2041 21.3407 29.1809 21.0012 29.1809 20.6616V13.1138C29.1809 12.7588 29.2118 12.427 29.2737 12.1183C29.3355 11.7941 29.5133 11.5317 29.8071 11.3311C30.1009 11.1304 30.5956 11.0301 31.2914 11.0301C31.9717 11.0301 32.4509 11.1227 32.7292 11.3079C33.023 11.4931 33.2008 11.7015 33.2627 11.933C33.3245 12.1491 33.3554 12.3189 33.3554 12.4424L32.9844 12.3035C32.9844 12.3035 33.0462 12.234 33.1699 12.0951C33.2936 11.9562 33.4714 11.7941 33.7033 11.6089C33.9507 11.4237 34.2367 11.2616 34.5614 11.1227C34.9015 10.9838 35.2803 10.9143 35.6978 10.9143C35.8369 10.9143 36.007 10.9298 36.208 10.9606C36.4245 10.9761 36.6486 11.0147 36.8806 11.0764C37.1279 11.1381 37.3521 11.2308 37.5531 11.3542C37.7696 11.4777 37.9396 11.6398 38.0633 11.8404C38.2025 12.0411 38.2721 12.2881 38.2721 12.5813C38.2721 13.3531 38.102 14.0091 37.7618 14.5493C37.4372 15.0895 37.0042 15.3596 36.4631 15.3596C36.1693 15.3596 35.9606 15.3442 35.8369 15.3133C35.7132 15.267 35.6205 15.2284 35.5586 15.1976C35.5122 15.1513 35.4504 15.1127 35.3731 15.0818C35.3113 15.0355 35.1876 15.0123 35.002 15.0123C34.7701 15.0123 34.5537 15.0432 34.3527 15.105C34.1671 15.1513 33.9971 15.2284 33.8424 15.3365C33.7033 15.4445 33.5951 15.5757 33.5178 15.7301C33.4405 15.869 33.4018 16.0233 33.4018 16.1931V20.7079C33.4018 21.0475 33.3709 21.3793 33.309 21.7035C33.2472 22.0276 33.0694 22.29 32.7756 22.4906C32.4819 22.6913 31.9794 22.7916 31.2682 22.7916Z" fill="#9ABD6D"/>
<path d="M45.4995 22.7916C44.6801 22.7916 43.9689 22.699 43.3659 22.5138C42.7629 22.3286 42.2604 22.043 41.8584 21.6571C41.4719 21.2713 41.1781 20.7851 40.9772 20.1985C40.7916 19.612 40.6989 18.9251 40.6989 18.138V9.15473C40.6989 8.79973 40.7298 8.47559 40.7916 8.18233C40.8535 7.87362 41.0313 7.62666 41.325 7.44144C41.6188 7.24079 42.1135 7.14046 42.8093 7.14046C43.4896 7.14046 43.9766 7.2485 44.2704 7.46459C44.5641 7.66525 44.7419 7.92765 44.8038 8.25178C44.8656 8.57592 44.8965 8.90777 44.8965 9.24735V17.9296C44.8965 18.0994 44.9043 18.246 44.9197 18.3695C44.9507 18.4775 44.9893 18.5624 45.0357 18.6242C45.0821 18.6859 45.1439 18.7322 45.2212 18.7631C45.2985 18.7939 45.399 18.8094 45.5227 18.8094C45.9247 18.8094 46.2803 18.8402 46.5895 18.902C46.9142 18.9637 47.1616 19.1258 47.3317 19.3882C47.5172 19.6506 47.61 20.0905 47.61 20.7079C47.61 21.4025 47.5017 21.8964 47.2853 22.1897C47.0688 22.4829 46.7983 22.6527 46.4736 22.699C46.1489 22.7608 45.8242 22.7916 45.4995 22.7916ZM40.2118 11.169H42.9253L46.1257 11.0532C46.4658 11.0532 46.7905 11.0841 47.0998 11.1459C47.4244 11.2076 47.6873 11.3851 47.8883 11.6784C48.1047 11.9716 48.213 12.4733 48.213 13.1833C48.213 13.8316 48.1047 14.3023 47.8883 14.5956C47.6873 14.8889 47.4244 15.0741 47.0998 15.1513C46.7905 15.2284 46.4581 15.267 46.1025 15.267L43.1572 15.1976H40.1191C39.5934 15.1667 39.23 14.9969 39.0291 14.6882C38.8281 14.3795 38.7276 13.8702 38.7276 13.1601C38.7276 12.4964 38.8512 12.0025 39.0986 11.6784C39.346 11.3388 39.7171 11.169 40.2118 11.169Z" fill="#9ABD6D"/>
<path d="M54.3984 22.7453C53.6563 22.7453 52.9605 22.5987 52.3112 22.3054C51.6773 22.0122 51.1207 21.6031 50.6414 21.0783C50.1621 20.5381 49.791 19.913 49.5282 19.203C49.2653 18.493 49.1339 17.7212 49.1339 16.8877V13.1138C49.1339 12.7588 49.1648 12.427 49.2267 12.1183C49.2885 11.7941 49.4663 11.5317 49.7601 11.3311C50.0539 11.115 50.5486 11.0069 51.2444 11.0069C51.9556 11.0069 52.4503 11.115 52.7286 11.3311C53.0224 11.5317 53.2002 11.7941 53.262 12.1183C53.3239 12.4424 53.3548 12.782 53.3548 13.137V16.8877C53.3548 17.2427 53.4166 17.5437 53.5403 17.7907C53.6795 18.0376 53.8728 18.2306 54.1201 18.3695C54.383 18.493 54.6845 18.5547 55.0246 18.5547C55.3648 18.5547 55.6585 18.4852 55.9059 18.3463C56.1533 18.2074 56.3465 18.0145 56.4857 17.7675C56.6248 17.5205 56.6944 17.2273 56.6944 16.8877V13.0907C56.6944 12.7357 56.7253 12.4038 56.7872 12.0951C56.849 11.771 57.0268 11.5086 57.3206 11.3079C57.6143 11.1073 58.1091 11.0069 58.8048 11.0069C59.5161 11.0069 60.0108 11.115 60.2891 11.3311C60.5829 11.5317 60.7607 11.7941 60.8225 12.1183C60.8844 12.4424 60.9153 12.7743 60.9153 13.1138V20.731C60.9153 21.0706 60.8844 21.3948 60.8225 21.7035C60.7607 22.0122 60.5829 22.2668 60.2891 22.4675C59.9954 22.6681 59.5006 22.7685 58.8048 22.7685C58.2946 22.7685 57.8926 22.7067 57.5989 22.5833C57.3206 22.4752 57.1196 22.3363 56.9959 22.1665C56.8722 21.9813 56.7949 21.8038 56.764 21.634C56.7485 21.4488 56.7408 21.2944 56.7408 21.1709L57.135 21.2867C57.135 21.2867 57.0732 21.3639 56.9495 21.5182C56.8258 21.6571 56.6403 21.8269 56.3929 22.0276C56.161 22.2128 55.875 22.3826 55.5348 22.5369C55.2101 22.6759 54.8313 22.7453 54.3984 22.7453Z" fill="#9ABD6D"/>
<path d="M65.7939 22.8148C65.1136 22.8148 64.6266 22.7144 64.3328 22.5138C64.039 22.2977 63.8612 22.0276 63.7994 21.7035C63.7376 21.3639 63.7066 21.0243 63.7066 20.6847V10.2429C63.7066 9.74899 63.7994 9.23963 63.9849 8.71484C64.1705 8.17461 64.4565 7.68069 64.843 7.23307C65.245 6.77002 65.7475 6.39957 66.3505 6.12174C66.9689 5.82848 67.7033 5.68184 68.5537 5.68184C68.8938 5.68184 69.2262 5.71271 69.5509 5.77445C69.8756 5.83619 70.1385 6.0137 70.3395 6.30696C70.5559 6.58479 70.6641 7.07872 70.6641 7.78873C70.6641 8.48331 70.5559 8.97723 70.3395 9.2705C70.123 9.56376 69.8524 9.74127 69.5277 9.80301C69.2031 9.84931 68.8706 9.87247 68.5305 9.87247C68.4223 9.87247 68.3295 9.88018 68.2522 9.89562C68.1749 9.91105 68.113 9.93421 68.0667 9.96508C68.0203 9.98051 67.9816 10.0114 67.9507 10.0577C67.9352 10.104 67.9275 10.1503 67.9275 10.1966V20.731C67.9275 21.0706 67.8966 21.4025 67.8347 21.7266C67.7729 22.0353 67.5874 22.2977 67.2781 22.5138C66.9844 22.7144 66.4896 22.8148 65.7939 22.8148ZM63.2196 11.169H65.933L69.1335 11.0532C69.4736 11.0532 69.7983 11.0841 70.1075 11.1459C70.4322 11.2076 70.6951 11.3851 70.896 11.6784C71.1125 11.9716 71.2207 12.4733 71.2207 13.1833C71.2207 13.8316 71.1125 14.3023 70.896 14.5956C70.6951 14.8889 70.4322 15.0741 70.1075 15.1513C69.7983 15.2284 69.4659 15.267 69.1103 15.267L66.1649 15.1976H63.1268C62.6012 15.1667 62.2378 14.9969 62.0368 14.6882C61.8358 14.3795 61.7353 13.8702 61.7353 13.1601C61.7353 12.4964 61.859 12.0025 62.1064 11.6784C62.3538 11.3388 62.7248 11.169 63.2196 11.169Z" fill="#9ABD6D"/>
<path d="M76.9478 22.7916C76.2366 22.7916 75.6104 22.7608 75.0693 22.699C74.5436 22.6373 74.0952 22.5138 73.7242 22.3286C73.3531 22.1434 73.0516 21.881 72.8197 21.5414C72.5878 21.1864 72.4177 20.731 72.3095 20.1754C72.2012 19.6043 72.1471 18.8943 72.1471 18.0453V7.78873C72.1471 7.43372 72.1781 7.10187 72.2399 6.79317C72.3017 6.46903 72.4795 6.20664 72.7733 6.00598C73.0671 5.78989 73.5618 5.68184 74.2576 5.68184C74.9533 5.68184 75.4404 5.78989 75.7187 6.00598C76.0124 6.20664 76.1902 6.46903 76.2521 6.79317C76.3139 7.11731 76.3448 7.45688 76.3448 7.81188V17.7907C76.3448 18.0222 76.3448 18.2074 76.3448 18.3463C76.3603 18.4698 76.3835 18.5624 76.4144 18.6242C76.4608 18.6859 76.5226 18.7245 76.5999 18.7399C76.6927 18.7399 76.8164 18.7399 76.971 18.7399C77.172 18.7399 77.3807 18.7708 77.5972 18.8325C77.8291 18.8788 78.0224 19.0409 78.177 19.3187C78.347 19.5811 78.4321 20.0442 78.4321 20.7079C78.4321 21.4025 78.347 21.8964 78.177 22.1897C78.0224 22.4829 77.8291 22.6527 77.5972 22.699C77.3653 22.7608 77.1488 22.7916 76.9478 22.7916Z" fill="#9ABD6D"/>
<path d="M85.0312 23C84.32 23 83.601 22.8611 82.8744 22.5833C82.1477 22.29 81.4751 21.881 80.8567 21.3562C80.2537 20.8159 79.7667 20.1754 79.3956 19.4345C79.04 18.6782 78.8622 17.837 78.8622 16.9109C78.8622 16.0619 79.0246 15.267 79.3492 14.5261C79.6739 13.7853 80.1146 13.137 80.6712 12.5813C81.2432 12.0102 81.8926 11.5626 82.6193 11.2385C83.3614 10.9143 84.1499 10.7523 84.9848 10.7523C86.1289 10.7523 87.1648 11.0301 88.0925 11.5858C89.0202 12.126 89.7623 12.8592 90.3189 13.7853C90.8755 14.7114 91.1538 15.7455 91.1538 16.8877C91.1538 17.8601 90.9683 18.7245 90.5972 19.4808C90.2261 20.2371 89.7391 20.8777 89.1361 21.4025C88.5331 21.9273 87.8683 22.3209 87.1416 22.5833C86.4304 22.8611 85.7269 23 85.0312 23ZM84.9848 18.7631C85.2167 18.7631 85.4796 18.709 85.7733 18.601C86.0826 18.4775 86.3454 18.2769 86.5618 17.999C86.7938 17.7212 86.9097 17.343 86.9097 16.8646C86.9097 16.4787 86.8247 16.1468 86.6546 15.869C86.5 15.5912 86.2758 15.3751 85.9821 15.2207C85.6883 15.0664 85.3482 14.9892 84.9616 14.9892C84.6215 14.9892 84.3123 15.0741 84.034 15.2439C83.7557 15.3982 83.5315 15.622 83.3614 15.9153C83.1913 16.1931 83.1063 16.5173 83.1063 16.8877C83.1063 17.3508 83.2145 17.7212 83.431 17.999C83.6474 18.2769 83.9025 18.4775 84.1963 18.601C84.4901 18.709 84.7529 18.7631 84.9848 18.7631Z" fill="#9ABD6D"/>
<path d="M94.2526 22.7916C93.5569 22.7916 93.0621 22.6913 92.7683 22.4906C92.4746 22.2745 92.2968 22.0044 92.2349 21.6803C92.1885 21.3407 92.1654 21.0012 92.1654 20.6616V13.1138C92.1654 12.7588 92.1963 12.427 92.2581 12.1183C92.32 11.7941 92.4978 11.5317 92.7915 11.3311C93.0853 11.1304 93.58 11.0301 94.2758 11.0301C94.9561 11.0301 95.4354 11.1227 95.7137 11.3079C96.0074 11.4931 96.1852 11.7015 96.2471 11.933C96.3089 12.1491 96.3399 12.3189 96.3399 12.4424L95.9688 12.3035C95.9688 12.3035 96.0306 12.234 96.1543 12.0951C96.278 11.9562 96.4558 11.7941 96.6877 11.6089C96.9351 11.4237 97.2211 11.2616 97.5458 11.1227C97.886 10.9838 98.2648 10.9143 98.6822 10.9143C98.8214 10.9143 98.9914 10.9298 99.1924 10.9606C99.4089 10.9761 99.6331 11.0147 99.865 11.0764C100.112 11.1381 100.337 11.2308 100.538 11.3542C100.754 11.4777 100.924 11.6398 101.048 11.8404C101.187 12.0411 101.256 12.2881 101.256 12.5813C101.256 13.3531 101.086 14.0091 100.746 14.5493C100.422 15.0895 99.9887 15.3596 99.4475 15.3596C99.1538 15.3596 98.9451 15.3442 98.8214 15.3133C98.6977 15.267 98.6049 15.2284 98.5431 15.1976C98.4967 15.1513 98.4348 15.1127 98.3575 15.0818C98.2957 15.0355 98.172 15.0123 97.9865 15.0123C97.7546 15.0123 97.5381 15.0432 97.3371 15.105C97.1516 15.1513 96.9815 15.2284 96.8269 15.3365C96.6877 15.4445 96.5795 15.5757 96.5022 15.7301C96.4249 15.869 96.3862 16.0233 96.3862 16.1931V20.7079C96.3862 21.0475 96.3553 21.3793 96.2935 21.7035C96.2316 22.0276 96.0538 22.29 95.7601 22.4906C95.4663 22.6913 94.9638 22.7916 94.2526 22.7916Z" fill="#9ABD6D"/>
<path d="M110.89 22.7453C110.194 22.7453 109.676 22.6296 109.336 22.398C109.011 22.1665 108.856 21.9041 108.872 21.6108H109.197C109.119 21.7189 108.965 21.8655 108.733 22.0507C108.516 22.2205 108.223 22.3826 107.851 22.5369C107.48 22.6759 107.024 22.7453 106.483 22.7453C105.787 22.7453 105.115 22.591 104.465 22.2823C103.832 21.9581 103.259 21.5182 102.749 20.9626C102.255 20.4069 101.86 19.7818 101.567 19.0872C101.273 18.3772 101.126 17.6363 101.126 16.8646C101.126 16.1082 101.273 15.3828 101.567 14.6882C101.86 13.9936 102.262 13.3762 102.772 12.836C103.283 12.2803 103.855 11.8482 104.489 11.5395C105.123 11.2153 105.787 11.0532 106.483 11.0532C107.009 11.0532 107.449 11.1304 107.805 11.2848C108.176 11.4391 108.47 11.6089 108.686 11.7941C108.918 11.9794 109.073 12.1337 109.15 12.2572H108.895C108.88 11.8713 109.034 11.5703 109.359 11.3542C109.699 11.1381 110.217 11.0301 110.913 11.0301C111.608 11.0301 112.096 11.1381 112.374 11.3542C112.668 11.5549 112.845 11.8173 112.907 12.1414C112.969 12.4656 113 12.7974 113 13.137V20.6616C113 21.0012 112.969 21.333 112.907 21.6571C112.845 21.9813 112.668 22.2437 112.374 22.4443C112.096 22.645 111.601 22.7453 110.89 22.7453ZM107.063 18.5547C107.357 18.5547 107.62 18.4775 107.851 18.3232C108.099 18.1688 108.292 17.9682 108.431 17.7212C108.586 17.4588 108.663 17.181 108.663 16.8877C108.663 16.579 108.586 16.3012 108.431 16.0542C108.292 15.8073 108.099 15.6066 107.851 15.4522C107.604 15.2979 107.326 15.2207 107.017 15.2207C106.707 15.2207 106.421 15.2979 106.158 15.4522C105.911 15.6066 105.71 15.815 105.555 16.0774C105.401 16.3243 105.324 16.6022 105.324 16.9109C105.324 17.2041 105.401 17.4742 105.555 17.7212C105.726 17.9682 105.942 18.1688 106.205 18.3232C106.468 18.4775 106.754 18.5547 107.063 18.5547Z" fill="#9ABD6D"/>
<path d="M21.7209 15.0587C21.7209 13.9931 22.5862 13.1293 23.6536 13.1293H24.1367C25.2041 13.1293 26.0694 13.9931 26.0694 15.0587V20.8468C26.0694 21.9124 25.2041 22.7762 24.1367 22.7762H23.6536C22.5862 22.7762 21.7209 21.9124 21.7209 20.8468V15.0587Z" fill="#9ABD6D"/>
<path fill-rule="evenodd" clip-rule="evenodd" d="M23.8952 3C25.0184 3 25.9415 3.85054 26.0562 4.94163C27.1496 5.05559 28.002 5.97819 28.002 7.09994C28.002 8.22166 27.1495 9.1433 26.0562 9.25731C25.942 10.3489 25.0188 11.1999 23.8952 11.1999C22.7715 11.1999 21.8474 10.3489 21.7332 9.25731C20.6403 9.14287 19.7883 8.22134 19.7883 7.09994C19.7883 5.97851 20.6402 5.05602 21.7332 4.94163C21.8478 3.85049 22.7718 3 23.8952 3ZM23.8952 5.6529C23.0946 5.6529 22.4457 6.30076 22.4457 7.09994C22.4457 7.89912 23.0946 8.54698 23.8952 8.54698C24.6957 8.54698 25.3446 7.89912 25.3446 7.09994C25.3446 6.30076 24.6957 5.6529 23.8952 5.6529Z" fill="#9ABD6D"/>
<path d="M10.8827 22.7685C10.3725 22.7685 9.93956 22.6759 9.58395 22.4906C9.22835 22.29 8.96551 21.9967 8.79544 21.6108L3.29901 9.54833C3.00525 8.86919 2.92794 8.33668 3.06709 7.9508C3.2217 7.54949 3.65461 7.17905 4.36582 6.83947C4.86058 6.56164 5.27803 6.42273 5.61818 6.42273C5.97378 6.40729 6.27527 6.51534 6.52265 6.74686C6.77003 6.97839 6.98648 7.3334 7.17202 7.81188L10.8363 16.8183L14.5006 7.81188C14.7016 7.3334 14.9258 6.97839 15.1731 6.74686C15.4205 6.51534 15.722 6.40729 16.0776 6.42273C16.4332 6.43816 16.8429 6.57708 17.3068 6.83947C18.0798 7.20992 18.5282 7.58807 18.6519 7.97395C18.7756 8.34439 18.6828 8.86919 18.3736 9.54833L12.8772 21.6108C12.7226 21.9504 12.4597 22.2282 12.0887 22.4443C11.733 22.6604 11.3311 22.7685 10.8827 22.7685Z" stroke="#4A4A4A" stroke-width="6" mask="url(#path-1-outside-1_195_1442)"/>
<path d="M31.2682 22.7916C30.5724 22.7916 30.0777 22.6913 29.7839 22.4906C29.4901 22.2745 29.3123 22.0044 29.2505 21.6803C29.2041 21.3407 29.1809 21.0012 29.1809 20.6616V13.1138C29.1809 12.7588 29.2118 12.427 29.2737 12.1183C29.3355 11.7941 29.5133 11.5317 29.8071 11.3311C30.1009 11.1304 30.5956 11.0301 31.2914 11.0301C31.9717 11.0301 32.4509 11.1227 32.7292 11.3079C33.023 11.4931 33.2008 11.7015 33.2627 11.933C33.3245 12.1491 33.3554 12.3189 33.3554 12.4424L32.9844 12.3035C32.9844 12.3035 33.0462 12.234 33.1699 12.0951C33.2936 11.9562 33.4714 11.7941 33.7033 11.6089C33.9507 11.4237 34.2367 11.2616 34.5614 11.1227C34.9015 10.9838 35.2803 10.9143 35.6978 10.9143C35.8369 10.9143 36.007 10.9298 36.208 10.9606C36.4245 10.9761 36.6486 11.0147 36.8806 11.0764C37.1279 11.1381 37.3521 11.2308 37.5531 11.3542C37.7696 11.4777 37.9396 11.6398 38.0633 11.8404C38.2025 12.0411 38.2721 12.2881 38.2721 12.5813C38.2721 13.3531 38.102 14.0091 37.7618 14.5493C37.4372 15.0895 37.0042 15.3596 36.4631 15.3596C36.1693 15.3596 35.9606 15.3442 35.8369 15.3133C35.7132 15.267 35.6205 15.2284 35.5586 15.1976C35.5122 15.1513 35.4504 15.1127 35.3731 15.0818C35.3113 15.0355 35.1876 15.0123 35.002 15.0123C34.7701 15.0123 34.5537 15.0432 34.3527 15.105C34.1671 15.1513 33.9971 15.2284 33.8424 15.3365C33.7033 15.4445 33.5951 15.5757 33.5178 15.7301C33.4405 15.869 33.4018 16.0233 33.4018 16.1931V20.7079C33.4018 21.0475 33.3709 21.3793 33.309 21.7035C33.2472 22.0276 33.0694 22.29 32.7756 22.4906C32.4819 22.6913 31.9794 22.7916 31.2682 22.7916Z" stroke="#4A4A4A" stroke-width="6" mask="url(#path-1-outside-1_195_1442)"/>
<path d="M45.4995 22.7916C44.6801 22.7916 43.9689 22.699 43.3659 22.5138C42.7629 22.3286 42.2604 22.043 41.8584 21.6571C41.4719 21.2713 41.1781 20.7851 40.9772 20.1985C40.7916 19.612 40.6989 18.9251 40.6989 18.138V9.15473C40.6989 8.79973 40.7298 8.47559 40.7916 8.18233C40.8535 7.87362 41.0313 7.62666 41.325 7.44144C41.6188 7.24079 42.1135 7.14046 42.8093 7.14046C43.4896 7.14046 43.9766 7.2485 44.2704 7.46459C44.5641 7.66525 44.7419 7.92765 44.8038 8.25178C44.8656 8.57592 44.8965 8.90777 44.8965 9.24735V17.9296C44.8965 18.0994 44.9043 18.246 44.9197 18.3695C44.9507 18.4775 44.9893 18.5624 45.0357 18.6242C45.0821 18.6859 45.1439 18.7322 45.2212 18.7631C45.2985 18.7939 45.399 18.8094 45.5227 18.8094C45.9247 18.8094 46.2803 18.8402 46.5895 18.902C46.9142 18.9637 47.1616 19.1258 47.3317 19.3882C47.5172 19.6506 47.61 20.0905 47.61 20.7079C47.61 21.4025 47.5017 21.8964 47.2853 22.1897C47.0688 22.4829 46.7983 22.6527 46.4736 22.699C46.1489 22.7608 45.8242 22.7916 45.4995 22.7916ZM40.2118 11.169H42.9253L46.1257 11.0532C46.4658 11.0532 46.7905 11.0841 47.0998 11.1459C47.4244 11.2076 47.6873 11.3851 47.8883 11.6784C48.1047 11.9716 48.213 12.4733 48.213 13.1833C48.213 13.8316 48.1047 14.3023 47.8883 14.5956C47.6873 14.8889 47.4244 15.0741 47.0998 15.1513C46.7905 15.2284 46.4581 15.267 46.1025 15.267L43.1572 15.1976H40.1191C39.5934 15.1667 39.23 14.9969 39.0291 14.6882C38.8281 14.3795 38.7276 13.8702 38.7276 13.1601C38.7276 12.4964 38.8512 12.0025 39.0986 11.6784C39.346 11.3388 39.7171 11.169 40.2118 11.169Z" stroke="#4A4A4A" stroke-width="6" mask="url(#path-1-outside-1_195_1442)"/>
<path d="M54.3984 22.7453C53.6563 22.7453 52.9605 22.5987 52.3112 22.3054C51.6773 22.0122 51.1207 21.6031 50.6414 21.0783C50.1621 20.5381 49.791 19.913 49.5282 19.203C49.2653 18.493 49.1339 17.7212 49.1339 16.8877V13.1138C49.1339 12.7588 49.1648 12.427 49.2267 12.1183C49.2885 11.7941 49.4663 11.5317 49.7601 11.3311C50.0539 11.115 50.5486 11.0069 51.2444 11.0069C51.9556 11.0069 52.4503 11.115 52.7286 11.3311C53.0224 11.5317 53.2002 11.7941 53.262 12.1183C53.3239 12.4424 53.3548 12.782 53.3548 13.137V16.8877C53.3548 17.2427 53.4166 17.5437 53.5403 17.7907C53.6795 18.0376 53.8728 18.2306 54.1201 18.3695C54.383 18.493 54.6845 18.5547 55.0246 18.5547C55.3648 18.5547 55.6585 18.4852 55.9059 18.3463C56.1533 18.2074 56.3465 18.0145 56.4857 17.7675C56.6248 17.5205 56.6944 17.2273 56.6944 16.8877V13.0907C56.6944 12.7357 56.7253 12.4038 56.7872 12.0951C56.849 11.771 57.0268 11.5086 57.3206 11.3079C57.6143 11.1073 58.1091 11.0069 58.8048 11.0069C59.5161 11.0069 60.0108 11.115 60.2891 11.3311C60.5829 11.5317 60.7607 11.7941 60.8225 12.1183C60.8844 12.4424 60.9153 12.7743 60.9153 13.1138V20.731C60.9153 21.0706 60.8844 21.3948 60.8225 21.7035C60.7607 22.0122 60.5829 22.2668 60.2891 22.4675C59.9954 22.6681 59.5006 22.7685 58.8048 22.7685C58.2946 22.7685 57.8926 22.7067 57.5989 22.5833C57.3206 22.4752 57.1196 22.3363 56.9959 22.1665C56.8722 21.9813 56.7949 21.8038 56.764 21.634C56.7485 21.4488 56.7408 21.2944 56.7408 21.1709L57.135 21.2867C57.135 21.2867 57.0732 21.3639 56.9495 21.5182C56.8258 21.6571 56.6403 21.8269 56.3929 22.0276C56.161 22.2128 55.875 22.3826 55.5348 22.5369C55.2101 22.6759 54.8313 22.7453 54.3984 22.7453Z" stroke="#4A4A4A" stroke-width="6" mask="url(#path-1-outside-1_195_1442)"/>
<path d="M65.7939 22.8148C65.1136 22.8148 64.6266 22.7144 64.3328 22.5138C64.039 22.2977 63.8612 22.0276 63.7994 21.7035C63.7376 21.3639 63.7066 21.0243 63.7066 20.6847V10.2429C63.7066 9.74899 63.7994 9.23963 63.9849 8.71484C64.1705 8.17461 64.4565 7.68069 64.843 7.23307C65.245 6.77002 65.7475 6.39957 66.3505 6.12174C66.9689 5.82848 67.7033 5.68184 68.5537 5.68184C68.8938 5.68184 69.2262 5.71271 69.5509 5.77445C69.8756 5.83619 70.1385 6.0137 70.3395 6.30696C70.5559 6.58479 70.6641 7.07872 70.6641 7.78873C70.6641 8.48331 70.5559 8.97723 70.3395 9.2705C70.123 9.56376 69.8524 9.74127 69.5277 9.80301C69.2031 9.84931 68.8706 9.87247 68.5305 9.87247C68.4223 9.87247 68.3295 9.88018 68.2522 9.89562C68.1749 9.91105 68.113 9.93421 68.0667 9.96508C68.0203 9.98051 67.9816 10.0114 67.9507 10.0577C67.9352 10.104 67.9275 10.1503 67.9275 10.1966V20.731C67.9275 21.0706 67.8966 21.4025 67.8347 21.7266C67.7729 22.0353 67.5874 22.2977 67.2781 22.5138C66.9844 22.7144 66.4896 22.8148 65.7939 22.8148ZM63.2196 11.169H65.933L69.1335 11.0532C69.4736 11.0532 69.7983 11.0841 70.1075 11.1459C70.4322 11.2076 70.6951 11.3851 70.896 11.6784C71.1125 11.9716 71.2207 12.4733 71.2207 13.1833C71.2207 13.8316 71.1125 14.3023 70.896 14.5956C70.6951 14.8889 70.4322 15.0741 70.1075 15.1513C69.7983 15.2284 69.4659 15.267 69.1103 15.267L66.1649 15.1976H63.1268C62.6012 15.1667 62.2378 14.9969 62.0368 14.6882C61.8358 14.3795 61.7353 13.8702 61.7353 13.1601C61.7353 12.4964 61.859 12.0025 62.1064 11.6784C62.3538 11.3388 62.7248 11.169 63.2196 11.169Z" stroke="#4A4A4A" stroke-width="6" mask="url(#path-1-outside-1_195_1442)"/>
<path d="M76.9478 22.7916C76.2366 22.7916 75.6104 22.7608 75.0693 22.699C74.5436 22.6373 74.0952 22.5138 73.7242 22.3286C73.3531 22.1434 73.0516 21.881 72.8197 21.5414C72.5878 21.1864 72.4177 20.731 72.3095 20.1754C72.2012 19.6043 72.1471 18.8943 72.1471 18.0453V7.78873C72.1471 7.43372 72.1781 7.10187 72.2399 6.79317C72.3017 6.46903 72.4795 6.20664 72.7733 6.00598C73.0671 5.78989 73.5618 5.68184 74.2576 5.68184C74.9533 5.68184 75.4404 5.78989 75.7187 6.00598C76.0124 6.20664 76.1902 6.46903 76.2521 6.79317C76.3139 7.11731 76.3448 7.45688 76.3448 7.81188V17.7907C76.3448 18.0222 76.3448 18.2074 76.3448 18.3463C76.3603 18.4698 76.3835 18.5624 76.4144 18.6242C76.4608 18.6859 76.5226 18.7245 76.5999 18.7399C76.6927 18.7399 76.8164 18.7399 76.971 18.7399C77.172 18.7399 77.3807 18.7708 77.5972 18.8325C77.8291 18.8788 78.0224 19.0409 78.177 19.3187C78.347 19.5811 78.4321 20.0442 78.4321 20.7079C78.4321 21.4025 78.347 21.8964 78.177 22.1897C78.0224 22.4829 77.8291 22.6527 77.5972 22.699C77.3653 22.7608 77.1488 22.7916 76.9478 22.7916Z" stroke="#4A4A4A" stroke-width="6" mask="url(#path-1-outside-1_195_1442)"/>
<path d="M85.0312 23C84.32 23 83.601 22.8611 82.8744 22.5833C82.1477 22.29 81.4751 21.881 80.8567 21.3562C80.2537 20.8159 79.7667 20.1754 79.3956 19.4345C79.04 18.6782 78.8622 17.837 78.8622 16.9109C78.8622 16.0619 79.0246 15.267 79.3492 14.5261C79.6739 13.7853 80.1146 13.137 80.6712 12.5813C81.2432 12.0102 81.8926 11.5626 82.6193 11.2385C83.3614 10.9143 84.1499 10.7523 84.9848 10.7523C86.1289 10.7523 87.1648 11.0301 88.0925 11.5858C89.0202 12.126 89.7623 12.8592 90.3189 13.7853C90.8755 14.7114 91.1538 15.7455 91.1538 16.8877C91.1538 17.8601 90.9683 18.7245 90.5972 19.4808C90.2261 20.2371 89.7391 20.8777 89.1361 21.4025C88.5331 21.9273 87.8683 22.3209 87.1416 22.5833C86.4304 22.8611 85.7269 23 85.0312 23ZM84.9848 18.7631C85.2167 18.7631 85.4796 18.709 85.7733 18.601C86.0826 18.4775 86.3454 18.2769 86.5618 17.999C86.7938 17.7212 86.9097 17.343 86.9097 16.8646C86.9097 16.4787 86.8247 16.1468 86.6546 15.869C86.5 15.5912 86.2758 15.3751 85.9821 15.2207C85.6883 15.0664 85.3482 14.9892 84.9616 14.9892C84.6215 14.9892 84.3123 15.0741 84.034 15.2439C83.7557 15.3982 83.5315 15.622 83.3614 15.9153C83.1913 16.1931 83.1063 16.5173 83.1063 16.8877C83.1063 17.3508 83.2145 17.7212 83.431 17.999C83.6474 18.2769 83.9025 18.4775 84.1963 18.601C84.4901 18.709 84.7529 18.7631 84.9848 18.7631Z" stroke="#4A4A4A" stroke-width="6" mask="url(#path-1-outside-1_195_1442)"/>
<path d="M94.2526 22.7916C93.5569 22.7916 93.0621 22.6913 92.7683 22.4906C92.4746 22.2745 92.2968 22.0044 92.2349 21.6803C92.1885 21.3407 92.1654 21.0012 92.1654 20.6616V13.1138C92.1654 12.7588 92.1963 12.427 92.2581 12.1183C92.32 11.7941 92.4978 11.5317 92.7915 11.3311C93.0853 11.1304 93.58 11.0301 94.2758 11.0301C94.9561 11.0301 95.4354 11.1227 95.7137 11.3079C96.0074 11.4931 96.1852 11.7015 96.2471 11.933C96.3089 12.1491 96.3399 12.3189 96.3399 12.4424L95.9688 12.3035C95.9688 12.3035 96.0306 12.234 96.1543 12.0951C96.278 11.9562 96.4558 11.7941 96.6877 11.6089C96.9351 11.4237 97.2211 11.2616 97.5458 11.1227C97.886 10.9838 98.2648 10.9143 98.6822 10.9143C98.8214 10.9143 98.9914 10.9298 99.1924 10.9606C99.4089 10.9761 99.6331 11.0147 99.865 11.0764C100.112 11.1381 100.337 11.2308 100.538 11.3542C100.754 11.4777 100.924 11.6398 101.048 11.8404C101.187 12.0411 101.256 12.2881 101.256 12.5813C101.256 13.3531 101.086 14.0091 100.746 14.5493C100.422 15.0895 99.9887 15.3596 99.4475 15.3596C99.1538 15.3596 98.9451 15.3442 98.8214 15.3133C98.6977 15.267 98.6049 15.2284 98.5431 15.1976C98.4967 15.1513 98.4348 15.1127 98.3575 15.0818C98.2957 15.0355 98.172 15.0123 97.9865 15.0123C97.7546 15.0123 97.5381 15.0432 97.3371 15.105C97.1516 15.1513 96.9815 15.2284 96.8269 15.3365C96.6877 15.4445 96.5795 15.5757 96.5022 15.7301C96.4249 15.869 96.3862 16.0233 96.3862 16.1931V20.7079C96.3862 21.0475 96.3553 21.3793 96.2935 21.7035C96.2316 22.0276 96.0538 22.29 95.7601 22.4906C95.4663 22.6913 94.9638 22.7916 94.2526 22.7916Z" stroke="#4A4A4A" stroke-width="6" mask="url(#path-1-outside-1_195_1442)"/>
<path d="M110.89 22.7453C110.194 22.7453 109.676 22.6296 109.336 22.398C109.011 22.1665 108.856 21.9041 108.872 21.6108H109.197C109.119 21.7189 108.965 21.8655 108.733 22.0507C108.516 22.2205 108.223 22.3826 107.851 22.5369C107.48 22.6759 107.024 22.7453 106.483 22.7453C105.787 22.7453 105.115 22.591 104.465 22.2823C103.832 21.9581 103.259 21.5182 102.749 20.9626C102.255 20.4069 101.86 19.7818 101.567 19.0872C101.273 18.3772 101.126 17.6363 101.126 16.8646C101.126 16.1082 101.273 15.3828 101.567 14.6882C101.86 13.9936 102.262 13.3762 102.772 12.836C103.283 12.2803 103.855 11.8482 104.489 11.5395C105.123 11.2153 105.787 11.0532 106.483 11.0532C107.009 11.0532 107.449 11.1304 107.805 11.2848C108.176 11.4391 108.47 11.6089 108.686 11.7941C108.918 11.9794 109.073 12.1337 109.15 12.2572H108.895C108.88 11.8713 109.034 11.5703 109.359 11.3542C109.699 11.1381 110.217 11.0301 110.913 11.0301C111.608 11.0301 112.096 11.1381 112.374 11.3542C112.668 11.5549 112.845 11.8173 112.907 12.1414C112.969 12.4656 113 12.7974 113 13.137V20.6616C113 21.0012 112.969 21.333 112.907 21.6571C112.845 21.9813 112.668 22.2437 112.374 22.4443C112.096 22.645 111.601 22.7453 110.89 22.7453ZM107.063 18.5547C107.357 18.5547 107.62 18.4775 107.851 18.3232C108.099 18.1688 108.292 17.9682 108.431 17.7212C108.586 17.4588 108.663 17.181 108.663 16.8877C108.663 16.579 108.586 16.3012 108.431 16.0542C108.292 15.8073 108.099 15.6066 107.851 15.4522C107.604 15.2979 107.326 15.2207 107.017 15.2207C106.707 15.2207 106.421 15.2979 106.158 15.4522C105.911 15.6066 105.71 15.815 105.555 16.0774C105.401 16.3243 105.324 16.6022 105.324 16.9109C105.324 17.2041 105.401 17.4742 105.555 17.7212C105.726 17.9682 105.942 18.1688 106.205 18.3232C106.468 18.4775 106.754 18.5547 107.063 18.5547Z" stroke="#4A4A4A" stroke-width="6" mask="url(#path-1-outside-1_195_1442)"/>
<path d="M21.7209 15.0587C21.7209 13.9931 22.5862 13.1293 23.6536 13.1293H24.1367C25.2041 13.1293 26.0694 13.9931 26.0694 15.0587V20.8468C26.0694 21.9124 25.2041 22.7762 24.1367 22.7762H23.6536C22.5862 22.7762 21.7209 21.9124 21.7209 20.8468V15.0587Z" stroke="#4A4A4A" stroke-width="6" mask="url(#path-1-outside-1_195_1442)"/>
<path fill-rule="evenodd" clip-rule="evenodd" d="M23.8952 3C25.0184 3 25.9415 3.85054 26.0562 4.94163C27.1496 5.05559 28.002 5.97819 28.002 7.09994C28.002 8.22166 27.1495 9.1433 26.0562 9.25731C25.942 10.3489 25.0188 11.1999 23.8952 11.1999C22.7715 11.1999 21.8474 10.3489 21.7332 9.25731C20.6403 9.14287 19.7883 8.22134 19.7883 7.09994C19.7883 5.97851 20.6402 5.05602 21.7332 4.94163C21.8478 3.85049 22.7718 3 23.8952 3ZM23.8952 5.6529C23.0946 5.6529 22.4457 6.30076 22.4457 7.09994C22.4457 7.89912 23.0946 8.54698 23.8952 8.54698C24.6957 8.54698 25.3446 7.89912 25.3446 7.09994C25.3446 6.30076 24.6957 5.6529 23.8952 5.6529Z" stroke="#4A4A4A" stroke-width="6" mask="url(#path-1-outside-1_195_1442)"/>
</svg>
