<svg width="50" height="50" viewBox="0 0 50 50" fill="none" xmlns="http://www.w3.org/2000/svg">
<path d="M26.5331 29.8365C22.4866 30.592 21.4401 30.0353 19.9339 28.5648C18.4277 27.0943 18.6211 25.0485 20.125 23.5804C22.4573 21.3033 24.9523 23.7361 27.3835 24.2898C29.8146 24.8435 30.5795 29.081 26.5331 29.8365Z" fill="#D4B996"/>
<path d="M39.0788 37.9437C40.8622 41.6235 40.5906 42.7698 39.5478 44.5929C38.5051 46.416 36.462 46.7602 34.6424 45.7C31.8204 44.0556 33.5447 41.0365 33.4549 38.5649C33.3651 36.0933 37.2955 34.264 39.0788 37.9437Z" fill="#D4B996"/>
<path d="M29.5236 45.2928C27.1887 48.6554 26.0504 48.9913 23.9366 48.9998C21.8228 49.0083 20.5064 47.4214 20.5304 45.329C20.5676 42.0838 24.067 42.0675 26.1858 40.7623C28.3046 39.457 31.8585 41.9301 29.5236 45.2928Z" fill="#D4B996"/>
<path d="M22.8424 39.6876C20.5075 43.0502 19.3692 43.3861 17.2554 43.3946C15.1416 43.4031 13.8252 41.8161 13.8492 39.7238C13.8864 36.4786 17.3858 36.4623 19.5046 35.1571C21.6234 33.8518 25.1773 36.3249 22.8424 39.6876Z" fill="#D4B996"/>
<path d="M11.5356 42.7449C9.20068 46.1076 8.06234 46.4435 5.94854 46.452C3.83474 46.4605 2.51835 44.8735 2.54236 42.7811C2.57957 39.5359 6.07894 39.5196 8.19776 38.2144C10.3166 36.9092 13.8705 39.3822 11.5356 42.7449Z" fill="#D4B996"/>
<path d="M9.99379 34.0823C7.65888 37.445 6.52055 37.7809 4.40675 37.7894C2.29294 37.7979 0.976559 36.2109 1.00057 34.1185C1.03778 30.8733 4.53715 30.8571 6.65596 29.5518C8.77478 28.2466 12.3287 30.7196 9.99379 34.0823Z" fill="#D4B996"/>
<path d="M46.1458 35.711C42.0993 36.4665 41.0528 35.9097 39.5466 34.4392C38.0404 32.9688 38.2339 30.923 39.7377 29.4548C42.07 27.1777 44.5651 29.6105 46.9962 30.1642C49.4274 30.7179 50.1923 34.9555 46.1458 35.711Z" fill="#D4B996"/>
<path d="M21.7822 23.6254C21.5492 23.8664 21.4719 24.0362 21.5481 24.4785M23.5417 26.8481C23.5025 27.3242 23.6179 27.556 23.9341 27.9414M20.9695 27.3465C20.9112 27.8004 20.9781 28.0489 21.1776 28.4872M25.4031 24.6524C25.0418 24.8149 24.954 24.9598 24.9611 25.2957M26.4013 27.3694C26.3619 27.8562 26.3985 28.1109 26.7855 28.4657M34.2574 44.1011C34.5525 44.2619 34.7379 44.2921 35.1491 44.1046M36.9416 41.582C37.4156 41.4963 37.6116 41.3258 37.9052 40.9233M38.0929 43.9164C38.5502 43.8548 38.775 43.7264 39.1504 43.4218M34.3207 40.3677C34.5726 40.6716 34.7365 40.7181 35.0618 40.6244M36.7094 38.7085C37.1938 38.6202 37.4324 38.5192 37.678 38.0568M21.7386 44.2033C21.7444 44.5371 21.8102 44.7116 22.1786 44.9723M25.2772 45.2614C25.5877 45.6266 25.8343 45.7106 26.3325 45.7632M23.8059 47.4118C24.087 47.7747 24.3111 47.9043 24.7641 48.076M25.038 42.4029C24.8971 42.7706 24.9378 42.9348 25.1815 43.1682M27.677 43.634C27.995 44.0069 28.2019 44.162 28.7287 44.1436M15.0574 38.5981C15.0632 38.9319 15.129 39.1064 15.4974 39.3671M18.596 39.6562C18.9065 40.0214 19.1531 40.1054 19.6513 40.158M17.1247 41.8066C17.4058 42.1695 17.6299 42.2991 18.0829 42.4708M18.3568 36.7977C18.2159 37.1654 18.2566 37.3296 18.5003 37.563M20.9958 38.0287C21.3138 38.4017 21.5207 38.5568 22.0475 38.5383M3.75054 41.6555C3.7564 41.9892 3.82216 42.1638 4.19057 42.4245M7.28916 42.7135C7.59964 43.0788 7.84624 43.1628 8.34446 43.2154M5.81784 44.864C6.099 45.2269 6.32305 45.3565 6.77611 45.5282M7.04995 39.8551C6.90902 40.2228 6.94973 40.3869 7.19342 40.6203M9.68898 41.0861C10.007 41.4591 10.2139 41.6142 10.7406 41.5957M2.20874 32.9929C2.21461 33.3267 2.28036 33.5012 2.64877 33.7619M5.74736 34.0509C6.05784 34.4162 6.30445 34.5002 6.80267 34.5528M4.27605 36.2014C4.5572 36.5643 4.78125 36.6939 5.23431 36.8656M5.50815 31.1925C5.36722 31.5602 5.40793 31.7243 5.65162 31.9577M8.14719 32.4235C8.46519 32.7965 8.67211 32.9516 9.19884 32.9331M41.395 29.4999C41.162 29.7408 41.0846 29.9106 41.1608 30.353M43.1545 32.7225C43.1153 33.1986 43.2306 33.4305 43.5468 33.8158M40.5823 33.221C40.5239 33.6749 40.5908 33.9234 40.7904 34.3617M45.0158 30.5268C44.6545 30.6894 44.5668 30.8343 44.5739 31.1701M46.014 33.2439C45.9747 33.7307 46.0113 33.9853 46.3982 34.3401M35.1682 36.1421C34.2012 34.3672 30.2382 31.4842 29.0095 30.4103M29.0095 30.4103C28.7264 30.1629 28.301 29.8955 27.6709 29.5906M29.0095 30.4103C30.348 31.1921 37.0621 27.9891 38.2518 30.1729M10.7558 31.8108C9.79062 30.0393 18.1172 31.9481 20.0073 30.7553M20.0073 30.7553C20.4472 30.4777 20.8827 30.1484 21.2757 29.7362M20.0073 30.7553C17.9251 32.9391 11.7837 37.8164 11.7837 38.6899M21.2757 34.8682C20.086 32.6844 24.399 32.5024 23.9528 30.1729C24.399 32.5024 29.0095 32.8299 29.0095 40.7282M26.5331 29.8365C22.4866 30.592 21.4401 30.0353 19.9339 28.5648C18.4277 27.0943 18.6211 25.0485 20.125 23.5804C22.4573 21.3033 24.9523 23.7361 27.3835 24.2898C29.8146 24.8435 30.5795 29.081 26.5331 29.8365ZM39.0788 37.9437C40.8622 41.6235 40.5906 42.7698 39.5478 44.5929C38.5051 46.416 36.462 46.7602 34.6424 45.7C31.8204 44.0556 33.5447 41.0365 33.4549 38.5649C33.3651 36.0933 37.2955 34.264 39.0788 37.9437ZM29.5236 45.2928C27.1887 48.6554 26.0504 48.9913 23.9366 48.9998C21.8228 49.0083 20.5064 47.4214 20.5304 45.329C20.5676 42.0838 24.067 42.0675 26.1858 40.7623C28.3046 39.457 31.8585 41.9301 29.5236 45.2928ZM22.8424 39.6876C20.5075 43.0502 19.3692 43.3861 17.2554 43.3946C15.1416 43.4031 13.8252 41.8161 13.8492 39.7238C13.8864 36.4786 17.3858 36.4623 19.5046 35.1571C21.6234 33.8518 25.1773 36.3249 22.8424 39.6876ZM11.5356 42.7449C9.20068 46.1076 8.06234 46.4435 5.94854 46.452C3.83474 46.4605 2.51835 44.8735 2.54236 42.7811C2.57957 39.5359 6.07894 39.5196 8.19776 38.2144C10.3166 36.9092 13.8705 39.3822 11.5356 42.7449ZM9.99379 34.0823C7.65888 37.445 6.52055 37.7809 4.40675 37.7894C2.29294 37.7979 0.976559 36.2109 1.00057 34.1185C1.03778 30.8733 4.53715 30.8571 6.65596 29.5518C8.77478 28.2466 12.3287 30.7196 9.99379 34.0823ZM46.1458 35.711C42.0993 36.4665 41.0528 35.9097 39.5466 34.4392C38.0404 32.9688 38.2339 30.923 39.7377 29.4548C42.07 27.1777 44.5651 29.6105 46.9962 30.1642C49.4274 30.7179 50.1923 34.9555 46.1458 35.711Z" stroke="#4A4A4A" stroke-linecap="round"/>
<path d="M31.3137 18.3809C28.7532 21.6409 25.6021 20.9328 24.4546 19.0437C24.4561 19.0072 24.4581 18.9707 24.4604 18.9345C24.6276 16.3485 26.8952 14.6026 31.3137 18.3809Z" fill="#9ABD6D"/>
<path d="M13.8396 12.8485C16.4001 16.1084 19.5511 15.4003 20.6986 13.5113C20.6971 13.4748 20.6952 13.4383 20.6928 13.4021C20.5257 10.8161 18.258 9.0702 13.8396 12.8485Z" fill="#9ABD6D"/>
<path d="M30.5185 6.18987C26.3908 6.75849 25.4338 9.81814 26.51 11.748C26.5427 11.7649 26.5755 11.7815 26.6084 11.7976C28.9507 12.9471 31.6095 11.8729 30.5185 6.18987Z" fill="#9ABD6D"/>
<path d="M27.9326 1.2329C27.3756 5.27331 24.2529 6.22729 22.2735 5.18603C22.256 5.15414 22.2389 5.12218 22.2222 5.09015C21.0332 2.80597 22.1158 0.199264 27.9326 1.2329Z" fill="#9ABD6D"/>
<path d="M17.8822 5.75532C17.9062 5.70646 17.9289 5.657 17.9503 5.60701C17.4669 3.0033 14.9587 1.48862 11.0653 5.90577C13.9884 8.70619 16.933 7.69079 17.8822 5.75532Z" fill="#9ABD6D"/>
<path d="M22.8622 22.6212C20.6809 18.817 26.6882 12.4474 21.0348 7.60654C20.2099 6.97285 19.0915 6.22881 17.8822 5.75532M22.4657 20.4756C23.0731 19.8553 23.7229 19.3174 24.4604 18.9345M24.4604 18.9345C25.4084 18.4423 26.5014 18.2063 27.8358 18.3809M24.4604 18.9345C24.4581 18.9707 24.4561 19.0072 24.4546 19.0437C25.6021 20.9328 28.7532 21.6409 31.3137 18.3809C26.8952 14.6026 24.6276 16.3485 24.4604 18.9345ZM22.6876 14.9432C22.0802 14.3229 21.4304 13.785 20.6928 13.4021M20.6928 13.4021C19.7448 12.9099 18.6518 12.6739 17.3174 12.8485M20.6928 13.4021C20.6952 13.4383 20.6971 13.4748 20.6986 13.5113C19.5511 15.4003 16.4001 16.1084 13.8396 12.8485C18.258 9.0702 20.5257 10.8161 20.6928 13.4021ZM24.2649 12.7399C25.1104 12.5284 25.9051 12.2395 26.6084 11.7976M26.6084 11.7976C27.5122 11.2297 28.2649 10.4092 28.7796 9.17609M26.6084 11.7976C26.5755 11.7815 26.5427 11.7649 26.51 11.748C25.4338 9.81814 26.3908 6.75849 30.5185 6.18987C31.6095 11.8729 28.9507 12.9471 26.6084 11.7976ZM21.2726 7.38771C21.4838 6.55956 21.7746 5.78053 22.2222 5.09015M22.2222 5.09015C22.7975 4.20277 23.632 3.46182 24.8897 2.95119M22.2222 5.09015C22.2389 5.12218 22.256 5.15414 22.2735 5.18603C24.2529 6.22729 27.3756 5.27331 27.9326 1.2329C22.1158 0.199264 21.0332 2.80597 22.2222 5.09015ZM17.8822 5.75532C16.7821 5.32459 15.6067 5.11775 14.5087 5.42154M17.8822 5.75532C17.9062 5.70646 17.9289 5.657 17.9503 5.60701C17.4669 3.0033 14.9587 1.48862 11.0653 5.90577C13.9884 8.70619 16.933 7.69079 17.8822 5.75532Z" stroke="#4A4A4A" stroke-linecap="round"/>
</svg>
