<svg width="38" height="50" viewBox="0 0 38 50" fill="none" xmlns="http://www.w3.org/2000/svg">
<path d="M26.6987 38.6254C18.8253 40.108 16.7891 39.0154 13.8584 36.1297C10.9278 33.2439 11.3042 29.2291 14.2302 26.3479C18.7683 21.8792 23.623 26.6535 28.3534 27.7401C33.0838 28.8268 34.5721 37.1428 26.6987 38.6254Z" fill="#D4B996"/>
<path d="M17.4548 26.4364C17.0015 26.9092 16.8509 27.2425 16.9992 28.1106M20.8784 32.7607C20.8021 33.695 21.0265 34.15 21.6418 34.9062M15.8735 33.7388C15.76 34.6296 15.8902 35.1173 16.2784 35.9774M24.5001 28.4517C23.7971 28.7707 23.6264 29.0551 23.6402 29.7142M26.4422 33.7838C26.3657 34.7391 26.437 35.2389 27.1899 35.9351M26.6987 38.6254C18.8253 40.108 16.7891 39.0154 13.8584 36.1297C10.9278 33.2439 11.3042 29.2291 14.2302 26.3479C18.7683 21.8792 23.623 26.6535 28.3534 27.7401C33.0838 28.8268 34.5721 37.1428 26.6987 38.6254Z" stroke="#4A4A4A" stroke-width="2" stroke-linecap="round"/>
<path d="M32.9641 46.7141C31.0825 43.2309 33.908 41.859 31.5172 39.7514M31.5172 39.7514C30.9664 39.2658 30.1387 38.7412 28.9127 38.1427M31.5172 39.7514C34.1216 41.2856 33.5429 40.7142 35.8579 44.9999M8.36672 46.7141C6.48876 43.2375 10.3237 42.7692 14.0013 40.4284M14.0013 40.4284C14.8572 39.8837 15.7045 39.2375 16.4694 38.4284M14.0013 40.4284C9.94998 44.7142 15.0225 44.9999 15.0225 46.7141M21.6782 47.857C19.3632 43.5713 22.5464 43.857 21.6782 39.2856C22.5464 43.857 26.5977 44.7142 28.9127 48.9999" stroke="#4A4A4A" stroke-width="2" stroke-linecap="round"/>
<path d="M19.556 24.4656C15.3117 16.9999 23.6073 6.99988 19.556 0.999884" stroke="#4A4A4A" stroke-width="2" stroke-linecap="round"/>
<path d="M36.0002 16.1442C31.0181 22.5417 24.8871 21.1521 22.6543 17.445C22.6573 17.3732 22.661 17.3017 22.6656 17.2305C22.9908 12.1556 27.403 8.72941 36.0002 16.1442Z" fill="#9ABD6D"/>
<path d="M18.7843 20.2549C21.4853 17.4731 24.6168 15.5349 29.2333 16.1442M22.6543 17.445C24.8871 21.1521 31.0181 22.5417 36.0002 16.1442C27.2825 8.62544 22.8679 12.2538 22.6543 17.445Z" stroke="#4A4A4A" stroke-width="2" stroke-linecap="round"/>
<path d="M2.00028 5.28704C6.98238 11.6845 13.1134 10.2949 15.3462 6.58778C15.3432 6.51599 15.3395 6.44451 15.3349 6.37334C15.0096 1.29843 10.5975 -2.12776 2.00028 5.28704Z" fill="#9ABD6D"/>
<path d="M19.2162 9.3977C16.5152 6.61596 13.3837 4.67773 8.76722 5.28704M15.3462 6.58778C13.1134 10.2949 6.98238 11.6845 2.00028 5.28704C10.718 -2.23174 15.1326 1.39665 15.3462 6.58778Z" stroke="#4A4A4A" stroke-width="2" stroke-linecap="round"/>
</svg>
