<svg width="34" height="36" viewBox="0 0 34 36" fill="none" xmlns="http://www.w3.org/2000/svg">
<path d="M31.1195 16.5577C26.6728 29.6083 23.3389 31.6948 16.5976 33.551C9.8564 35.4072 4.23387 31.3398 2.43878 24.4551C-0.345404 13.7773 10.8126 10.6971 16.4099 4.58278C22.0072 -1.53159 35.5662 3.50715 31.1195 16.5577Z" fill="#D4B996"/>
<path d="M5.28925 19.7176C5.60654 20.8074 5.9726 21.3231 7.38205 21.8596M17.5336 20.1277C18.8517 21.0574 19.7141 21.1195 21.3519 20.8611M14.7598 28.4547C15.9821 29.402 16.8133 29.6333 18.4134 29.8047M14.2129 10.9577C14.0919 12.2858 14.3687 12.789 15.3555 13.3439M23.7399 12.7134C25.0888 13.6617 25.8882 13.9916 27.5534 13.4754M31.1195 16.5577C26.6728 29.6083 23.3389 31.6948 16.5976 33.551C9.8564 35.4072 4.23387 31.3398 2.43878 24.4551C-0.345404 13.7773 10.8126 10.6971 16.4099 4.58278C22.0072 -1.53159 35.5662 3.50715 31.1195 16.5577Z" stroke="#4A4A4A" stroke-width="3" stroke-linecap="round"/>
</svg>
