<svg width="48" height="52" viewBox="0 0 48 52" fill="none" xmlns="http://www.w3.org/2000/svg">
<path d="M27.6748 48.8447C14.071 51.4393 10.5526 49.5272 5.489 44.4771C0.425352 39.427 1.07568 32.4012 6.13141 27.359C13.9725 19.5388 22.3605 27.8938 30.5338 29.7954C38.7071 31.697 41.2786 46.25 27.6748 48.8447Z" fill="#D4B996"/>
<path d="M11.703 27.5139C10.9197 28.3414 10.6596 28.9245 10.9158 30.4437M17.6183 38.5814C17.4865 40.2165 17.8742 41.0127 18.9373 42.3361M8.97071 40.2931C8.77461 41.8521 8.99959 42.7054 9.67037 44.2107M23.8759 31.0407C22.6613 31.5988 22.3663 32.0966 22.3902 33.25M27.2317 40.3719C27.0995 42.0437 27.2226 42.9182 28.5234 44.1367M27.6748 48.8447C14.071 51.4393 10.5526 49.5272 5.489 44.4771C0.425352 39.427 1.07568 32.4012 6.13141 27.359C13.9725 19.5388 22.3605 27.8938 30.5338 29.7954C38.7071 31.697 41.2786 46.2501 27.6748 48.8447Z" stroke="#4A4A4A" stroke-width="3" stroke-linecap="round"/>
<path d="M15.3333 24.0651C13.6805 14.2233 14.9206 16.5507 17.0824 6.32193" stroke="#4A4A4A" stroke-width="3" stroke-linecap="round"/>
<path d="M45 9.50253C36.3918 20.6981 25.7984 18.2663 21.9406 11.7788C21.9457 11.6532 21.9522 11.5281 21.9601 11.4036C22.5221 2.52247 30.1456 -3.47338 45 9.50253Z" fill="#9ABD6D"/>
<path d="M15.2539 16.6962C19.9207 11.8281 25.3314 8.43625 33.3079 9.50253M21.9406 11.7788C25.7984 18.2663 36.3918 20.6981 45 9.50253C29.9373 -3.65533 22.3097 2.69435 21.9406 11.7788Z" stroke="#4A4A4A" stroke-width="3" stroke-linecap="round"/>
</svg>
