<svg width="28" height="28" viewBox="0 0 28 28" fill="none" xmlns="http://www.w3.org/2000/svg">
<path d="M2 25.9973H25.9973H2Z" fill="#B19CD9"/>
<path d="M2 25.9973H25.9973" stroke="#4A4A4A" stroke-width="3" stroke-linecap="round" stroke-linejoin="round"/>
<path d="M10 25V20.3333C10 19.7145 10.281 19.121 10.781 18.6834C11.2811 18.2458 11.9594 18 12.6667 18H15.3333C16.0406 18 16.7189 18.2458 17.219 18.6834C17.719 19.121 18 19.7145 18 20.3333V25" fill="#B19CD9"/>
<path d="M10 25V20.3333C10 19.7145 10.281 19.121 10.781 18.6834C11.2811 18.2458 11.9594 18 12.6667 18H15.3333C16.0406 18 16.7189 18.2458 17.219 18.6834C17.719 19.121 18 19.7145 18 20.3333V25" stroke="#4A4A4A" stroke-width="3" stroke-linecap="round" stroke-linejoin="round"/>
<path d="M4.66638 26V12.4682V26Z" fill="#B19CD9"/>
<path d="M4.66638 26V12.4682" stroke="#4A4A4A" stroke-width="3" stroke-linecap="round" stroke-linejoin="round"/>
<path d="M23.3309 26V12.4682V26Z" fill="#B19CD9"/>
<path d="M23.3309 26V12.4682" stroke="#4A4A4A" stroke-width="3" stroke-linecap="round" stroke-linejoin="round"/>
<path d="M17.9982 8.66592C17.9982 9.72667 18.4195 10.744 19.1696 11.494C19.9197 12.2441 20.937 12.6655 21.9977 12.6655C23.0585 12.6655 24.0758 12.2441 24.8258 11.494C25.5759 10.744 25.9973 9.72667 25.9973 8.66592V7.33273" fill="#B19CD9"/>
<path d="M17.9982 8.66592C17.9982 9.72667 18.4195 10.744 19.1696 11.494C19.9197 12.2441 20.937 12.6655 21.9977 12.6655C23.0585 12.6655 24.0758 12.2441 24.8258 11.494C25.5759 10.744 25.9973 9.72667 25.9973 8.66592V7.33273" stroke="#4A4A4A" stroke-width="3" stroke-linecap="round" stroke-linejoin="round"/>
<path d="M9.99915 8.66592C9.99915 9.72667 10.4205 10.744 11.1706 11.494C11.9206 12.2441 12.938 12.6655 13.9987 12.6655C15.0594 12.6655 16.0768 12.2441 16.8268 11.494C17.5769 10.744 17.9983 9.72667 17.9983 8.66592V7.33273" fill="#B19CD9"/>
<path d="M9.99915 8.66592C9.99915 9.72667 10.4205 10.744 11.1706 11.494C11.9206 12.2441 12.938 12.6655 13.9987 12.6655C15.0594 12.6655 16.0768 12.2441 16.8268 11.494C17.5769 10.744 17.9983 9.72667 17.9983 8.66592V7.33273" stroke="#4A4A4A" stroke-width="3" stroke-linecap="round" stroke-linejoin="round"/>
<path d="M2 7.33273V8.66592C2 9.72667 2.42138 10.744 3.17144 11.494C3.9215 12.2441 4.93881 12.6655 5.99955 12.6655C7.0603 12.6655 8.07761 12.2441 8.82767 11.494C9.57773 10.744 9.99911 9.72667 9.99911 8.66592V7.33273" fill="#B19CD9"/>
<path d="M2 7.33273V8.66592C2 9.72667 2.42138 10.744 3.17144 11.494C3.9215 12.2441 4.93881 12.6655 5.99955 12.6655C7.0603 12.6655 8.07761 12.2441 8.82767 11.494C9.57773 10.744 9.99911 9.72667 9.99911 8.66592V7.33273" stroke="#4A4A4A" stroke-width="3" stroke-linecap="round" stroke-linejoin="round"/>
<path d="M25.9973 7.33273H2H25.9973Z" fill="#B19CD9"/>
<path d="M25.9973 7.33273H2" stroke="#4A4A4A" stroke-width="3" stroke-linecap="round" stroke-linejoin="round"/>
<path d="M25.9973 7.33274L23.331 2H4.66637L2 7.33274" fill="#B19CD9"/>
<path d="M25.9973 7.33274L23.331 2H4.66637L2 7.33274" stroke="#4A4A4A" stroke-width="3" stroke-linecap="round" stroke-linejoin="round"/>
</svg>
