<svg width="49" height="50" viewBox="0 0 49 50" fill="none" xmlns="http://www.w3.org/2000/svg">
<path d="M28.0457 41.5407C31.0222 29.268 20.3479 32.0213 29.1875 18.4399" stroke="#4A4A4A" stroke-width="3" stroke-linecap="round"/>
<path d="M27.4977 40.2871C25.2872 37.7521 13.9066 36.4873 12.4185 11.9419" stroke="#4A4A4A" stroke-width="3" stroke-linecap="round"/>
<path d="M25.9061 27.7222C29.8749 25.7971 38.0168 19.7386 36.2309 13.3857" stroke="#4A4A4A" stroke-width="3" stroke-linecap="round"/>
<path d="M18.6784 33.2531C17.7828 30.2352 13.6219 28.1095 8.78347 31.6582C13.6268 38.5661 17.519 36.8519 18.6784 33.2531Z" fill="#9ABD6D" stroke="#4A4A4A" stroke-width="3" stroke-linecap="round"/>
<path d="M36.8249 12.626C39.8775 11.7546 42.0453 7.6455 38.4857 2.837C31.4846 7.59752 33.1962 11.4599 36.8249 12.626Z" fill="#9ABD6D" stroke="#4A4A4A" stroke-width="3" stroke-linecap="round"/>
<path d="M36.2751 19.7273C37.1706 16.7094 41.3316 14.5837 46.17 18.1324C41.3267 25.0403 37.4345 23.326 36.2751 19.7273Z" fill="#9ABD6D" stroke="#4A4A4A" stroke-width="3" stroke-linecap="round"/>
<path d="M12.7249 18.8146C11.8294 15.7967 7.66841 13.671 2.82998 17.2197C7.67331 24.1276 11.5655 22.4133 12.7249 18.8146Z" fill="#9ABD6D" stroke="#4A4A4A" stroke-width="3" stroke-linecap="round"/>
<path d="M25.8499 22.2187C24.9544 19.2007 20.7934 17.075 15.955 20.6237C20.7983 27.5316 24.6905 25.8174 25.8499 22.2187Z" fill="#9ABD6D" stroke="#4A4A4A" stroke-width="3" stroke-linecap="round"/>
<path d="M28.4505 18.8553C31.5031 17.9838 33.6709 13.8748 30.1113 9.06628C23.1102 13.8268 24.8218 17.6892 28.4505 18.8553Z" fill="#9ABD6D" stroke="#4A4A4A" stroke-width="3" stroke-linecap="round"/>
<path d="M13.2401 12.7628C15.4436 10.4969 15.246 5.86511 9.73508 3.46304C6.0759 11.0518 9.50869 13.5493 13.2401 12.7628Z" fill="#9ABD6D" stroke="#4A4A4A" stroke-width="3" stroke-linecap="round"/>
<path d="M29.8115 48.0234C28.1158 48.6078 26.4195 48.6758 25.1172 48.1094C23.6436 47.4684 22.7811 46.5217 22.4365 45.6357C22.1285 44.8436 22.1863 43.9984 22.7314 43.1953L22.8467 43.0352C23.0174 42.8124 23.4228 42.536 24.2637 42.3662C25.0807 42.2012 26.1233 42.1762 27.29 42.2783C29.4806 42.47 31.8455 43.0857 33.46 43.7393L33.7725 43.8701C34.1395 44.0298 34.4351 44.1644 34.6738 44.2754C34.5024 44.4687 34.3024 44.6946 34.0889 44.9541L33.7051 45.4375C32.9501 46.4225 31.5072 47.439 29.8115 48.0234Z" fill="#F5E6C9" stroke="#4A4A4A" stroke-width="3"/>
</svg>
