<svg width="42" height="49" viewBox="0 0 42 49" fill="none" xmlns="http://www.w3.org/2000/svg">
<path d="M24.1516 34.9844C26.7974 24.1259 17.3092 26.5619 25.1665 14.5455" stroke="#4A4A4A" stroke-width="2" stroke-linecap="round"/>
<path d="M23.6645 33.8752C21.6996 31.6324 11.5835 30.5133 10.2607 8.79622" stroke="#4A4A4A" stroke-width="2" stroke-linecap="round"/>
<path d="M22.25 22.7582C25.7778 21.0549 33.0151 15.6946 31.4276 10.0737" stroke="#4A4A4A" stroke-width="2" stroke-linecap="round"/>
<path d="M15.8253 27.6518C15.0292 24.9816 11.3306 23.1009 7.02979 26.2407C11.335 32.3525 14.7947 30.8358 15.8253 27.6518Z" fill="#9ABD6D" stroke="#4A4A4A" stroke-width="2" stroke-linecap="round"/>
<path d="M31.4668 15.6846C32.2629 13.0144 35.9615 11.1337 40.2623 14.2735C35.9571 20.3853 32.4974 18.8686 31.4668 15.6846Z" fill="#9ABD6D" stroke="#4A4A4A" stroke-width="2" stroke-linecap="round"/>
<path d="M10.5333 14.8771C9.73725 12.2069 6.03862 10.3261 1.7378 13.4659C6.04298 19.5778 9.50273 18.0611 10.5333 14.8771Z" fill="#9ABD6D" stroke="#4A4A4A" stroke-width="2" stroke-linecap="round"/>
<path d="M22.1999 17.8888C21.4039 15.2186 17.7052 13.3379 13.4044 16.4777C17.7096 22.5896 21.1694 21.0729 22.1999 17.8888Z" fill="#9ABD6D" stroke="#4A4A4A" stroke-width="2" stroke-linecap="round"/>
<path d="M24.5116 14.913C27.225 14.142 29.1519 10.5064 25.9879 6.25202C19.7646 10.464 21.2861 13.8813 24.5116 14.913Z" fill="#9ABD6D" stroke="#4A4A4A" stroke-width="2" stroke-linecap="round"/>
<path d="M25.7845 38.9506C24.8037 39.287 23.8297 39.3426 23.0599 39.0658L22.9095 39.0053C22.0045 38.6135 21.4836 38.0391 21.2777 37.5121C21.1072 37.0757 21.1237 36.6127 21.392 36.1645L21.5228 35.974C21.6146 35.8549 21.8488 35.6883 22.3656 35.5844C22.866 35.4838 23.5083 35.4677 24.2308 35.5307C25.4973 35.641 26.8584 35.9792 27.8461 36.351L28.2445 36.5121C28.4255 36.5904 28.5802 36.6627 28.7152 36.724C28.6246 36.8267 28.523 36.9418 28.4164 37.0707L28.1761 37.3715C27.7165 37.9684 26.8308 38.5917 25.7845 38.9506Z" fill="#F5E6C9" stroke="#4A4A4A" stroke-width="2"/>
<path d="M12.7025 1.00296C13.5434 0.950864 13.9415 1.54305 13.9095 1.96878L13.8969 2.05179L13.3676 4.41507C13.2869 4.7752 12.8797 5.15921 12.2582 5.15921H10.0746C9.531 5.15915 9.15163 4.86547 9.01111 4.55081L8.96619 4.41507L8.43591 2.05179C8.34651 1.65193 8.68631 1.03138 9.46814 1.00101L9.63123 1.00296L11.1049 1.09378L11.1664 1.09769L11.2289 1.09378L12.7025 1.00296Z" fill="#FCFCFC" stroke="#4A4A4A" stroke-width="2"/>
<path d="M16.493 3.81731C16.6823 3.71424 16.9097 3.71333 17.1542 3.86028C17.3755 3.99331 17.5923 4.24494 17.702 4.60246L17.7421 4.76262L18.038 6.24797L18.0487 6.30656L18.0673 6.36223L18.535 7.8007C18.674 8.22836 18.6122 8.629 18.4608 8.90227C18.3312 9.13607 18.1563 9.25403 17.9745 9.28508L17.8964 9.29289L15.536 9.37981L15.412 9.37004C15.1288 9.31961 14.7718 9.07145 14.6014 8.57317L14.5663 8.45305L14.0009 6.28703C13.8497 5.70764 14.0483 5.24449 14.2977 5.0302L14.4071 4.95403L16.493 3.81731Z" fill="#FCFCFC" stroke="#4A4A4A" stroke-width="2"/>
<path d="M5.1792 3.86028C5.39323 3.73164 5.59432 3.71583 5.76807 3.78313L5.84033 3.81731L7.92627 4.95403C8.20252 5.10462 8.47005 5.56249 8.35986 6.16496L8.33252 6.28703L7.76709 8.45305C7.59468 9.1139 7.11069 9.39111 6.79736 9.37981L4.43799 9.29289C4.22868 9.28523 4.02082 9.16963 3.87256 8.90227C3.74008 8.66317 3.67711 8.32672 3.75635 7.95988L3.79932 7.8007L4.26611 6.36223L4.28467 6.30656L4.29639 6.24797L4.59131 4.76262C4.67939 4.31976 4.92622 4.01235 5.1792 3.86028Z" fill="#FCFCFC" stroke="#4A4A4A" stroke-width="2"/>
<path d="M7.16162 10.7558C7.37465 10.5209 7.84762 10.3862 8.35693 10.6377L8.45947 10.6933L10.3501 11.8154C10.8323 12.1013 11.0235 12.5654 10.9917 12.9179L10.9653 13.0605L10.2729 15.3789C10.2026 15.6146 10.0259 15.7842 9.75732 15.8564C9.515 15.9215 9.20056 15.9012 8.88916 15.7343L8.75635 15.6543L7.5249 14.8174L7.47412 14.7832L7.41943 14.7558L6.09814 14.0781C5.31951 13.6785 5.276 12.9381 5.50342 12.5937L5.55322 12.5302L7.16162 10.7558Z" fill="#FCFCFC" stroke="#4A4A4A" stroke-width="2"/>
<path d="M13.9189 10.6933C14.3979 10.4093 14.8584 10.4784 15.1182 10.6679L15.2168 10.7558L16.8262 12.5302C17.0877 12.8187 17.1087 13.5515 16.4258 13.9931L16.2803 14.0781L14.959 14.7558L14.9043 14.7832L14.8545 14.8174L13.6221 15.6543C13.2691 15.8937 12.8979 15.9308 12.6211 15.8564C12.3863 15.7932 12.2213 15.6561 12.1367 15.4648L12.1055 15.3789L11.4141 13.0605C11.3136 12.7234 11.4573 12.2108 11.9297 11.8789L12.0283 11.8154L13.9189 10.6933Z" fill="#FCFCFC" stroke="#4A4A4A" stroke-width="2"/>
<circle cx="11.1665" cy="8.44554" r="2.83888" fill="#FFD700" stroke="#4A4A4A" stroke-width="2"/>
<path d="M32.9813 1.00293C33.8222 0.950833 34.2203 1.54302 34.1884 1.96875L34.1757 2.05176L33.6464 4.41504C33.5657 4.77517 33.1586 5.15918 32.537 5.15918H30.3534C29.8098 5.15912 29.4304 4.86544 29.2899 4.55078L29.245 4.41504L28.7147 2.05176C28.6253 1.6519 28.9651 1.03135 29.7469 1.00098L29.91 1.00293L31.3837 1.09375L31.4452 1.09766L31.5077 1.09375L32.9813 1.00293Z" fill="#FCFCFC" stroke="#4A4A4A" stroke-width="2"/>
<path d="M36.7719 3.81728C36.9611 3.71421 37.1885 3.71329 37.433 3.86024C37.6543 3.99328 37.8712 4.24491 37.9808 4.60243L38.0209 4.76259L38.3168 6.24794L38.3275 6.30653L38.3461 6.3622L38.8138 7.80067C38.9528 8.22832 38.8911 8.62897 38.7396 8.90224C38.61 9.13603 38.4351 9.254 38.2533 9.28505L38.1752 9.29286L35.8148 9.37978L35.6908 9.37001C35.4076 9.31958 35.0506 9.07142 34.8802 8.57314L34.8451 8.45302L34.2797 6.287C34.1285 5.70761 34.3271 5.24446 34.5765 5.03017L34.6859 4.95399L36.7719 3.81728Z" fill="#FCFCFC" stroke="#4A4A4A" stroke-width="2"/>
<path d="M25.458 3.86024C25.672 3.73161 25.8731 3.7158 26.0469 3.7831L26.1191 3.81728L28.2051 4.95399C28.4813 5.10459 28.7489 5.56245 28.6387 6.16493L28.6113 6.287L28.0459 8.45302C27.8735 9.11387 27.3895 9.39108 27.0762 9.37978L24.7168 9.29286C24.5075 9.2852 24.2996 9.1696 24.1514 8.90224C24.0189 8.66314 23.9559 8.32669 24.0352 7.95985L24.0781 7.80067L24.5449 6.3622L24.5635 6.30653L24.5752 6.24794L24.8701 4.76259C24.9582 4.31973 25.205 4.01232 25.458 3.86024Z" fill="#FCFCFC" stroke="#4A4A4A" stroke-width="2"/>
<path d="M27.4404 10.7558C27.6535 10.5208 28.1264 10.3861 28.6357 10.6376L28.7383 10.6933L30.6289 11.8154C31.1111 12.1013 31.3023 12.5654 31.2705 12.9179L31.2441 13.0605L30.5518 15.3788C30.4814 15.6146 30.3047 15.7842 30.0361 15.8564C29.7938 15.9215 29.4794 15.9012 29.168 15.7343L29.0352 15.6542L27.8037 14.8173L27.7529 14.7831L27.6982 14.7558L26.377 14.0781C25.5983 13.6784 25.5548 12.9381 25.7822 12.5937L25.832 12.5302L27.4404 10.7558Z" fill="#FCFCFC" stroke="#4A4A4A" stroke-width="2"/>
<path d="M34.1978 10.6933C34.6767 10.4093 35.1372 10.4784 35.397 10.6679L35.4956 10.7558L37.105 12.5302C37.3665 12.8187 37.3875 13.5514 36.7046 13.9931L36.5591 14.0781L35.2378 14.7558L35.1831 14.7831L35.1333 14.8173L33.9009 15.6542C33.5479 15.8937 33.1767 15.9308 32.8999 15.8564C32.6651 15.7932 32.5001 15.656 32.4155 15.4648L32.3843 15.3788L31.6929 13.0605C31.5924 12.7234 31.7361 12.2107 32.2085 11.8788L32.3071 11.8154L34.1978 10.6933Z" fill="#FCFCFC" stroke="#4A4A4A" stroke-width="2"/>
<circle cx="31.4453" cy="8.44551" r="2.83888" fill="#FFD700" stroke="#4A4A4A" stroke-width="2"/>
<path d="M34.2779 44.3963C31.3612 41.2091 30.9445 43.5995 27.1946 39.6156" stroke="#4A4A4A" stroke-width="2" stroke-linecap="round"/>
<path d="M35.5278 40.0139C31.7779 39.6155 32.1945 40.4123 29.2778 41.2091" stroke="#4A4A4A" stroke-width="2" stroke-linecap="round"/>
<path d="M15.0534 43.2011C17.9701 40.014 17.6112 42.815 21.3612 38.8311" stroke="#4A4A4A" stroke-width="2" stroke-linecap="round"/>
<path d="M21.3966 47.5405C22.2559 43.386 23.8667 45.2569 25.0309 40.014" stroke="#4A4A4A" stroke-width="2" stroke-linecap="round"/>
<path d="M30.9446 47.185C30.0853 43.0305 25.8588 46.8505 24.6945 41.6075" stroke="#4A4A4A" stroke-width="2" stroke-linecap="round"/>
</svg>
