<svg width="42" height="48" viewBox="0 0 42 48" fill="none" xmlns="http://www.w3.org/2000/svg">
<path d="M18.4186 40.2869C18.8358 40.1414 19.2453 40.1112 19.5768 40.2098L19.7135 40.2596C20.1227 40.4397 20.3568 40.7035 20.4489 40.9432C20.5358 41.17 20.5132 41.4118 20.3395 41.6414C20.3042 41.688 20.2059 41.7628 19.9733 41.8104C19.7481 41.8563 19.4565 41.8641 19.1256 41.8348C18.5451 41.7834 17.9206 41.625 17.4684 41.452L17.2858 41.3768C17.218 41.3469 17.1584 41.3191 17.1051 41.2947C17.1091 41.2901 17.1137 41.2858 17.1178 41.2811L17.3317 41.0154C17.5393 40.7413 17.9421 40.4532 18.4186 40.2869Z" fill="#F5E6C9" stroke="#4A4A4A"/>
<path d="M19.187 39.6821C12.6395 27.0465 25.7397 9.73685 19.1855 4.33902" stroke="#4A4A4A" stroke-linecap="round"/>
<path d="M20.9001 14.9005C21.4231 16.7425 23.9148 18.0584 26.8431 15.9236C23.9657 11.6928 21.6159 12.7159 20.9001 14.9005Z" fill="#9ABD6D" stroke="#4A4A4A" stroke-linecap="round"/>
<path d="M19.3271 5.27342C19.7798 3.4123 18.269 1.00583 14.6832 1.36577C15.0949 6.49269 17.6329 6.80142 19.3271 5.27342Z" fill="#9ABD6D" stroke="#4A4A4A" stroke-linecap="round"/>
<path d="M28.3708 7.13149C30.201 7.59181 32.5676 6.05554 32.2136 2.4093C27.1717 2.82787 26.8681 5.40874 28.3708 7.13149Z" fill="#9ABD6D" stroke="#4A4A4A" stroke-linecap="round"/>
<path d="M10.3167 13.3924C8.48648 13.8527 6.11994 12.3164 6.47391 8.67016C11.5158 9.08874 11.8194 11.6696 10.3167 13.3924Z" fill="#9ABD6D" stroke="#4A4A4A" stroke-linecap="round"/>
<path d="M20.1471 11.9554C18.8033 13.2805 15.9846 13.1569 14.4401 9.83498C18.9976 7.63835 20.5683 9.70857 20.1471 11.9554Z" fill="#9ABD6D" stroke="#4A4A4A" stroke-linecap="round"/>
<path d="M17.5539 29.9554C18.8977 31.2805 21.7165 31.1569 23.2609 27.835C18.7035 25.6383 17.1327 27.7086 17.5539 29.9554Z" fill="#9ABD6D" stroke="#4A4A4A" stroke-linecap="round"/>
<path d="M17.3214 33.7787C16.3473 35.4202 13.6056 36.0355 11.3204 33.2027C15.1766 29.8734 17.1859 31.4801 17.3214 33.7787Z" fill="#9ABD6D" stroke="#4A4A4A" stroke-linecap="round"/>
<path d="M27.74 19.4986C29.6251 19.5357 31.52 21.6424 30.25 25.0713C25.4865 23.34 25.8501 20.7672 27.74 19.4986Z" fill="#9ABD6D" stroke="#4A4A4A" stroke-linecap="round"/>
<path d="M27.74 8.02039C29.6251 8.05744 31.52 10.1642 30.25 13.593C25.4865 11.8618 25.8501 9.28896 27.74 8.02039Z" fill="#9ABD6D" stroke="#4A4A4A" stroke-linecap="round"/>
<path d="M34.3157 22.9745C33.6854 18.4763 25.2789 18.09 18.5566 22.9745" stroke="#4A4A4A" stroke-linecap="round"/>
<path d="M25.4907 26.1876C22.9693 23.6171 25.4905 22.3319 23.5996 20.4042" stroke="#4A4A4A" stroke-linecap="round"/>
<path d="M14.1442 20.5436C11.6228 17.8337 11.6228 14.7602 15.405 14.7602" stroke="#4A4A4A" stroke-linecap="round"/>
<path d="M4.05829 16.9404C4.68865 12.4422 13.0951 12.0559 19.8174 16.9404" stroke="#4A4A4A" stroke-linecap="round"/>
<path d="M36.8372 10.5144C36.2069 6.01622 27.8004 5.62994 21.0781 10.5144" stroke="#4A4A4A" stroke-linecap="round"/>
<path d="M34.7136 24.0395H34.9929C37.1544 24.0396 38.829 25.9118 38.3796 27.8247L38.3289 28.0102C38.0392 28.9524 37.6497 29.8483 37.0505 30.8764L36.781 31.3256C36.3812 31.9722 35.6476 32.3539 34.8533 32.354C34.1087 32.354 33.4176 32.0184 33.0046 31.4438L32.9255 31.3256C32.2643 30.2561 31.828 29.3441 31.5076 28.4116L31.3777 28.0102C30.7705 26.0348 32.4823 24.0396 34.7136 24.0395Z" fill="#FF6B6B" stroke="#4A4A4A"/>
<path d="M34.8532 23.8336C35.7201 23.8336 36.3703 22.7129 34.8532 20.9197C33.3363 22.7129 33.9864 23.8336 34.8532 23.8336Z" fill="#9ABD6D" stroke="#4A4A4A" stroke-linecap="round"/>
<path d="M36.4829 24.0009C37.1703 24.4052 38.1922 23.8595 37.7993 21.7939C35.7863 22.4447 35.7955 23.5967 36.4829 24.0009Z" fill="#9ABD6D" stroke="#4A4A4A" stroke-linecap="round"/>
<path d="M33.2236 24.0009C32.5362 24.4052 31.5143 23.8595 31.9073 21.7939C33.9202 22.4447 33.911 23.5967 33.2236 24.0009Z" fill="#9ABD6D" stroke="#4A4A4A" stroke-linecap="round"/>
<path d="M34.8531 27.6329L34.8531 28.0059" stroke="#4A4A4A" stroke-linecap="round"/>
<path d="M34.8531 30.2436L34.8531 30.6165" stroke="#4A4A4A" stroke-linecap="round"/>
<path d="M36.3481 28.7518L36.3481 29.1247" stroke="#4A4A4A" stroke-linecap="round"/>
<path d="M33.3583 28.7518L33.3583 29.1247" stroke="#4A4A4A" stroke-linecap="round"/>
<path d="M36.3481 26.1411L36.3481 26.5141" stroke="#4A4A4A" stroke-linecap="round"/>
<path d="M33.3583 26.1411L33.3583 26.5141" stroke="#4A4A4A" stroke-linecap="round"/>
<path d="M24.4519 25.083H24.7312C26.8927 25.0831 28.5673 26.9553 28.1179 28.8681L28.0671 29.0537C27.7775 29.9959 27.388 30.8918 26.7888 31.9199L26.5193 32.3691C26.1195 33.0157 25.3859 33.3974 24.5916 33.3974C23.847 33.3974 23.1559 33.0619 22.7429 32.4873L22.6638 32.3691C22.0026 31.2996 21.5662 30.3876 21.2458 29.4551L21.116 29.0537C20.5088 27.0783 22.2206 25.0831 24.4519 25.083Z" fill="#FF6B6B" stroke="#4A4A4A"/>
<path d="M24.5915 24.877C25.4584 24.877 26.1086 23.7563 24.5915 21.9632C23.0745 23.7563 23.7246 24.877 24.5915 24.877Z" fill="#9ABD6D" stroke="#4A4A4A" stroke-linecap="round"/>
<path d="M26.2212 25.0444C26.9086 25.4487 27.9305 24.903 27.5375 22.8373C25.5246 23.4882 25.5338 24.6402 26.2212 25.0444Z" fill="#9ABD6D" stroke="#4A4A4A" stroke-linecap="round"/>
<path d="M22.9619 25.0444C22.2745 25.4487 21.2526 24.903 21.6456 22.8373C23.6585 23.4882 23.6493 24.6402 22.9619 25.0444Z" fill="#9ABD6D" stroke="#4A4A4A" stroke-linecap="round"/>
<path d="M24.5917 28.6764L24.5917 29.0493" stroke="#4A4A4A" stroke-linecap="round"/>
<path d="M24.5917 31.2871L24.5917 31.66" stroke="#4A4A4A" stroke-linecap="round"/>
<path d="M26.0865 29.7952L26.0865 30.1682" stroke="#4A4A4A" stroke-linecap="round"/>
<path d="M23.0967 29.7952L23.0967 30.1682" stroke="#4A4A4A" stroke-linecap="round"/>
<path d="M26.0865 27.1846L26.0865 27.5575" stroke="#4A4A4A" stroke-linecap="round"/>
<path d="M23.0967 27.1846L23.0967 27.5575" stroke="#4A4A4A" stroke-linecap="round"/>
<path d="M14.4696 19.8656H14.1903C12.0288 19.8657 10.3542 21.7379 10.8036 23.6507L10.8544 23.8363C11.144 24.7785 11.5335 25.6743 12.1327 26.7025L12.4022 27.1517C12.802 27.7983 13.5356 28.18 14.33 28.18C15.0746 28.18 15.7656 27.8445 16.1786 27.2699L16.2577 27.1517C16.9189 26.0822 17.3553 25.1702 17.6757 24.2377L17.8055 23.8363C18.4127 21.8609 16.7009 19.8657 14.4696 19.8656Z" fill="#FF6B6B" stroke="#4A4A4A"/>
<path d="M14.33 19.6597C13.4631 19.6597 12.8129 18.5389 14.33 16.7458C15.847 18.5389 15.1969 19.6597 14.33 19.6597Z" fill="#9ABD6D" stroke="#4A4A4A" stroke-linecap="round"/>
<path d="M12.7003 19.827C12.0129 20.2313 10.991 19.6856 11.384 17.62C13.3969 18.2708 13.3877 19.4228 12.7003 19.827Z" fill="#9ABD6D" stroke="#4A4A4A" stroke-linecap="round"/>
<path d="M15.9596 19.827C16.647 20.2313 17.6689 19.6856 17.2759 17.62C15.263 18.2708 15.2722 19.4228 15.9596 19.827Z" fill="#9ABD6D" stroke="#4A4A4A" stroke-linecap="round"/>
<path d="M14.33 23.459L14.33 23.832" stroke="#4A4A4A" stroke-linecap="round"/>
<path d="M14.33 26.0697L14.33 26.4426" stroke="#4A4A4A" stroke-linecap="round"/>
<path d="M12.835 24.5778L12.835 24.9508" stroke="#4A4A4A" stroke-linecap="round"/>
<path d="M15.8248 24.5778L15.8248 24.9508" stroke="#4A4A4A" stroke-linecap="round"/>
<path d="M12.835 21.9672L12.835 22.3401" stroke="#4A4A4A" stroke-linecap="round"/>
<path d="M15.8248 21.9672L15.8248 22.3401" stroke="#4A4A4A" stroke-linecap="round"/>
<path d="M4.24207 17.7786H3.96277C1.80125 17.7788 0.126687 19.6509 0.57605 21.5638L0.626831 21.7493C0.916452 22.6915 1.30598 23.5874 1.90515 24.6156L2.17468 25.0648C2.5745 25.7113 3.30811 26.0931 4.10242 26.0931C4.84701 26.0931 5.53811 25.7576 5.95105 25.1829L6.03015 25.0648C6.69137 23.9952 7.12773 23.0833 7.44812 22.1507L7.578 21.7493C8.18519 19.7739 6.47341 17.7787 4.24207 17.7786Z" fill="#FF6B6B" stroke="#4A4A4A"/>
<path d="M4.10247 17.5727C3.23561 17.5727 2.5854 16.452 4.10247 14.6589C5.61943 16.452 4.96933 17.5727 4.10247 17.5727Z" fill="#9ABD6D" stroke="#4A4A4A" stroke-linecap="round"/>
<path d="M2.47274 17.7401C1.78534 18.1443 0.763463 17.5986 1.15642 15.533C3.16939 16.1838 3.16014 17.3358 2.47274 17.7401Z" fill="#9ABD6D" stroke="#4A4A4A" stroke-linecap="round"/>
<path d="M5.73222 17.7401C6.41962 18.1443 7.44149 17.5986 7.04853 15.533C5.03557 16.1838 5.04481 17.3358 5.73222 17.7401Z" fill="#9ABD6D" stroke="#4A4A4A" stroke-linecap="round"/>
<path d="M4.10254 21.3721L4.10254 21.745" stroke="#4A4A4A" stroke-linecap="round"/>
<path d="M4.10254 23.9827L4.10254 24.3557" stroke="#4A4A4A" stroke-linecap="round"/>
<path d="M2.60767 22.4909L2.60767 22.8638" stroke="#4A4A4A" stroke-linecap="round"/>
<path d="M5.59753 22.4909L5.59753 22.8638" stroke="#4A4A4A" stroke-linecap="round"/>
<path d="M2.60767 19.8802L2.60767 20.2532" stroke="#4A4A4A" stroke-linecap="round"/>
<path d="M5.59753 19.8802L5.59753 20.2532" stroke="#4A4A4A" stroke-linecap="round"/>
<path d="M37.7579 11.5178H38.0372C40.1987 11.5179 41.8733 13.3901 41.424 15.3029L41.3732 15.4885C41.0835 16.4306 40.694 17.3265 40.0948 18.3547L39.8253 18.8039C39.4255 19.4505 38.6919 19.8322 37.8976 19.8322C37.153 19.8322 36.4619 19.4967 36.049 18.9221L35.9698 18.8039C35.3086 17.7344 34.8723 16.8224 34.5519 15.8898L34.422 15.4885C33.8148 13.5131 35.5266 11.5179 37.7579 11.5178Z" fill="#FF6B6B" stroke="#4A4A4A"/>
<path d="M37.8975 11.3118C38.7644 11.3118 39.4146 10.1911 37.8975 8.39797C36.3806 10.1911 37.0307 11.3118 37.8975 11.3118Z" fill="#9ABD6D" stroke="#4A4A4A" stroke-linecap="round"/>
<path d="M39.5271 11.4792C40.2145 11.8834 41.2364 11.3378 40.8435 9.27213C38.8305 9.92295 38.8397 11.075 39.5271 11.4792Z" fill="#9ABD6D" stroke="#4A4A4A" stroke-linecap="round"/>
<path d="M36.2678 11.4792C35.5804 11.8834 34.5585 11.3378 34.9515 9.27213C36.9644 9.92295 36.9552 11.075 36.2678 11.4792Z" fill="#9ABD6D" stroke="#4A4A4A" stroke-linecap="round"/>
<path d="M37.8975 15.1112L37.8975 15.4841" stroke="#4A4A4A" stroke-linecap="round"/>
<path d="M37.8975 17.7219L37.8975 18.0948" stroke="#4A4A4A" stroke-linecap="round"/>
<path d="M39.3923 16.23L39.3923 16.603" stroke="#4A4A4A" stroke-linecap="round"/>
<path d="M36.4025 16.23L36.4025 16.603" stroke="#4A4A4A" stroke-linecap="round"/>
<path d="M39.3923 13.6193L39.3923 13.9923" stroke="#4A4A4A" stroke-linecap="round"/>
<path d="M36.4025 13.6193L36.4025 13.9923" stroke="#4A4A4A" stroke-linecap="round"/>
<path d="M24.7119 45.4606C22.895 43.4069 22.7838 44.3062 20.4479 41.7391" stroke="#4A4A4A" stroke-linecap="round"/>
<path d="M25.4906 42.6368C23.1546 42.3801 23.5254 42.3817 21.7085 42.8951" stroke="#4A4A4A" stroke-linecap="round"/>
<path d="M12.005 44.4483C12.7826 42.0104 15.5537 43.7878 17.4448 41.2174" stroke="#4A4A4A" stroke-linecap="round"/>
<path d="M16.6878 47.4866C17.2231 44.8096 18.1833 45.6392 18.9086 42.2609" stroke="#4A4A4A" stroke-linecap="round"/>
<path d="M22.6356 47.2576C22.1004 44.5805 19.4675 47.042 18.7422 43.6636" stroke="#4A4A4A" stroke-linecap="round"/>
<path d="M30.5335 45.0759C28.276 43.5522 25.2224 45.0335 22.3389 43.1481" stroke="#4A4A4A" stroke-linecap="round"/>
<path d="M16.6656 46.1082C13.5138 44.823 13.5138 48.036 11.6227 46.6418" stroke="#4A4A4A" stroke-linecap="round"/>
<path d="M15.3925 42.2609C12.2407 40.9757 10.8921 41.3678 10.2617 42.544" stroke="#4A4A4A" stroke-linecap="round"/>
</svg>
