<svg width="37" height="37" viewBox="0 0 37 37" fill="none" xmlns="http://www.w3.org/2000/svg">
<path d="M6.04974 14.2699C9.50461 7.73985 18.573 7.35214 23.8163 12.5954L24.4047 13.1838C29.6479 18.427 29.2601 27.4954 22.73 30.9503C19.6384 32.586 16.4033 33.7931 12.1292 34.7974C9.37547 35.4444 6.50667 34.5055 4.5006 32.4994C2.49452 30.4933 1.55557 27.6245 2.20263 24.8707C3.20693 20.5967 4.41403 17.3616 6.04974 14.2699Z" fill="#FF6B6B"/>
<path d="M23.4913 13.5086C25.3199 15.3372 29.0509 14.3494 29.6257 7.37426C22.6507 7.94927 21.6627 11.68 23.4913 13.5086Z" fill="#9ABD6D"/>
<path d="M26.5769 17.299C27.1759 19.6 30.4803 20.6068 34 15.4292C28.3836 12.5531 25.9778 14.9979 26.5769 17.299Z" fill="#9ABD6D"/>
<path d="M19.7011 10.4231C17.4 9.8241 16.3932 6.51972 21.5708 3C24.4469 8.61639 22.0021 11.0222 19.7011 10.4231Z" fill="#9ABD6D"/>
<path d="M15.4928 21.5072L14.7077 22.2923M9.99672 27.0033L9.21156 27.7884M16.2907 27.016L15.5055 27.8012M9.98401 20.7093L9.19885 21.4944M21.7868 21.5199L21.0017 22.305M15.4801 15.2132L14.695 15.9983M4.5006 32.4994C2.49452 30.4933 1.55557 27.6245 2.20263 24.8707C3.20693 20.5967 4.41402 17.3616 6.04974 14.2699C9.50461 7.73985 18.5731 7.35214 23.8163 12.5954L24.4047 13.1838C29.6479 18.427 29.2601 27.4954 22.73 30.9503C19.6384 32.586 16.4033 33.7931 12.1292 34.7974C9.37547 35.4444 6.50667 34.5055 4.5006 32.4994ZM23.4913 13.5086C25.3199 15.3372 29.0509 14.3494 29.6257 7.37426C22.6507 7.94927 21.6627 11.68 23.4913 13.5086ZM26.5769 17.299C27.1759 19.6 30.4803 20.6068 34 15.4292C28.3836 12.5531 25.9778 14.9979 26.5769 17.299ZM19.7011 10.4231C17.4 9.8241 16.3932 6.51972 21.5708 3C24.4469 8.61639 22.0021 11.0222 19.7011 10.4231Z" stroke="#4A4A4A" stroke-width="3" stroke-linecap="round"/>
</svg>
