<svg width="24" height="49" viewBox="0 0 24 49" fill="none" xmlns="http://www.w3.org/2000/svg">
<path d="M12 20.3425L12 38.7226" stroke="#4A4A4A" stroke-linecap="round"/>
<path d="M16.3621 33.6151C14.563 33.4991 12.5846 34.51 12 35.4975M13.8139 34.2016C15.1523 36.3255 18.8275 37.1217 21.8139 33.4563C16.5882 29.1485 13.942 31.2273 13.8139 34.2016Z" stroke="#4A4A4A" stroke-linecap="round"/>
<path d="M16.3621 26.6151C14.563 26.4991 12.5846 27.51 12 28.4975M13.8139 27.2016C15.1523 29.3255 18.8275 30.1217 21.8139 26.4563C16.5882 22.1485 13.942 24.2273 13.8139 27.2016Z" stroke="#4A4A4A" stroke-linecap="round"/>
<path d="M7.72372 27.5655C9.52276 27.4495 11.4155 28.5126 12 29.5M10.2719 28.152C8.93345 30.276 5.25829 31.0721 2.27185 27.4067C7.49757 23.0989 10.1438 25.1777 10.2719 28.152Z" stroke="#4A4A4A" stroke-linecap="round"/>
<path d="M7.72372 34.5655C9.52276 34.4495 11.4155 35.5126 12 36.5M10.2719 35.152C8.93345 37.276 5.25829 38.0721 2.27185 34.4067C7.49757 30.0989 10.1438 32.1777 10.2719 35.152Z" stroke="#4A4A4A" stroke-linecap="round"/>
<path d="M11.9149 0.608398C12.8425 1.24789 13.3989 1.77258 13.7372 2.32422C14.0361 2.81176 14.1849 3.35612 14.2284 4.09473H9.5907C9.63857 3.36594 9.79846 2.82582 10.1044 2.33887C10.4527 1.78458 11.0129 1.25788 11.9149 0.608398Z" fill="#FFD700" stroke="#4A4A4A"/>
<path d="M11.9149 23.7009C12.8425 23.0614 13.3989 22.5367 13.7372 21.9851C14.0361 21.4976 14.1849 20.9532 14.2284 20.2146H9.5907C9.63857 20.9434 9.79846 21.4835 10.1044 21.9705C10.4527 22.5247 11.0129 23.0514 11.9149 23.7009Z" fill="#FFD700" stroke="#4A4A4A"/>
<path d="M23.3965 12.068C22.7619 13.0137 22.2428 13.5803 21.6973 13.9235C21.2197 14.2238 20.6869 14.3731 19.9639 14.4176L19.9639 9.70862C20.677 9.75758 21.2056 9.91776 21.6826 10.2252C22.2308 10.5785 22.7521 11.1488 23.3965 12.068Z" fill="#FFD700" stroke="#4A4A4A"/>
<path d="M0.603516 12.068C1.23813 13.0137 1.75725 13.5803 2.30273 13.9235C2.78025 14.2238 3.31311 14.3731 4.03613 14.4176L4.03613 9.70862C3.32301 9.75758 2.79443 9.91776 2.31738 10.2252C1.76919 10.5785 1.24793 11.1488 0.603516 12.068Z" fill="#FFD700" stroke="#4A4A4A"/>
<path d="M18.2085 2.16938C18.5973 3.23818 18.75 3.99351 18.7085 4.64192C18.6719 5.21308 18.4812 5.7419 18.0939 6.36686L14.318 3.63401C14.7741 3.07109 15.212 2.7263 15.739 2.51078C16.3407 2.26472 17.1 2.16651 18.2085 2.16938Z" fill="#FFD700" stroke="#4A4A4A"/>
<path d="M18.2085 22.1399C18.5973 21.0711 18.75 20.3158 18.7085 19.6674C18.6719 19.0963 18.4812 18.5674 18.0939 17.9425L14.318 20.6753C14.7741 21.2382 15.212 21.583 15.739 21.7985C16.3407 22.0446 17.1 22.1428 18.2085 22.1399Z" fill="#FFD700" stroke="#4A4A4A"/>
<path d="M21.8573 18.4436C20.8004 18.8382 20.0535 18.9925 19.4132 18.9505C18.8507 18.9135 18.33 18.7208 17.7144 18.3297L20.4148 14.5018C20.9691 14.9628 21.3079 15.4057 21.5202 15.9383C21.7634 16.5483 21.8604 17.3182 21.8573 18.4436Z" fill="#FFD700" stroke="#4A4A4A"/>
<path d="M2.14271 18.4436C3.19958 18.8382 3.94646 18.9925 4.5868 18.9505C5.14928 18.9135 5.67003 18.7208 6.28558 18.3297L3.58516 14.5018C3.03094 14.9628 2.69206 15.4057 2.47977 15.9383C2.23665 16.5483 2.13962 17.3182 2.14271 18.4436Z" fill="#FFD700" stroke="#4A4A4A"/>
<path d="M6.05478 2.16938C5.66601 3.23818 5.51331 3.99351 5.55479 4.64192C5.59136 5.21308 5.78208 5.7419 6.16936 6.36686L9.9453 3.63401C9.48919 3.07109 9.0513 2.7263 8.52434 2.51078C7.92257 2.26472 7.16331 2.16651 6.05478 2.16938Z" fill="#FFD700" stroke="#4A4A4A"/>
<path d="M6.05478 22.1399C5.66601 21.0711 5.51331 20.3158 5.55479 19.6674C5.59136 19.0963 5.78208 18.5674 6.16936 17.9425L9.9453 20.6753C9.48919 21.2382 9.0513 21.583 8.52434 21.7985C7.92257 22.0446 7.16331 22.1428 6.05478 22.1399Z" fill="#FFD700" stroke="#4A4A4A"/>
<path d="M21.8573 6.13254C20.8004 5.73793 20.0535 5.58363 19.4132 5.62565C18.8507 5.66263 18.33 5.85532 17.7144 6.24641L20.4148 10.0743C20.9691 9.61329 21.3079 9.17042 21.5202 8.63784C21.7634 8.02784 21.8604 7.25793 21.8573 6.13254Z" fill="#FFD700" stroke="#4A4A4A"/>
<path d="M2.14271 6.13254C3.19958 5.73793 3.94645 5.58363 4.5868 5.62565C5.14928 5.66263 5.67003 5.85532 6.28558 6.24641L3.58516 10.0743C3.03094 9.61329 2.69206 9.17042 2.47977 8.63784C2.23665 8.02784 2.13962 7.25793 2.14271 6.13254Z" fill="#FFD700" stroke="#4A4A4A"/>
<path d="M11.9082 3.94629C16.3237 3.94629 19.9138 7.57351 19.9141 12.0615C19.9141 16.5497 16.3238 20.1777 11.9082 20.1777C7.49269 20.1776 3.90234 16.5497 3.90234 12.0615C3.90257 7.57357 7.49283 3.94638 11.9082 3.94629Z" fill="#3A3A3A" stroke="#4A4A4A"/>
<ellipse cx="6.02509" cy="14.2397" rx="0.401674" ry="0.40685" fill="#4A4A4A"/>
<ellipse cx="6.02509" cy="11.7987" rx="0.401674" ry="0.40685" fill="#4A4A4A"/>
<ellipse cx="6.02509" cy="9.35753" rx="0.401674" ry="0.40685" fill="#4A4A4A"/>
<ellipse cx="8.43524" cy="16.6809" rx="0.401674" ry="0.40685" fill="#4A4A4A"/>
<ellipse cx="6.02509" cy="16.6809" rx="0.401674" ry="0.40685" fill="#4A4A4A"/>
<ellipse cx="0.401674" cy="0.40685" rx="0.401674" ry="0.40685" transform="matrix(1 0 0 -1 8.03357 7.3233)" fill="#4A4A4A"/>
<ellipse cx="0.401674" cy="0.40685" rx="0.401674" ry="0.40685" transform="matrix(1 0 0 -1 5.62341 7.3233)" fill="#4A4A4A"/>
<ellipse cx="13.2552" cy="19.1219" rx="0.401674" ry="0.40685" fill="#4A4A4A"/>
<ellipse cx="15.6653" cy="19.1219" rx="0.401674" ry="0.40685" fill="#4A4A4A"/>
<ellipse cx="0.401674" cy="0.40685" rx="0.401674" ry="0.40685" transform="matrix(1 0 0 -1 12.8535 4.8822)" fill="#4A4A4A"/>
<ellipse cx="10.8452" cy="19.1219" rx="0.401674" ry="0.40685" fill="#4A4A4A"/>
<ellipse cx="8.43524" cy="19.1219" rx="0.401674" ry="0.40685" fill="#4A4A4A"/>
<ellipse cx="0.401674" cy="0.40685" rx="0.401674" ry="0.40685" transform="matrix(1 0 0 -1 10.4435 4.8822)" fill="#4A4A4A"/>
<ellipse cx="13.2552" cy="16.6809" rx="0.401674" ry="0.40685" fill="#4A4A4A"/>
<ellipse cx="0.401674" cy="0.40685" rx="0.401674" ry="0.40685" transform="matrix(1 0 0 -1 12.8535 7.3233)" fill="#4A4A4A"/>
<ellipse cx="15.6653" cy="16.6809" rx="0.401674" ry="0.40685" fill="#4A4A4A"/>
<ellipse cx="18.0753" cy="16.6809" rx="0.401674" ry="0.40685" fill="#4A4A4A"/>
<ellipse cx="0.401674" cy="0.40685" rx="0.401674" ry="0.40685" transform="matrix(1 0 0 -1 15.2637 7.3233)" fill="#4A4A4A"/>
<ellipse cx="0.401674" cy="0.40685" rx="0.401674" ry="0.40685" transform="matrix(1 0 0 -1 17.6736 7.3233)" fill="#4A4A4A"/>
<ellipse cx="18.0753" cy="14.2397" rx="0.401674" ry="0.40685" fill="#4A4A4A"/>
<ellipse cx="18.0753" cy="11.7987" rx="0.401674" ry="0.40685" fill="#4A4A4A"/>
<ellipse cx="18.0753" cy="9.35753" rx="0.401674" ry="0.40685" fill="#4A4A4A"/>
<ellipse cx="15.6653" cy="14.2397" rx="0.401674" ry="0.40685" fill="#4A4A4A"/>
<ellipse cx="15.6653" cy="11.7987" rx="0.401674" ry="0.40685" fill="#4A4A4A"/>
<ellipse cx="15.6653" cy="9.35753" rx="0.401674" ry="0.40685" fill="#4A4A4A"/>
<ellipse cx="13.2552" cy="14.2397" rx="0.401674" ry="0.40685" fill="#4A4A4A"/>
<ellipse cx="13.2552" cy="11.7987" rx="0.401674" ry="0.40685" fill="#4A4A4A"/>
<ellipse cx="13.2552" cy="9.35753" rx="0.401674" ry="0.40685" fill="#4A4A4A"/>
<ellipse cx="10.8452" cy="14.2397" rx="0.401674" ry="0.40685" fill="#4A4A4A"/>
<ellipse cx="10.8452" cy="11.7987" rx="0.401674" ry="0.40685" fill="#4A4A4A"/>
<ellipse cx="10.8452" cy="9.35753" rx="0.401674" ry="0.40685" fill="#4A4A4A"/>
<ellipse cx="10.8452" cy="16.6809" rx="0.401674" ry="0.40685" fill="#4A4A4A"/>
<ellipse cx="0.401674" cy="0.40685" rx="0.401674" ry="0.40685" transform="matrix(1 0 0 -1 10.4435 7.3233)" fill="#4A4A4A"/>
<ellipse cx="8.43524" cy="14.2397" rx="0.401674" ry="0.40685" fill="#4A4A4A"/>
<ellipse cx="8.43524" cy="11.7987" rx="0.401674" ry="0.40685" fill="#4A4A4A"/>
<ellipse cx="8.43524" cy="9.35753" rx="0.401674" ry="0.40685" fill="#4A4A4A"/>
<path d="M18.7444 43.6094C15.9444 40.4787 15.5444 42.8267 11.9444 38.9134" stroke="#4A4A4A" stroke-linecap="round"/>
<path d="M20 41.5629C18.5 41 17 41 16 41.5629" stroke="#4A4A4A" stroke-linecap="round"/>
<path d="M12.7999 48C12.4 46.7898 12 43.9663 10.3998 43.1597" stroke="#4A4A4A" stroke-linecap="round"/>
<path d="M5.78207 45.6816C6.61414 44.7208 8.82555 42.9426 8.70453 41.1428" stroke="#4A4A4A" stroke-linecap="round"/>
<path d="M4.74449 43.4186C7.54452 40.288 8.40006 42.6359 12 38.7226" stroke="#4A4A4A" stroke-linecap="round"/>
<path d="M8.43394 47.6811C9.25883 43.6002 10.8823 43.8726 12 38.7226" stroke="#4A4A4A" stroke-linecap="round"/>
<path d="M17.6 47.3319C16.7752 43.251 12.7176 45.4861 11.6 40.336" stroke="#4A4A4A" stroke-linecap="round"/>
</svg>
