<svg width="39" height="50" viewBox="0 0 39 50" fill="none" xmlns="http://www.w3.org/2000/svg">
<path d="M27.3531 46.615C24.824 43.7888 21.7516 43.2614 18.5 39.7286" stroke="#4A4A4A" stroke-width="2" stroke-linecap="round"/>
<path d="M28.437 42.729C25.1854 42.3757 25.029 42.0399 22.5 42.7465" stroke="#4A4A4A" stroke-width="2" stroke-linecap="round"/>
<path d="M10.3725 46.4428C12.9015 43.6166 14.7484 43.2614 18 39.7286" stroke="#4A4A4A" stroke-width="2" stroke-linecap="round"/>
<path d="M15.8726 48.8776C16.6177 45.1936 17.4905 44.3778 18.5 39.7286" stroke="#4A4A4A" stroke-width="2" stroke-linecap="round"/>
<path d="M24.1516 48.5624C23.4066 44.8784 19.0095 46.8926 18 42.2435" stroke="#4A4A4A" stroke-width="2" stroke-linecap="round"/>
<path d="M26.6104 31.699C23.6439 31.5026 19.414 33.4132 18.45 35.0844M10.9898 34.2748C13.9562 34.0784 17.1478 36.2076 18.1117 37.8786M22.4088 32.6916C24.6157 36.2861 30.6757 37.6335 35.6001 31.4303C26.9833 24.1399 22.6199 27.6581 22.4088 32.6916ZM15.1913 35.2673C12.9844 38.8618 6.92438 40.2093 2 34.0061C10.6167 26.7157 14.9801 30.2339 15.1913 35.2673Z" stroke="#4A4A4A" stroke-width="2" stroke-linecap="round"/>
<path d="M28.0103 18.2073C25.0438 18.0109 21.1639 20.2765 20.1999 21.9477M12.3897 20.783C15.3561 20.5867 18.186 23.472 19.1499 25.1431M23.8087 19.1998C26.0156 22.7944 32.0756 24.1418 37 17.9386C28.3832 10.6482 24.0198 14.1664 23.8087 19.1998ZM16.5912 21.7756C14.3843 25.3701 8.32428 26.7175 3.3999 20.5143C12.0166 13.2239 16.38 16.7421 16.5912 21.7756Z" stroke="#4A4A4A" stroke-width="2" stroke-linecap="round"/>
<path d="M18.45 39.7C16.7373 33.9338 22.9898 15.6339 19.85 13.0715" stroke="#4A4A4A" stroke-width="2" stroke-linecap="round"/>
<path d="M19.6952 14.9629C22.5467 11.8701 22.2613 5.58348 15.0801 2.36382C10.3683 12.6938 14.8477 16.0587 19.6952 14.9629Z" fill="#FFD700" stroke="#4A4A4A" stroke-width="2" stroke-linecap="round"/>
<path d="M19.7189 15.3713C23.7449 14.2519 26.7479 8.745 22.293 2.18669C12.9455 8.48271 15.0237 13.7292 19.7189 15.3713Z" stroke="#4A4A4A" stroke-width="2" stroke-linecap="round"/>
<path d="M21.7744 12.6599C21.4296 8.4397 16.6454 4.43324 9.47162 7.66993C13.8545 18.1479 19.3202 17.0398 21.7744 12.6599Z" stroke="#4A4A4A" stroke-width="2" stroke-linecap="round"/>
</svg>
