<svg width="36" height="34" viewBox="0 0 36 34" fill="none" xmlns="http://www.w3.org/2000/svg">
<path d="M17.7612 1.5C18.4181 1.5 19.1602 1.79715 19.9653 2.52637C20.7733 3.25817 21.5603 4.35509 22.2524 5.73926C23.6378 8.50981 24.5102 12.1667 24.5103 15.5508C24.5103 18.9166 23.6506 21.1814 22.4546 22.5801C21.2769 23.9573 19.6493 24.6436 17.7612 24.6436C15.8662 24.6435 14.2394 23.9649 13.0649 22.6016C11.8724 21.2171 11.0122 18.9675 11.0122 15.6016C11.0123 12.2174 11.8847 8.54697 13.271 5.7627C13.9637 4.37158 14.7514 3.26756 15.5601 2.53125C16.366 1.79735 17.1074 1.50004 17.7612 1.5Z" fill="#3A3A3A" stroke="#4A4A4A" stroke-width="3"/>
<path d="M17.7612 1.68668C20.1014 8.54902 21.7287 12.2588 20.236 18.5537" stroke="#4A4A4A" stroke-width="3" stroke-linecap="round"/>
<path d="M17.5107 1.68668C15.1706 8.54902 13.794 12.2588 15.2867 18.5537" stroke="#4A4A4A" stroke-width="3" stroke-linecap="round"/>
<path d="M30.9433 25.9011C27.4125 32.1533 22.5642 33.1869 18.6186 30.858C14.6731 28.5292 13.0996 23.7639 16.6304 17.5117C20.1612 11.2595 27.4593 5.88791 31.4049 8.21676C35.3504 10.5456 34.4741 19.6489 30.9433 25.9011Z" fill="#3A3A3A"/>
<path d="M30.5799 9.67746C29.2504 16.8167 28.8453 20.8613 24.474 25.5498M30.3628 9.54932C24.98 14.2961 21.9735 16.8052 20.1876 23.0197M30.9433 25.9011C27.4125 32.1533 22.5642 33.1869 18.6186 30.858C14.6731 28.5292 13.0996 23.7639 16.6304 17.5117C20.1612 11.2595 27.4593 5.88791 31.4049 8.21676C35.3504 10.5456 34.4741 19.6489 30.9433 25.9011Z" stroke="#4A4A4A" stroke-width="3" stroke-linecap="round"/>
<path d="M5.05666 25.9011C8.58748 32.1533 13.4358 33.1869 17.3813 30.858C21.3268 28.5292 22.9004 23.7639 19.3696 17.5117C15.8387 11.2595 8.54061 5.88791 4.59509 8.21676C0.649574 10.5456 1.52585 19.6489 5.05666 25.9011Z" fill="#3A3A3A"/>
<path d="M5.42005 9.67746C6.74959 16.8167 7.15459 20.8613 11.526 25.5498M5.63715 9.54932C11.02 14.2961 14.0265 16.8052 15.8124 23.0197M5.05667 25.9011C8.58748 32.1533 13.4358 33.1869 17.3813 30.858C21.3268 28.5292 22.9004 23.7639 19.3696 17.5117C15.8387 11.2595 8.54061 5.88791 4.59509 8.21676C0.649574 10.5456 1.52585 19.6489 5.05667 25.9011Z" stroke="#4A4A4A" stroke-width="3" stroke-linecap="round"/>
</svg>
