<svg width="54" height="40" viewBox="0 0 54 40" fill="none" xmlns="http://www.w3.org/2000/svg">
<path d="M32.1553 9.63026C35.308 14.6923 43.9652 16.5898 51 7.8541C38.6904 -2.41276 32.457 2.54179 32.1553 9.63026Z" fill="#9ABD6D"/>
<path d="M21.8447 13.2576C18.692 18.3197 10.0348 20.2172 3 11.4815C15.3096 1.2146 21.543 6.16915 21.8447 13.2576Z" fill="#9ABD6D"/>
<path d="M38.1576 8.23254C33.9198 7.95595 28.6841 10.2297 27.3071 12.5832M15.8425 11.8598C20.0802 11.5833 24.6397 14.5817 26.0167 16.9351M32.1553 9.63026C35.308 14.6923 43.9652 16.5898 51 7.8541C38.6904 -2.41276 32.457 2.54179 32.1553 9.63026ZM21.8447 13.2576C18.692 18.3197 10.0348 20.2172 3 11.4815C15.3096 1.2146 21.543 6.16915 21.8447 13.2576Z" stroke="#4A4A4A" stroke-width="3" stroke-linecap="round"/>
<path d="M35.2699 33.9075C35.2699 34.2766 35.1079 34.7388 34.6244 35.2835C34.1377 35.8317 33.3898 36.3841 32.4193 36.8792C30.4749 37.8712 27.8946 38.5003 25.5121 38.5003C23.1501 38.5002 21.6211 37.885 20.7045 37.0853C19.8058 36.3012 19.3442 35.2104 19.3441 33.9075C19.3441 32.5977 19.8013 31.5069 20.6898 30.7259C21.5959 29.9296 23.1137 29.3148 25.476 29.3148C27.8586 29.3148 30.4482 29.944 32.4027 30.9368C33.3785 31.4325 34.1316 31.9856 34.6215 32.5345C35.1083 33.0801 35.2699 33.5414 35.2699 33.9075Z" fill="#3A3A3A" stroke="#4A4A4A" stroke-width="3"/>
<path d="M26.4469 29.1203C21.9661 20.6732 31.2095 8.79353 26.7241 5.185" stroke="#4A4A4A" stroke-width="3" stroke-linecap="round"/>
</svg>
