<svg width="42" height="48" viewBox="0 0 42 48" fill="none" xmlns="http://www.w3.org/2000/svg">
<path d="M7.4834 35.7103C9.23645 34.8247 10.8841 34.7555 12.1611 35.5696C15.2558 37.5426 16.4001 41.8389 14.6895 45.1107C14.1319 46.1769 12.631 46.7375 10.0664 46.4085C7.64065 46.0974 4.9792 45.0445 3.27539 43.9583C2.36349 43.3769 1.86193 43.0283 1.58301 42.7786C1.63913 42.6693 1.73069 42.5002 1.88184 42.2484C2.20187 41.7151 2.69526 40.9373 3.23926 39.8968C4.13068 38.1919 5.72976 36.5961 7.4834 35.7103Z" fill="#F5E6C9" stroke="#4A4A4A" stroke-width="3"/>
<path d="M38.3349 21.077C33.5126 25.2407 26.9947 25.6688 22.0649 23.9957C21.9578 26.7905 21.2578 29.5178 19.6843 31.4719C12.7732 28.7912 12.9499 19.4698 15.01 14.725C15.6301 9.59108 20.1896 1.45388 27.5116 2.61864C27.8825 5.09785 27.108 7.80541 25.7878 10.2723C30.8902 11.3096 36.3012 14.9616 38.36 20.9846C38.3454 20.9972 38.3301 21.009 38.3155 21.0216C38.3219 21.04 38.3286 21.0584 38.3349 21.077Z" fill="#9ABD6D" stroke="#4A4A4A" stroke-width="3" stroke-linecap="round"/>
<path d="M7.99071 35.5153C0.532682 20.8594 10.1216 12.1745 22.9068 16.517" stroke="#4A4A4A" stroke-width="3" stroke-linecap="round"/>
</svg>
