<svg width="36" height="36" viewBox="0 0 36 36" fill="none" xmlns="http://www.w3.org/2000/svg">
<path d="M25.2 9.18721C30.4208 11.3616 34 15.648 34 20.8C34 28.0896 26.8368 34 18 34C9.1632 34 2 28.0896 2 20.8C2 15.648 5.5792 11.36 10.8 9.18721" fill="#FF6B6B"/>
<path d="M25.2 9.18721C30.4208 11.3616 34 15.648 34 20.8C34 28.0896 26.8368 34 18 34C9.1632 34 2 28.0896 2 20.8C2 15.648 5.5792 11.36 10.8 9.18721" stroke="#4A4A4A" stroke-width="3" stroke-linecap="round" stroke-linejoin="round"/>
<path d="M21.0464 6.0928L18 2L14.952 6.0928L8 6.728L13.0704 10.3872L11.6 15.6L18 13.2L24.4 15.6L22.9296 10.3872L28 6.728L21.0464 6.0928Z" fill="#9ABD6D" stroke="#4A4A4A" stroke-width="3" stroke-linecap="round" stroke-linejoin="round"/>
</svg>
