<svg width="45" height="48" viewBox="0 0 45 48" fill="none" xmlns="http://www.w3.org/2000/svg">
<path d="M21.1503 40.0496C21.5049 39.873 21.8027 39.8755 22.0175 40.0105C22.6237 40.3916 22.8458 41.2238 22.5136 41.8503C22.4462 41.9774 22.2217 42.1131 21.665 42.0427C21.1565 41.9783 20.5937 41.7584 20.2382 41.5349C20.1339 41.4693 20.0573 41.4193 20.0009 41.3806C20.07 41.2681 20.1764 41.1016 20.291 40.8855C20.47 40.5477 20.7957 40.2262 21.1503 40.0496Z" fill="#F5E6C9" stroke="#4A4A4A"/>
<path d="M21.2714 40.0287C14.8908 27.9195 27.657 11.3311 21.2699 6.1582" stroke="#4A4A4A" stroke-linecap="round"/>
<path d="M36.0144 24.0172C35.4001 19.7064 27.208 19.3362 20.6571 24.0172" stroke="#4A4A4A" stroke-linecap="round"/>
<path d="M27.4145 27.0964C24.9573 24.6331 27.4143 23.4014 25.5715 21.554" stroke="#4A4A4A" stroke-linecap="round"/>
<path d="M16.3572 21.6876C13.9 19.0906 13.9 16.1452 17.5858 16.1452" stroke="#4A4A4A" stroke-linecap="round"/>
<path d="M6.52845 18.2346C7.14273 13.9238 15.3349 13.5536 21.8857 18.2346" stroke="#4A4A4A" stroke-linecap="round"/>
<path d="M38.4716 12.0763C37.8573 7.76551 29.6652 7.39532 23.1143 12.0763" stroke="#4A4A4A" stroke-linecap="round"/>
<path d="M38.8429 25.6178C40.4484 26.2865 41.5491 27.6047 41.5491 29.1891C41.5491 31.4308 39.3463 33.2484 36.6287 33.2484C33.9111 33.2484 31.7083 31.4308 31.7083 29.1891C31.7083 27.6047 32.809 26.286 34.4145 25.6178" fill="#FF6B6B"/>
<path d="M38.8429 25.6178C40.4484 26.2865 41.5491 27.6047 41.5491 29.1891C41.5491 31.4308 39.3463 33.2484 36.6287 33.2484C33.9111 33.2484 31.7083 31.4308 31.7083 29.1891C31.7083 27.6047 32.809 26.286 34.4145 25.6178" stroke="#4A4A4A" stroke-linecap="round" stroke-linejoin="round"/>
<path d="M37.5655 24.6662L36.6286 23.4075L35.6913 24.6662L33.5533 24.8615L35.1126 25.9868L34.6604 27.5899L36.6286 26.8518L38.5968 27.5899L38.1446 25.9868L39.7039 24.8615L37.5655 24.6662Z" fill="#9ABD6D" stroke="#4A4A4A" stroke-linecap="round" stroke-linejoin="round"/>
<path d="M29.0143 28.0811C30.6198 28.7498 31.7205 30.068 31.7205 31.6524C31.7205 33.8941 29.5176 35.7117 26.8001 35.7117C24.0825 35.7117 21.8796 33.8941 21.8796 31.6524C21.8796 30.068 22.9803 28.7493 24.5859 28.0811" fill="#FF6B6B"/>
<path d="M29.0143 28.0811C30.6198 28.7498 31.7205 30.068 31.7205 31.6524C31.7205 33.8941 29.5176 35.7117 26.8001 35.7117C24.0825 35.7117 21.8796 33.8941 21.8796 31.6524C21.8796 30.068 22.9803 28.7493 24.5859 28.0811" stroke="#4A4A4A" stroke-linecap="round" stroke-linejoin="round"/>
<path d="M27.737 27.1295L26.8001 25.8708L25.8628 27.1295L23.7249 27.3248L25.2841 28.4501L24.832 30.0532L26.8001 29.3152L28.7683 30.0532L28.3161 28.4501L29.8754 27.3248L27.737 27.1295Z" fill="#9ABD6D" stroke="#4A4A4A" stroke-linecap="round" stroke-linejoin="round"/>
<path d="M14.7572 22.6724C13.1517 23.3411 12.051 24.6593 12.051 26.2437C12.051 28.4854 14.2538 30.3031 16.9714 30.3031C19.689 30.3031 21.8918 28.4854 21.8918 26.2437C21.8918 24.6593 20.7911 23.3406 19.1856 22.6724" fill="#FF6B6B"/>
<path d="M14.7572 22.6724C13.1517 23.3411 12.051 24.6593 12.051 26.2437C12.051 28.4854 14.2538 30.3031 16.9714 30.3031C19.689 30.3031 21.8918 28.4854 21.8918 26.2437C21.8918 24.6593 20.7911 23.3406 19.1856 22.6724" stroke="#4A4A4A" stroke-linecap="round" stroke-linejoin="round"/>
<path d="M16.0345 21.7208L16.9714 20.4622L17.9087 21.7208L20.0466 21.9162L18.4873 23.0415L18.9395 24.6445L16.9714 23.9065L15.0032 24.6445L15.4554 23.0415L13.8961 21.9162L16.0345 21.7208Z" fill="#9ABD6D" stroke="#4A4A4A" stroke-linecap="round" stroke-linejoin="round"/>
<path d="M3.70618 19.8352C2.10063 20.5039 0.999931 21.8221 0.999931 23.4065C0.999931 25.6482 3.20281 27.4658 5.92038 27.4658C8.63794 27.4658 10.8408 25.6482 10.8408 23.4065C10.8408 21.8221 9.74012 20.5034 8.13458 19.8352" fill="#FF6B6B"/>
<path d="M3.70618 19.8352C2.10063 20.5039 0.999931 21.8221 0.999931 23.4065C0.999931 25.6482 3.20281 27.4658 5.92038 27.4658C8.63794 27.4658 10.8408 25.6482 10.8408 23.4065C10.8408 21.8221 9.74012 20.5034 8.13458 19.8352" stroke="#4A4A4A" stroke-linecap="round" stroke-linejoin="round"/>
<path d="M4.98347 18.8836L5.92033 17.6249L6.85767 18.8836L8.99561 19.0789L7.43632 20.2042L7.88851 21.8073L5.92033 21.0693L3.95215 21.8073L4.40434 20.2042L2.84505 19.0789L4.98347 18.8836Z" fill="#9ABD6D" stroke="#4A4A4A" stroke-linecap="round" stroke-linejoin="round"/>
<path d="M41.2938 13.6769C42.8994 14.3456 44.0001 15.6638 44.0001 17.2482C44.0001 19.49 41.7972 21.3076 39.0796 21.3076C36.3621 21.3076 34.1592 19.49 34.1592 17.2482C34.1592 15.6638 35.2599 14.3451 36.8654 13.6769" fill="#FF6B6B"/>
<path d="M41.2938 13.6769C42.8994 14.3456 44.0001 15.6638 44.0001 17.2482C44.0001 19.49 41.7972 21.3076 39.0796 21.3076C36.3621 21.3076 34.1592 19.49 34.1592 17.2482C34.1592 15.6638 35.2599 14.3451 36.8654 13.6769" stroke="#4A4A4A" stroke-linecap="round" stroke-linejoin="round"/>
<path d="M40.0165 12.7253L39.0797 11.4667L38.1423 12.7253L36.0044 12.9207L37.5637 14.046L37.1115 15.6491L39.0797 14.911L41.0479 15.6491L40.5957 14.046L42.155 12.9207L40.0165 12.7253Z" fill="#9ABD6D" stroke="#4A4A4A" stroke-linecap="round" stroke-linejoin="round"/>
<path d="M10.8345 6.41158C11.9783 7.29681 13.5242 7.38782 14.6934 7.03211C14.7188 7.6263 14.8848 8.20614 15.258 8.62159C16.8972 8.05165 16.8553 6.06989 16.3666 5.06113C16.2196 3.96963 15.1382 2.23963 13.4015 2.48726C13.3136 3.01435 13.4973 3.58999 13.8104 4.11446C12.6002 4.335 11.3169 5.11142 10.8286 6.39194C10.832 6.39462 10.8356 6.39713 10.8391 6.3998C10.8376 6.40373 10.836 6.40764 10.8345 6.41158Z" fill="#9ABD6D"/>
<path d="M21.2714 6.15828C19.5939 5.06113 16.6892 4.81455 14.4937 5.44211M10.8345 6.41158C11.9783 7.29681 13.5242 7.38782 14.6934 7.03211C14.7188 7.6263 14.8848 8.20614 15.258 8.62159C16.8972 8.05165 16.8553 6.06989 16.3666 5.06113C16.2196 3.96963 15.1382 2.23963 13.4015 2.48726C13.3136 3.01435 13.4973 3.58999 13.8104 4.11446C12.6002 4.335 11.3169 5.11142 10.8286 6.39194C10.832 6.39462 10.8356 6.39713 10.8391 6.3998C10.8376 6.40373 10.836 6.40764 10.8345 6.41158Z" stroke="#4A4A4A" stroke-linecap="round"/>
<path d="M31.6649 3.42228C31.1159 4.76222 29.8225 5.61592 28.6325 5.89395C28.9069 6.42127 29.0523 7.00664 28.9363 7.5535C27.2325 7.88155 26.2804 6.14429 26.2004 5.02576C25.7834 4.00677 25.8571 1.96648 27.4845 1.31045C27.8236 1.72284 27.9516 2.31343 27.942 2.92459C29.1001 2.50898 30.5987 2.53809 31.6603 3.40229C31.6586 3.40634 31.6567 3.41033 31.6551 3.41438C31.6583 3.41703 31.6616 3.41962 31.6649 3.42228Z" fill="#9ABD6D"/>
<path d="M23.1143 8.62158C24.0198 6.83057 25.7981 4.97388 28.0124 4.41688M31.6649 3.42228C31.1159 4.76222 29.8225 5.61592 28.6325 5.89395C28.9069 6.42127 29.0523 7.00664 28.9363 7.5535C27.2325 7.88155 26.2804 6.14429 26.2004 5.02576C25.7834 4.00677 25.8571 1.96648 27.4845 1.31045C27.8236 1.72284 27.9516 2.31343 27.942 2.92459C29.1001 2.50898 30.5987 2.53809 31.6603 3.40229C31.6586 3.40634 31.6567 3.41033 31.6551 3.41438C31.6583 3.41703 31.6616 3.41962 31.6649 3.42228Z" stroke="#4A4A4A" stroke-linecap="round"/>
<path d="M31.6466 19.5159C30.2145 19.7092 28.8304 19.0131 27.9952 18.119C27.6768 18.6208 27.2439 19.0398 26.7134 19.2125C25.5782 17.8973 26.6029 16.202 27.5291 15.5733C28.2009 14.7018 30.0002 13.7456 31.3807 14.8306C31.194 15.3311 30.7478 15.7376 30.215 16.0348C31.1531 16.8324 31.8773 18.1481 31.6615 19.5018C31.6572 19.5024 31.6528 19.5028 31.6484 19.5033C31.6478 19.5075 31.6472 19.5117 31.6466 19.5159Z" fill="#9ABD6D"/>
<path d="M23.1142 14.7798C25.1142 14.6705 27.3728 15.1981 28.9611 16.8421M31.6466 19.5159C30.2145 19.7092 28.8304 19.0131 27.9952 18.119C27.6768 18.6208 27.2439 19.0398 26.7134 19.2125C25.5782 17.8973 26.6029 16.202 27.5291 15.5733C28.2009 14.7018 30.0002 13.7456 31.3807 14.8306C31.194 15.3311 30.7478 15.7376 30.215 16.0348C31.1531 16.8324 31.8773 18.1481 31.6615 19.5018C31.6572 19.5024 31.6528 19.5028 31.6484 19.5033C31.6478 19.5075 31.6472 19.5117 31.6466 19.5159Z" stroke="#4A4A4A" stroke-linecap="round"/>
<path d="M26.6554 45.5664C24.8848 43.5983 24.7765 44.4602 22.5001 42" stroke="#4A4A4A" stroke-linecap="round"/>
<path d="M27.4143 42.8602C25.1379 42.6142 25.4992 42.6158 23.7286 43.1078" stroke="#4A4A4A" stroke-linecap="round"/>
<path d="M14.9852 44.8284C15.7429 42.492 18.2001 43.7237 20.0429 41.2604" stroke="#4A4A4A" stroke-linecap="round"/>
<path d="M18.8359 47.508C19.3575 44.9425 20.2932 45.7376 21 42.5" stroke="#4A4A4A" stroke-linecap="round"/>
<path d="M24.632 47.2885C24.1104 44.723 21.5447 47.0819 20.8379 43.8443" stroke="#4A4A4A" stroke-linecap="round"/>
<path d="M32.3285 45.1977C30.1286 43.7375 27.1529 45.1571 24.3428 43.3503" stroke="#4A4A4A" stroke-linecap="round"/>
<path d="M18.8143 46.187C15.7428 44.9554 15.7428 48.0345 13.9 46.6984" stroke="#4A4A4A" stroke-linecap="round"/>
<path d="M18.2005 42.492C15.1291 41.2604 13.9005 41.8762 13.2862 43.0034" stroke="#4A4A4A" stroke-linecap="round"/>
</svg>
