<svg width="52" height="50" viewBox="0 0 52 50" fill="none" xmlns="http://www.w3.org/2000/svg">
<path d="M25.8895 31.9081C27.0838 31.3325 28.2221 31.2822 29.1034 31.8183C31.2021 33.0952 31.9453 35.8387 30.8104 37.9101C30.62 38.2575 30.2868 38.5132 29.7499 38.665C29.1957 38.8215 28.4757 38.8488 27.6522 38.748C26.0018 38.5459 24.1953 37.863 23.0399 37.1601C22.4537 36.8034 22.1181 36.5805 21.9237 36.4208C21.9657 36.3455 22.0217 36.2505 22.0995 36.1269C22.3155 35.7835 22.6496 35.2796 23.0184 34.6064C23.6167 33.5146 24.6962 32.4834 25.8895 31.9081Z" fill="#F5E6C9" stroke="#4A4A4A" stroke-width="2"/>
<path d="M49.983 22.4234C46.7203 25.1119 42.3105 25.3883 38.9751 24.308C38.9026 26.1126 38.429 27.8735 37.3644 29.1353C32.6885 27.4044 32.808 21.3857 34.2019 18.3221C34.6214 15.0072 37.7063 9.7532 42.6602 10.5053C42.9111 12.106 42.3871 13.8543 41.4939 15.4471C44.9461 16.1169 48.6071 18.4749 50 22.3638C49.9901 22.3719 49.9798 22.3796 49.9699 22.3877C49.9742 22.3996 49.9788 22.4115 49.983 22.4234Z" fill="#9ABD6D"/>
<path d="M26 21.5C28.1312 20.6048 33.2818 17.5733 39.5447 19.4792M49.983 22.4234C46.7203 25.1119 42.3105 25.3883 38.9751 24.308C38.9026 26.1126 38.429 27.8735 37.3644 29.1353C32.6885 27.4044 32.808 21.3857 34.2019 18.3221C34.6214 15.0072 37.7063 9.7532 42.6602 10.5053C42.9111 12.106 42.3871 13.8543 41.4939 15.4471C44.9461 16.1169 48.6071 18.4749 50 22.3638C49.9901 22.3719 49.9798 22.3796 49.9699 22.3877C49.9742 22.3996 49.9788 22.4115 49.983 22.4234Z" stroke="#4A4A4A" stroke-width="2" stroke-linecap="round"/>
<path d="M2.01696 12.9909C5.27965 15.6793 9.68955 15.9558 13.0249 14.8755C13.0974 16.68 13.571 18.441 14.6356 19.7027C19.3115 17.9718 19.192 11.9532 17.7981 8.88958C17.3786 5.57468 14.2937 0.320648 9.33979 1.07271C9.08888 2.67349 9.61289 4.42171 10.5061 6.01453C7.05394 6.6843 3.39294 9.0423 2 12.9312C2.00988 12.9394 2.02019 12.947 2.03009 12.9551C2.02576 12.9671 2.02124 12.9789 2.01696 12.9909Z" fill="#9ABD6D"/>
<path d="M26.5327 12.1832C24.4015 11.288 18.7182 8.14072 12.4553 10.0466M2.01696 12.9909C5.27965 15.6793 9.68955 15.9558 13.0249 14.8755C13.0974 16.68 13.571 18.441 14.6356 19.7027C19.3115 17.9718 19.192 11.9532 17.7981 8.88958C17.3786 5.57468 14.2937 0.320648 9.33979 1.07271C9.08888 2.67349 9.61289 4.42171 10.5061 6.01453C7.05394 6.6843 3.39294 9.0423 2 12.9312C2.00988 12.9394 2.02019 12.947 2.03009 12.9551C2.02576 12.9671 2.02124 12.9789 2.01696 12.9909Z" stroke="#4A4A4A" stroke-width="2" stroke-linecap="round"/>
<path d="M26.7665 31.5146C21.7206 22.0516 31.6193 8.81441 26.5683 4.77191" stroke="#4A4A4A" stroke-width="2" stroke-linecap="round"/>
<path d="M37.7665 44.6121C34.2665 40.7314 33.7665 43.6419 29.2666 38.791" stroke="#4A4A4A" stroke-width="2" stroke-linecap="round"/>
<path d="M39.2665 39.276C34.7665 38.791 35.2665 39.7611 31.7665 40.7313" stroke="#4A4A4A" stroke-width="2" stroke-linecap="round"/>
<path d="M14.6971 43.1568C18.1971 39.2761 18.6971 42.1866 23.1971 37.3357" stroke="#4A4A4A" stroke-width="2" stroke-linecap="round"/>
<path d="M22.309 48.4405C23.3401 43.3819 25.2731 45.66 26.6702 39.2761" stroke="#4A4A4A" stroke-width="2" stroke-linecap="round"/>
<path d="M33.7664 48.0077C32.7353 42.9491 27.6635 47.6003 26.2664 41.2164" stroke="#4A4A4A" stroke-width="2" stroke-linecap="round"/>
</svg>
